<?xml version="1.0" encoding="utf-8"?>
<!-- Generator: Adobe Illustrator 16.0.0, SVG Export Plug-In . SVG Version: 6.00 Build 0)  -->
<!DOCTYPE svg PUBLIC "-//W3C//DTD SVG 1.1//EN" "http://www.w3.org/Graphics/SVG/1.1/DTD/svg11.dtd">
<svg version="1.1" id="Слой_1" xmlns="http://www.w3.org/2000/svg" xmlns:xlink="http://www.w3.org/1999/xlink" x="0px" y="0px"
	 width="146px" height="51px" viewBox="0 0 146 51" enable-background="new 0 0 146 51" xml:space="preserve">
<g>
	<rect x="0.044" fill="#D52332" width="145.955" height="40.391"/>
	<path fill="#FFFFFF" d="M49.994,17.354c-0.035,0.085-0.076,0.182-0.076,0.182s-0.048,0.008-0.088,0.011v0.664l-0.114,0.009
		c-0.036,0-0.051,0.022-0.065,0.208c-0.009,0.135-0.019,0.287-0.128,0.376l-0.572,0.135l0.242-0.278
		c0.061-0.084,0.088-0.186,0.088-0.316c0-0.021-0.001-0.05-0.003-0.074c-0.046-0.032-0.079-0.091-0.094-0.184
		c-0.235-0.039-0.434-0.238-0.577-0.408c0,0-0.075-0.082-0.106-0.115l-0.002,0.004c-0.227,0.081-0.319,0.067-0.438-0.005v0.313
		c0.191,0.054,0.258,0.241,0.296,0.366l0.086,0.195l0.034,0.085l0.052,0.202c0.03,0.077,0.072,0.167,0.072,0.298
		c0,0.005-0.004,0.014-0.005,0.02c0.029,0.008,0.062,0.008,0.089,0.026c0.1,0.072,0.112,0.197,0.121,0.301l0.021,0.116l0.053,0.042
		l0.015,0.079l-0.007,0.258c-0.012,0.456-0.035,0.918-0.298,1.165c0.027,0.102,0.053,0.207,0.053,0.316
		c0,0.159-0.03,0.323-0.091,0.458c-0.078,0.192-0.204,0.324-0.361,0.385l-0.142,0.055c0,0-0.012-0.095-0.019-0.136
		c-0.008,0.008-0.023,0.017-0.023,0.017c-0.081,0.056-0.179,0.125-0.285,0.071c-0.101-0.052-0.113-0.181-0.115-0.224l-0.004-0.055
		l0.147-0.164c0.156-0.172,0.293-0.325,0.293-0.631c0-0.039-0.006-0.088-0.01-0.137c-0.402-0.161-0.661,0.104-0.92,0.394
		l-0.361,0.376l-0.071-0.163c-0.257-0.527-0.26-1.213-0.005-2.036l0.028-0.091l0.095,0.004c0.077,0.006,0.128-0.026,0.186-0.063
		v-0.662l0.092-0.025c0.07-0.016,0.098-0.084,0.147-0.234c0.05-0.159,0.133-0.379,0.392-0.406c0.008-0.115,0.019-0.26,0.019-0.26
		s-0.013-0.242-0.021-0.361c-0.3-0.018-0.517,0.039-0.621,0.174c-0.065,0.077-0.155,0.061-0.229,0.047
		c0-0.024-0.118,0.162-0.118,0.162l-0.068,0.111l-0.223,0.233l-0.087,0.087c0.006-0.016,0.018,0.081,0.018,0.081l-0.005,0.217
		l-0.235,0.254c0.004-0.003-0.077,0.074-0.086,0.083c0.016,0.03,0.035,0.057,0.035,0.08v0.022c-0.009,0.094-0.086,0.146-0.159,0.2
		l-0.102,0.084l0.102,0.175l-0.177,0.037c-0.123,0.013-0.195,0.038-0.242,0.065c0.057,0.056,0.101,0.12,0.131,0.179l0.107,0.211
		l-0.405-0.043c0.007,0,0.007,0.155,0.007,0.155l-0.016,0.316l-0.137,0.161c-0.046,0.033-0.063,0.044-0.063,0.121v0.066
		c0,0.417,0.061,0.486,0.063,0.487c0.037,0.015,0.224,0.122,0.224,0.122c0.007,0.008,0.025,0.268,0.025,0.268
		s-0.004,0.032-0.008,0.057c0.338,0.108,0.535,0.334,0.535,0.712v0.016c0.031,0.013,0.068,0.02,0.068,0.02
		c0.157,0.035,0.337,0.07,0.428,0.229l0.023,0.038l-0.007,0.045c-0.003,0.041-0.004,0.075-0.004,0.105
		c0,0.087,0.017,0.126,0.03,0.145c0,0,0.014,0.009,0.018,0.009c0.08-0.113,0.192-0.192,0.357-0.188l0.371,0.024
		c0.521,0.034,0.965,0.068,1.325-0.212l0.054-0.045l0.034,0.02c0,0,0.041,0.016,0.077,0.031c-0.003-0.01-0.015-0.02-0.015-0.031
		c0-0.024,0.005-0.047,0.018-0.072c0.049-0.093,0.157-0.091,0.266-0.076c-0.004-0.01-0.089-0.351-0.089-0.351l0.067-0.012
		c0.135-0.115,0.216-0.132,0.331-0.064c0,0,0.026,0.008,0.044,0.012v-0.032c0-0.143,0.016-0.326,0.194-0.372l0.193-0.045
		l-0.042,0.194c-0.006,0.024-0.01,0.04-0.01,0.054c0,0.032,0.023,0.044,0.121,0.066c0.104,0.027,0.275,0.072,0.308,0.268
		l0.004,0.024l-0.011,0.026c-0.004,0.024-0.009,0.043-0.009,0.058c0,0.026,0.018,0.038,0.056,0.068
		c0.045,0.028,0.095,0.087,0.132,0.167c0.139,0.054,0.205,0.05,0.324,0.024l0.434-0.068l0.007,0.161l0.005,0.066
		c0.025,0.035,0.141,0.042,0.222,0.047c0,0,0.098,0.026,0.193,0.054c0.086-0.228,0.25-0.273,0.391-0.305l0.135-0.049
		c0-0.092,0.039-0.198,0.106-0.25c0-0.003,0.206-0.027,0.206-0.027l0.052,0.003c0-0.002,0.1-0.077,0.1-0.077
		c0.049-0.066,0.116-0.12,0.22-0.137c-0.006-0.095-0.039-0.164-0.089-0.244c0,0-0.035-0.081-0.071-0.156
		c-0.468-0.016-0.946-0.027-1.063,0.251l-0.032,0.074h-0.861l0.035-0.155c0.009-0.027,0.012-0.056,0.012-0.089
		c0-0.172-0.086-0.394-0.141-0.551l-0.079-0.329c0.021-0.09,0.104-0.109,0.166-0.118l0.086-0.024
		c-0.084-0.061-0.119-0.119-0.119-0.185c0-0.036,0.013-0.078,0.037-0.122c0,0,0.006-0.032,0.012-0.059
		c-0.051-0.018-0.107-0.043-0.144-0.096c-0.032-0.046-0.048-0.096-0.048-0.159c0-0.026,0.005-0.061,0.009-0.094v-0.004
		c0-0.131,0.102-0.199,0.162-0.242c0.041-0.027,0.059-0.039,0.059-0.069c0-0.013-0.003-0.029-0.012-0.053
		c-0.005-0.04-0.079-0.339-0.079-0.339c-0.046-0.131-0.086-0.247-0.086-0.348c0-0.043,0.006-0.081,0.024-0.119
		c0,0,0.046-0.039,0.083-0.07c-0.02-0.038-0.043-0.078-0.043-0.078s0.057,0.012,0.109,0.021c0.029-0.028,0.089-0.077,0.089-0.077
		s0,0.055-0.003,0.09c0.005,0,0.025,0.002,0.025,0.002h0.101c0.015-0.165,0.048-0.493,0.048-0.493
		c0.029-0.139,0.057-0.276,0.057-0.438c0-0.041-0.004-0.086-0.008-0.131c-0.082-0.016-0.23-0.049-0.23-0.049
		c-0.177-0.028-0.347-0.084-0.472-0.201C50.103,17.328,50.056,17.347,49.994,17.354"/>
	<path fill="#FFFFFF" d="M63.112,17.136c-0.033,0.053-0.09,0.092-0.19,0.104c-0.015,0.042-0.029,0.083-0.029,0.083l-0.297,0.69
		l-0.073-0.009h-0.293c-0.007,0.173-0.071,0.29-0.129,0.379c0,0-0.025,0.048-0.048,0.092c0.026,0.02,0.057,0.037,0.057,0.037
		l0.398,0.337l-0.099,0.077c-0.134,0.167-0.137,0.398-0.141,0.645l-0.046,0.49l-0.113,0.224l-0.091,0.188
		c0,0.004-0.001,0.368-0.001,0.368l0.001,0.381c-0.349,0.69-0.425,1.636-0.49,2.548c0,0-0.018,0.189-0.022,0.283
		c0.104,0.062,0.188,0.149,0.245,0.259c0.123-0.003,0.217-0.027,0.273-0.081l0.229-0.203l-0.023,0.312
		c-0.007,0.05,0.002,0.071,0.007,0.076c0,0,0.032,0.027,0.158,0.004c0,0,0.003-0.036,0.064-0.048V24.37l0.087-0.215l0.199-0.059
		c-0.043,0.003,0.06-0.075,0.06-0.075c0.064-0.068,0.159-0.163,0.342-0.157c0.031-0.11,0.109-0.171,0.164-0.202
		c0.04-0.02,0.058-0.028,0.058-0.056c0-0.022-0.01-0.046-0.022-0.092l-0.134-0.372c0,0,0.36,0.25,0.367,0.258
		c0-0.004-0.004-0.004-0.004-0.004c0-0.026,0.044-0.114,0.044-0.114c0.07-0.154,0.197-0.415,0.503-0.383
		c0.087-0.273,0.265-0.464,0.566-0.525c-0.038,0.017-0.021-0.093-0.021-0.093c0.012-0.112,0.031-0.319,0.24-0.337v-0.001
		c0-0.009,0.127-0.116,0.127-0.116c0.074-0.095,0.173-0.222,0.386-0.222V21.09l0.14-0.004l0.121-0.004l0.03-0.107l0.029-0.139
		l0.326-0.356l0.117-0.11c-0.003,0.004,0.14-0.128,0.14-0.128c0.131-0.108,0.176-0.151,0.143-0.291l-0.099-0.401l0.309,0.283
		c0.033-0.074,0.105-0.224,0.105-0.224s0.088-0.009,0.16-0.02c0.004-0.008,0.021-0.104,0.021-0.104
		c0.009-0.111,0.029-0.319,0.236-0.338l0.156-0.014l-0.026,0.161c-0.159,0.999-0.31,2.088-0.31,3.315v0.06l-0.047,0.036
		c-0.143,0.122-0.168,0.415-0.19,0.699c0,0-0.046,0.293-0.064,0.427c0.091,0.055,0.267,0.055,0.434,0.05
		c0,0,0.048-0.001,0.092-0.001c-0.012-0.038-0.049-0.184-0.049-0.184l0.032-0.101c0.045-0.052,0.104-0.047,0.188-0.038
		c0.036-0.212,0.042-0.477,0.046-0.767l0.046-0.953l0.053-0.26c0.048-0.216,0.106-0.458,0.052-0.656l-0.024-0.107l0.092-0.045
		c0.104-0.046,0.104-0.095,0.058-0.25l-0.013-0.219c0.033-0.103,0.146-0.087,0.224-0.077h0.011c0.004-0.022,0.009-0.042,0.009-0.079
		c0-0.119-0.02-0.282-0.029-0.377l-0.015-0.296l0.104-0.598c0.06-0.309,0.121-0.604,0.121-0.916c0-0.064-0.005-0.132-0.01-0.197
		c-0.041-0.004-0.056,0.012-0.08,0.059l-0.315,0.294l-0.022-0.197c0,0-0.014-0.038-0.032-0.071c-0.008,0.007-0.02,0.012-0.02,0.012
		c-0.071,0.063-0.185,0.154-0.342,0.161c-0.023,0.275-0.18,0.444-0.281,0.532l-0.055,0.053c-0.168,0.199-0.255,0.338-0.283,0.58
		l-0.009,0.064l-0.071,0.04l-0.188,0.098c0,0-0.104,0.051-0.166,0.084c-0.058,0.223-0.259,0.759-0.504,0.785
		c-0.023,0.041-0.047,0.088-0.047,0.088c-0.087,0.064-0.106,0.132-0.135,0.221l-0.166,0.306c-0.065,0.066-0.15,0.047-0.215,0.037
		c-0.015,0.021-0.16,0.227-0.16,0.227s-0.059-0.005-0.104-0.011c-0.017,0.284-0.188,0.399-0.296,0.462l-0.062,0.042l-0.131,0.164
		c-0.085,0.126-0.2,0.279-0.374,0.298c-0.013,0.157-0.036,0.299-0.108,0.387l-0.038,0.044l-0.052,0.001
		c-0.143,0.005-0.255,0.112-0.362,0.215l-0.2,0.221c-0.137,0.181-0.432,0.307-0.432,0.307l-0.018,0.116
		c-0.011,0.097-0.024,0.226-0.124,0.292c-0.065,0.049-0.149,0.059-0.257,0.026l-0.098-0.027l0.085-1.089l0.032-0.606l0.078-0.026
		c0.099-0.035,0.137-0.154,0.185-0.346c0.047-0.162,0.116-0.329,0.252-0.435c-0.005-0.048-0.009-0.096-0.009-0.141
		c0-0.197,0.034-0.361,0.066-0.52c0.032-0.151,0.065-0.293,0.065-0.469c0-0.065-0.005-0.135-0.016-0.213l-0.02-0.13l0.132-0.011
		c0.023-0.003,0.034-0.02,0.053-0.159c0.018-0.114,0.037-0.251,0.143-0.33c0,0,0.055-0.01,0.104-0.02
		c0-0.291,0.061-0.523,0.12-0.747c0.053-0.222,0.109-0.431,0.109-0.7c0-0.064-0.005-0.14-0.013-0.214
		c-0.085-0.043-0.142-0.128-0.173-0.254c-0.144,0.007-0.23-0.041-0.296-0.083C63.231,17.146,63.188,17.123,63.112,17.136"/>
	<path fill="#FFFFFF" d="M102.409,16.105c-0.061,0.076-0.13,0.163-0.243,0.151c-0.028,0-0.048-0.024-0.073-0.04
		c0.064,0.082,0.142,0.185,0.142,0.348v0.032l-0.008,0.125l-0.125-0.009c-0.096-0.008-0.119,0.022-0.17,0.203l-0.159,0.306
		l-0.198-0.125c0.027-0.11,0.012-0.16,0-0.17c-0.006-0.008-0.024-0.014-0.061-0.014c0,0.017,0.006,0.035,0.006,0.05
		c0,0.167-0.042,0.298-0.072,0.413c-0.031,0.109-0.061,0.208-0.061,0.333c0,0.047,0.005,0.093,0.011,0.147l0.008,0.045l-0.019,0.039
		c-0.055,0.098-0.169,0.113-0.261,0.124c0,0-0.058,0.012-0.072,0.014c0.018,0.008,0.022,0.095,0.022,0.095
		c0.006,0.044,0.013,0.092,0.013,0.141c0,0.079-0.016,0.153-0.078,0.208c-0.038,0.031-0.085,0.042-0.13,0.042v1.059l-0.127-0.004
		c-0.069-0.001-0.112,0.029-0.156,0.052c0.009,0.039,0.035,0.082,0.035,0.109c0,0.124-0.07,0.197-0.114,0.247l-0.038,0.042
		c0-0.003,0.061,0.094,0.061,0.094l0.111,0.192l-0.207,0.016c-0.132,0-0.297,0.186-0.343,0.331c0.063,0.006,0.131,0.049,0.15,0.163
		l0.011,0.051l-0.061,0.079l-0.092,0.153c-0.022,0.055-0.053,0.115-0.094,0.168c0.077,0.078,0.134,0.178,0.134,0.313l-0.003,0.088
		l-0.082,0.049c-0.13,0.083-0.2,0.146-0.277,0.265c0.03,0.041,0.05,0.09,0.05,0.143c0,0.009,0,0.015-0.001,0.024
		c-0.004,0.02-0.159,0.144-0.159,0.144s-0.039,0.016-0.066,0.03c-0.01,0.051-0.087,0.42-0.087,0.42s-0.064,0.275-0.095,0.411
		c0.061,0.039,0.12,0.077,0.12,0.077l0.086,0.064c0.289,0.078,0.314,0.222,0.32,0.352c0.004,0.059,0.004,0.074,0.041,0.106
		c0-0.005,0.13-0.012,0.13-0.012c0.108-0.018,0.246-0.038,0.326,0.067c0.026,0.038,0.034,0.079,0.035,0.125
		c0.073-0.012,0.136-0.036,0.199-0.078c0.095-0.067,0.207-0.14,0.394-0.138c0.044-0.202,0.127-0.399,0.334-0.5
		c-0.01-0.017-0.021-0.052-0.021-0.052s0.052,0.005,0.1,0.01c0.066-0.021,0.235-0.086,0.235-0.086s-0.027,0.06-0.052,0.106
		c0.145,0.016,0.196-0.056,0.271-0.178l0.201-0.24c0.003,0,0.241-0.122,0.241-0.122c0.071-0.031,0.11-0.067,0.158-0.103
		c-0.007-0.018-0.023-0.053-0.023-0.053l0.057-0.087c0.044-0.047,0.126-0.063,0.208-0.075c-0.011-0.042-0.03-0.087-0.03-0.124
		c0-0.063,0.018-0.116,0.063-0.154c0.039-0.037,0.09-0.037,0.14-0.03c-0.002-0.007-0.011-0.032-0.011-0.032l0.191-0.164
		c0.066,0.082,0.071,0.077,0.173-0.008c0.052-0.041,0.162-0.11,0.286-0.084c0.051-0.149,0.12-0.277,0.193-0.399l0.179-0.292
		c0,0,0.021,0.026,0.032,0.049c0.039-0.117,0.095-0.245,0.229-0.302c0.052-0.02,0.109-0.018,0.173-0.009
		c0.057-0.337,0.334-0.653,0.592-0.718c0.008-0.003,0.012,0,0.017-0.003c0-0.014-0.012-0.017-0.012-0.034
		c0-0.021,0.003-0.048,0.006-0.073l0.015-0.106l0.069,0.004l0.318-0.002c0.042,0.004,0.106,0.012,0.156,0.012
		c-0.007-0.021-0.015-0.044-0.015-0.067c0-0.072,0.041-0.145,0.08-0.223c-0.07,0.008-0.136,0.012-0.194-0.021
		c-0.094-0.05-0.139-0.146-0.116-0.248c0.027-0.194,0.213-0.215,0.357-0.211c0.132-0.365,0.441-0.529,0.701-0.615
		c0.027-0.07,0.053-0.138,0.053-0.187c0-0.09-0.053-0.155-0.147-0.28l-0.1-0.123l0.191-0.084l0.056-0.029l0.456-0.126l-0.073,0.182
		l-0.04,0.299c-0.012,0.055-0.015,0.095-0.021,0.139c0.069-0.013,0.295-0.051,0.295-0.051l-0.027,0.13
		c0.006,0.033,0.007,0.065,0.007,0.094c0,0.188-0.074,0.318-0.123,0.411l-0.047,0.095c0.006-0.004,0.094,0.053,0.094,0.053
		l0.112,0.078l-0.092,0.14l-0.181,0.238c0,0-0.045,0.069-0.077,0.118c0.019,0.05,0.045,0.099,0.045,0.151
		c0,0.153-0.062,0.322-0.127,0.492c-0.07,0.192-0.143,0.391-0.143,0.588c0,0.043,0.002,0.078,0.008,0.119l0.016,0.078l-0.115,0.068
		l-0.101,0.073c0,0-0.051,0.038-0.102,0.071c0.01,0.04,0.13,0.525,0.13,0.525l-0.142-0.023c-0.082,0.011-0.099,0.012-0.09,0.202
		l-0.014,0.236l-0.112,0.185l-0.096,0.149c0,0.027-0.063,0.833-0.063,0.833s-0.028,0.547-0.036,0.679
		c0.054,0.042,0.097,0.104,0.104,0.223c0.018,0.003,0.092,0.018,0.092,0.018c0.108,0.01,0.304,0.031,0.321,0.242
		c0-0.006,0.019,0.118,0.019,0.118v0.461c0.028-0.012,0.067-0.012,0.083-0.032c0.052-0.062,0.078-0.16,0.078-0.293
		c0-0.039-0.002-0.08-0.003-0.122l-0.021-0.185l0.173,0.047c0.073,0.022,0.077,0.018,0.116-0.046
		c0.027-0.041,0.077-0.09,0.141-0.127c-0.007-0.078-0.012-0.159-0.012-0.237c0-0.405,0.078-0.787,0.149-1.132
		c0.06-0.299,0.12-0.589,0.12-0.857c0-0.12-0.009-0.238-0.039-0.347l-0.026-0.089l0.075-0.049c0.243-0.161,0.322-0.511,0.408-0.882
		c0.068-0.283,0.138-0.578,0.286-0.802c-0.07-0.117-0.125-0.246-0.125-0.346c0-0.013,0-0.022,0.002-0.034
		c-0.002,0.017,0.104-0.142,0.104-0.142l0.117-0.12v-0.004c0-0.03,0.05-0.33,0.05-0.33l0.05-0.292l0.03-0.086
		c0.189-0.521,0.316-0.869,0.173-1.337l-0.021-0.078l0.056-0.052c0.072-0.071,0.07-0.285,0.066-0.477l-0.003-0.185
		c-0.013,0.001-0.139-0.107-0.227-0.11c0.015,0.031,0.038,0.059,0.041,0.097v0.016c0,0.118-0.078,0.209-0.189,0.23l-0.095,0.018
		l-0.049-0.111l-0.039-0.093c-0.033-0.059-0.067-0.14-0.071-0.251c-0.258-0.001-0.476,0.091-0.519,0.177
		c-0.006,0.009-0.016,0.023,0.015,0.056l0.165,0.216l-0.267-0.009c-0.139-0.006-0.226,0.025-0.289,0.065v0.339l-0.098,0.022
		c-0.116,0.03-0.185,0.113-0.266,0.222c-0.082,0.107-0.197,0.217-0.366,0.272v0.45l-0.137,0.027c0,0-0.213,0.057-0.281,0.074v0.484
		c0,0-0.287-0.045-0.299-0.048c0.008,0.005,0.01,0.032,0.01,0.047v0.015l-0.042,0.227l-0.242,0.12l-0.056,0.015
		c0.007,0.03,0.012,0.063,0.012,0.097c0,0.038-0.009,0.08-0.042,0.113c-0.045,0.047-0.101,0.049-0.159,0.045
		c0.001,0.004,0,0.004,0.003,0.014c0.02,0.031,0.048,0.081,0.048,0.134c0,0.021-0.003,0.043-0.018,0.063
		c-0.033,0.083-0.121,0.098-0.149,0.106c-0.026,0.001-0.265-0.05-0.265-0.05s-0.032-0.013-0.043-0.016v0.002
		c0.006,0.01,0.024,0.014,0.027,0.019c0.009,0.021,0.011,0.042,0.011,0.06c0,0.069-0.043,0.125-0.083,0.18
		c-0.032,0.042-0.085,0.11-0.085,0.148v0.006l0.349,0.35l-0.371-0.056c-0.338-0.061-0.408,0.105-0.515,0.357
		c0,0-0.223,0.38-0.225,0.384c0.006,0.013,0.024,0.021,0.024,0.038c0,0.01,0,0.024-0.001,0.037c-0.023,0.094-0.11,0.128-0.149,0.142
		c-0.005,0.008-0.022,0.043-0.022,0.043s-0.002-0.024-0.004-0.029c-0.013,0.001-0.022,0.005-0.022,0.005l-0.035-0.012
		c-0.103-0.03-0.133-0.01-0.189,0.033c0,0-0.123,0.029-0.219,0.051c-0.194,0.296-0.436,0.622-0.731,0.865
		c-0.065,0.052-0.146,0.036-0.206,0.022v0.028c0,0.047-0.021,0.133-0.14,0.181c0,0-0.151,0.007-0.195,0.007
		c0.016,0.044,0.019,0.088,0.044,0.127l0.158,0.237l-0.275-0.039c-0.204-0.031-0.236,0.015-0.294,0.123l-0.13,0.171l-0.279,0.17
		l-0.485,0.296l0.046-0.269c0.028-0.151,0.003-0.219-0.038-0.313l-0.111-0.469l0.178,0.036c0,0,0.022,0.002,0.05,0.002
		c-0.008-0.021-0.019-0.041-0.019-0.041l-0.059-0.302v-0.006c0-0.043,0.054-0.071,0.145-0.111l0.104-0.052
		c0.05-0.056,0.061-0.171,0.061-0.295c0-0.061-0.002-0.122-0.003-0.184v-0.419l0.12,0.011h0.271
		c-0.005-0.045-0.021-0.091-0.021-0.135c0-0.25,0.111-0.441,0.223-0.629c0.122-0.205,0.244-0.413,0.244-0.72
		c0-0.033-0.002-0.066-0.002-0.101l-0.014-0.141l0.213,0.009c-0.004-0.012-0.004-0.032-0.004-0.05c0-0.072,0.017-0.188,0.017-0.188
		l0.121-0.143c0,0,0.082-0.073,0.088-0.079c-0.013-0.005-0.063-0.164-0.063-0.164l-0.132-0.231l0.199-0.012
		c0.047-0.003,0.062-0.021,0.105-0.135c0.033-0.096,0.111-0.237,0.283-0.276c-0.011-0.067-0.033-0.133-0.033-0.197
		c0-0.314,0.168-0.587,0.458-0.812c-0.016-0.06-0.039-0.124-0.039-0.183c0-0.1,0.016-0.194,0.033-0.285l0.021-0.319
		c-0.003,0.004-0.097-0.086-0.097-0.086c-0.077-0.061-0.15-0.132-0.171-0.233C102.506,16.001,102.459,16.042,102.409,16.105"/>
	<path fill="#FFFFFF" d="M119.127,15.405l-0.018-0.009c-0.012,0.049-0.017,0.105-0.062,0.141c-0.029,0.021-0.057,0.018-0.082,0.029
		c0.006,0.003,0.007,0.008,0.007,0.008l0.008,0.033c0,0.015,0.004,0.022,0.004,0.034c0,0.079-0.037,0.134-0.103,0.165
		c-0.087,0.044-0.163,0.013-0.235-0.021c-0.009,0.012-0.161,0.256-0.161,0.256s-0.027,0.003-0.046,0.005
		c0,0.016-0.003,0.035-0.003,0.048c0,0.127,0.037,0.227,0.114,0.303l0.176,0.188l-0.32,0.019l-0.09,0.006
		c-0.044,0.025-0.056,0.127-0.065,0.206c-0.018,0.134-0.037,0.286-0.18,0.376c0,0-0.084,0.014-0.166,0.028
		c-0.008,0.037-0.018,0.078-0.018,0.108c0,0.126,0.059,0.203,0.127,0.293l0.269,0.551l-0.274-0.067
		c-0.152-0.017-0.267-0.007-0.313,0.038c-0.036,0.027-0.049,0.08-0.049,0.146c0,0.004,0.003,0.016,0.003,0.023
		c0.029-0.001,0.064-0.017,0.133-0.053c0.064-0.041,0.158-0.093,0.268-0.052c0.118,0.042,0.129,0.151,0.138,0.192l0.016,0.134
		l-0.167,0.008c-0.064,0.002-0.091,0.024-0.132,0.194c0,0-0.032,0.064-0.069,0.123c0.098,0.024,0.211,0.06,0.216,0.195l0.013,0.164
		l-0.146-0.034l-0.373-0.066c0,0-0.03-0.01-0.051-0.013v0.016c0,0.102,0.061,0.143,0.156,0.211l0.142,0.104l-0.003,0.053v0.773
		h-0.234c0.008,0.038,0.028,0.091,0.028,0.125c0,0.087-0.026,0.15-0.041,0.201c0.049,0.018,0.104,0.045,0.125,0.103l0.028,0.063
		l-0.069,0.101c-0.043,0.048-0.105,0.058-0.187,0.054l0.005,0.021l0.106,0.219l-0.067,0.039l-0.091,0.142
		c0,0.005-0.005,0.151-0.005,0.151c0,0.03,0.005,0.064,0.005,0.097c0,0.095-0.023,0.198-0.067,0.296
		c0.095,0.024,0.192,0.06,0.195,0.191c0.034,0.06,0.046,0.113,0.046,0.158c0,0.101-0.061,0.16-0.127,0.203
		c0.008,0.008,0.027,0,0.036,0.011c0.019,0.029,0.03,0.054,0.03,0.081c0,0.007-0.012,0.015-0.012,0.025
		c0.132,0.031,0.247,0.143,0.288,0.239l0.052,0.131l-0.163,0.034c-0.206,0.044-0.477,0.168-0.527,0.679
		c0.033,0.026,0.05,0.072,0.075,0.121c0.053-0.008,0.226-0.045,0.226-0.045l0.126,0.141c0,0,0.017,0.029,0.035,0.055
		c0.065,0.021,0.15,0.053,0.218,0.094c0.012-0.002,0.152-0.034,0.152-0.034l0.381-0.094l0.069,0.065l0.139,0.059
		c0,0,0.474,0.073,0.482,0.076c-0.016-0.073-0.042-0.139-0.097-0.205l-0.214-0.362l0.147-0.032c0.1-0.042,0.124-0.087,0.131-0.116
		c0.006-0.016,0.008-0.034,0.008-0.05c0-0.14-0.142-0.329-0.197-0.406l-0.1-0.127l0.313-0.105c-0.042-0.003-0.103-0.286-0.103-0.286
		l0.085-0.124c0,0,0.019-0.025,0.034-0.048c-0.079-0.093-0.119-0.209-0.119-0.226c-0.022-0.083-0.029-0.157-0.029-0.228
		c0-0.164,0.04-0.288,0.069-0.393c0.025-0.08,0.039-0.143,0.039-0.206c0-0.064-0.014-0.124-0.065-0.202l-0.2-0.306l0.524,0.169
		c0.028,0.013,0.043,0.002,0.063-0.006l-0.068-0.034c-0.084-0.036-0.247-0.095-0.247-0.271c0-0.053,0.019-0.12,0.055-0.195
		l0.031-0.069l0.453-0.054c0.126-0.023,0.247-0.02,0.377-0.003c-0.005-0.033-0.027-0.081-0.027-0.104
		c0-0.055,0.022-0.092,0.081-0.119c0.123-0.052,0.209,0.026,0.264,0.072c0,0,0.044,0.035,0.087,0.064
		c0.039-0.077,0.088-0.152,0.088-0.152c0.023-0.014,0.271-0.04,0.271-0.04c0.036,0.015,0.135-0.06,0.135-0.06
		c0.082-0.074,0.224-0.183,0.414-0.197c-0.014-0.035-0.028-0.088-0.028-0.088l0.195-0.159c0,0,0.018,0.01,0.02,0.013
		c-0.028-0.039-0.062-0.09-0.095-0.162l-0.41-0.061c-0.13-0.001-0.207,0.039-0.305,0.087l-0.234,0.123l-0.006-0.228v-0.049
		c-0.093,0.036-0.169,0.086-0.248,0.181c-0.099,0.111-0.247,0.215-0.463,0.269c0,0.008,0.004,0.013,0.004,0.019
		c0,0.058-0.028,0.117-0.079,0.164c-0.116,0.104-0.358,0.135-0.52,0.07c-0.096-0.042-0.15-0.115-0.15-0.199
		c0-0.016,0.002-0.034,0.007-0.05l0.026-0.101h0.207c-0.011-0.065-0.043-0.138-0.043-0.198c0-0.115,0.027-0.213,0.043-0.299
		l0.027-0.226l-0.021-0.098c-0.015-0.079-0.032-0.166-0.032-0.249c0-0.099,0.026-0.198,0.118-0.262
		c0.051-0.042,0.125-0.058,0.208-0.064c-0.012-0.098-0.08-0.157-0.165-0.215l-0.161-0.216l0.098-0.18
		c0.129-0.102,0.162-0.146,0.162-0.187c0-0.021-0.007-0.037-0.02-0.057l-0.055-0.331l0.097-0.126c0,0,0.01-0.02,0.02-0.038
		c-0.052-0.038-0.119-0.098-0.119-0.215c0-0.016,0.002-0.032,0.003-0.045l0.011-0.1h0.019c-0.017-0.049-0.029-0.12-0.029-0.12
		l0.116-0.136c0-0.004,0.006-0.013,0.006-0.017c0-0.044-0.037-0.095-0.037-0.095l-0.152-0.233l0.152-0.043
		c0.086-0.035,0.132-0.133,0.183-0.241c0,0,0.036-0.064,0.078-0.124c-0.054,0.033-0.114,0.064-0.191,0.038
		c-0.066-0.023-0.097-0.059-0.118-0.099C119.342,15.301,119.127,15.405,119.127,15.405 M121.229,18.7
		c-0.11,0.038-0.252,0.076-0.438,0.068c0,0.03,0.02,0.041,0.078,0.063c0,0,0.461,0.405,0.471,0.413
		c-0.01-0.017,0.021-0.037,0.012-0.059c-0.079-0.069-0.197-0.083-0.197-0.164c0-0.036,0.012-0.078,0.037-0.119l0.047-0.083
		l0.113,0.009c0.049,0.003,0.076-0.003,0.082-0.009c0,0,0.021-0.017,0.021-0.078c0-0.013-0.006-0.026-0.006-0.041
		C121.394,18.666,121.352,18.665,121.229,18.7"/>
	<path fill="#FFFFFF" d="M122.903,15.09c-0.003,0.02-0.015,0.037-0.015,0.059c0,0.052,0.015,0.11,0.026,0.175l0.027,0.31
		l-0.128,0.414l-0.133,0.446v0.326c0.003,0.081,0.008,0.155,0.008,0.226c0,0.194-0.029,0.347-0.171,0.417
		c-0.014,0.008-0.042,0.011-0.065,0.016c0.011,0.014,0.008,0.02,0.027,0.031c0.081,0.046,0.212,0.121,0.212,0.286
		c0,0.037-0.005,0.073-0.015,0.111l-0.012,0.031l-0.159,0.146c-0.121,0.101-0.218,0.182-0.225,0.335l0.048,0.231
		c0.021,0.088,0.044,0.175,0.044,0.26c0,0.08-0.022,0.156-0.08,0.223c-0.055,0.061-0.168,0.079-0.271,0.103
		c0.018,0.142,0.058,0.531,0.058,0.531l0.083,0.592l-0.195,0.01c-0.074-0.01-0.086,0.002-0.136,0.068c0,0-0.038,0.033-0.077,0.064
		c0.033,0.09,0.06,0.185,0.06,0.316c0,0.17-0.021,0.368-0.037,0.594c-0.023,0.242-0.049,0.515-0.049,0.774
		c0,0.394,0.057,0.769,0.261,0.998l0.025,0.032v0.648l0.008-0.004c0.645-0.072,1.308-0.154,1.914-0.274
		c-0.029-0.349-0.114-0.675-0.205-0.987l-0.177-0.725l0.074-0.363c0,0,0.022-0.071,0.039-0.129
		c-0.036-0.016-0.075-0.033-0.075-0.033l-0.063-0.297c0,0,0.056,0.005,0.113,0.007c-0.023-0.034-0.044-0.059-0.075-0.12
		c-0.065-0.045-0.177-0.136-0.177-0.269c0-0.047,0.015-0.097,0.047-0.153c0.003-0.005,0.132-0.165,0.132-0.165
		c0.082-0.083,0.142-0.148,0.142-0.268c0-0.033-0.004-0.081-0.021-0.132l-0.065-0.235l0.41,0.132c0.015,0.007,0.022,0.003,0.038,0
		c-0.006-0.012-0.011-0.02-0.052-0.04l-0.194-0.17l-0.071-0.209l-0.226-0.259l0.163-0.124l-0.014,0.004l0.014-0.32l0.151-0.011
		h0.266c0.021-0.095,0.052-0.263,0.052-0.263l0.089-0.553c0,0,0.103,0.057,0.108,0.062c0.011-0.058,0.041-0.109,0.071-0.155
		c0.054-0.062,0.079-0.103,0.084-0.142c-0.095-0.01-0.299-0.037-0.299-0.218v-0.138c0,0,0.198,0.012,0.204,0.012
		c-0.03-0.055-0.077-0.139-0.077-0.139l-0.261-0.574c0,0,0.071,0.039,0.134,0.071l0.011-0.061l0.19-0.102
		c0.149-0.082,0.229-0.154,0.28-0.25c-0.139-0.004-0.327-0.032-0.344-0.207l-0.019-0.119c0,0,0.388-0.053,0.399-0.053
		c-0.021-0.004-0.049-0.143-0.049-0.143s-0.027-0.125-0.049-0.219c-0.174-0.023-0.261-0.115-0.309-0.201
		c-0.024,0.006-0.118,0.047-0.118,0.047c-0.103,0.03-0.289,0.021-0.395-0.085c-0.029-0.028-0.053-0.075-0.06-0.134
		c-0.023,0.011-0.059,0.011-0.085,0.025c-0.111,0.07-0.25,0.152-0.502,0.133l-0.153-0.011l0.012-0.124
		c0.004-0.042-0.003-0.065-0.012-0.072C123.01,15.104,122.984,15.09,122.903,15.09"/>
	<path fill="#FFFFFF" d="M127.259,15.09c-0.04,0.046-0.059,0.111-0.059,0.183c0,0.084,0.03,0.182,0.091,0.293l0.079,0.143
		l-0.19,0.034c-0.119,0.02-0.156,0.099-0.156,0.269c0,0.055,0.003,0.119,0.009,0.197l0.007,0.285l-0.137,0.438
		c-0.057,0.147-0.114,0.308-0.114,0.412c0,0.049,0.011,0.085,0.044,0.102l0.24,0.12l-0.252,0.103
		c-0.081,0.033-0.154,0.089-0.154,0.23c0,0.085,0.027,0.201,0.097,0.366l0.045,0.096l-0.146,0.07l-0.155,0.073
		c-0.013,0.021-0.014,0.044-0.014,0.075c0,0.074,0.03,0.177,0.067,0.269l0.083,0.319l-0.081,0.304l-0.051,0.32l0.046,0.081
		l0.13,0.407l-0.169-0.019c-0.032,0.007-0.128,0.021-0.155,0.174c-0.005,0.028-0.005,0.058-0.005,0.087
		c0,0.211,0.124,0.435,0.202,0.473l0.308,0.132l-0.327,0.097c-0.278,0.083-0.368,0.192-0.368,0.362c0,0.108,0.033,0.236,0.08,0.398
		c0.052,0.174,0.11,0.361,0.11,0.552c0,0.098-0.054,0.201-0.087,0.301c0.183,0.033,0.376,0.084,0.481,0.253l0.07,0.116l-0.225,0.089
		c0.012,0.006,0.076,0.061,0.19,0.145l0.267,0.197l-0.26,0.062c-0.091,0.023-0.146,0.063-0.152,0.159
		c0.102,0.124,0.291,0.189,0.501,0.26c0.215,0.068,0.425,0.154,0.579,0.299c0.131-0.007,0.551-0.028,0.551-0.028
		c0.192,0.007,0.331-0.005,0.49-0.088v-0.01c0-0.052,0.025-0.121,0.145-0.175l0.091-0.046l0.136,0.106l0.002,0.005
		c0.005-0.054,0.021-0.12,0.096-0.166c0.035-0.02,0.102-0.044,0.198-0.023l0.064,0.015l0.03,0.051
		c0.045,0.069,0.055,0.084,0.292,0.005c0.092-0.032,0.202-0.056,0.315-0.071c-0.003-0.007-0.007-0.021-0.007-0.021
		c-0.024-0.046-0.048-0.09-0.048-0.14c0-0.03,0.012-0.06,0.035-0.091c0.022-0.025,0.083-0.045,0.153-0.058
		c-0.024-0.047-0.065-0.094-0.065-0.139c0-0.019,0.004-0.039,0.01-0.059c0.019-0.042,0.063-0.1,0.18-0.132
		c0.028-0.008,0.046-0.008,0.063-0.011c0-0.007-0.006-0.016-0.006-0.019c0-0.149,0.095-0.257,0.169-0.339l0.079-0.101l0.285,0.101
		c0.005,0,0.005-0.007,0.005-0.013c0-0.019-0.006-0.048-0.04-0.074l-0.104-0.028l0.119-0.08c0.004-0.016,0.006-0.038,0.006-0.058
		c0-0.094-0.061-0.183-0.125-0.27l-0.055-0.076l0.096-0.094l0.232-0.242c0,0,0.007-0.009,0.007-0.01
		c-0.131-0.044-0.243-0.118-0.297-0.252l-0.061-0.161l0.206-0.003c0.186-0.007,0.398-0.013,0.474-0.077c0,0,0-0.005,0.003-0.008
		c-0.203-0.01-0.39-0.033-0.514-0.142l-0.288-0.762c0,0,0.162,0.137,0.29,0.251c-0.033-0.05-0.19-0.291-0.19-0.291l0.364,0.165
		c0,0,0.061,0.022,0.118,0.043c0.047-0.139,0.147-0.233,0.235-0.288c0.05-0.031,0.047-0.054,0.066-0.079
		c-0.088-0.026-0.183-0.067-0.183-0.195l0.098-0.206l0.033-0.09c-0.001,0.006-0.148-0.06-0.148-0.06l-0.182-0.08
		c-0.071-0.037-0.075-0.088-0.079-0.134c-0.062,0.037-0.122,0.073-0.122,0.073l-0.364-0.09l0.104-0.061c0,0,0.033-0.068,0.062-0.129
		c-0.025,0.009-0.055,0.009-0.082,0.022h-0.001c-0.023,0.062-0.081,0.117-0.197,0.128l-0.024,0.005l-1.22-0.176l-0.603-0.05
		l-0.027-0.051l-0.076-0.137c-0.047-0.094-0.076-0.131-0.148-0.137c0.022,0.071,0.054,0.12,0.097,0.163
		c0.067,0.07,0.128,0.141,0.128,0.239c0,0.047-0.05,0.116-0.076,0.175c0.042,0,0.087,0.003,0.087,0.003l0.359,0.074
		c0.013,0.007,0.038,0.158,0.042,0.193c0.044,0,0.091,0.001,0.091,0.001c0.125-0.008,0.414-0.025,0.446,0.207
		c0,0,0.011,0.076,0.017,0.091c0.051,0.038,0.097,0.075,0.097,0.075c0.009,0.009,0.021,0.249,0.021,0.249s-0.01,0.083-0.01,0.088
		c0.006,0.002,0.051,0.028,0.051,0.028l0.213,0.188c0.001,0.004,0.121,0.479,0.121,0.479l0.015,0.084
		c0.061,0.282,0.082,0.483,0.082,0.63c0,0.27-0.073,0.339-0.133,0.363c0.003,0.021,0.023,0.044,0.023,0.063
		c0,0.135-0.065,0.243-0.112,0.326c-0.039,0.064-0.064,0.114-0.064,0.165c0,0.035,0.014,0.078,0.056,0.125l0.139,0.187l-0.263,0.009
		c-0.273,0.011-0.3,0.064-0.345,0.17c-0.056,0.123-0.136,0.304-0.564,0.367l-0.228,0.029l0.05-0.183
		c0.07-0.256-0.038-0.483-0.14-0.707l-0.127-0.313c0,0.001,0.082-0.24,0.082-0.24l0.049-0.102c-0.01-0.153-0.085-0.198-0.254-0.301
		l-0.225-0.151l0.102-0.219c0,0,0.088,0.023,0.153,0.042c-0.019-0.031-0.019-0.068-0.044-0.095c-0.055-0.063-0.096-0.143-0.117-0.23
		c-0.039,0.014-0.073,0.032-0.116,0.024c-0.147-0.015-0.224-0.122-0.277-0.205l-0.116-0.194l0.266,0.013
		c0.12,0.008,0.146-0.027,0.227-0.165c0,0,0.031-0.041,0.055-0.066c-0.086-0.014-0.177-0.02-0.265-0.011
		c-0.159,0.011-0.352,0.027-0.428-0.119l-0.07-0.118l0.305-0.102c0.184-0.056,0.354-0.11,0.433-0.217c0,0,0.14-0.207,0.183-0.271
		c-0.207-0.12-0.376-0.302-0.422-0.596c-0.01-0.056-0.011-0.114-0.011-0.175c0-0.335,0.147-0.664,0.474-0.739l0.133-0.031
		c0,0,0.017,0.056,0.038,0.101c0.015-0.142,0.033-0.284,0.033-0.424c0-0.339-0.076-0.654-0.231-0.93
		c-0.016,0.002-0.026,0.015-0.042,0.016c-0.152,0.009-0.277-0.069-0.306-0.198l-0.025-0.09l0.14-0.057l0.191-0.08
		c0.084-0.044,0.197-0.102,0.323-0.103c-0.017-0.023-0.019-0.048-0.049-0.077c0,0-0.068-0.082-0.12-0.15
		c-0.017,0.034-0.039,0.074-0.08,0.098l-0.061,0.035l-0.271-0.049c-0.213-0.035-0.448-0.07-0.562-0.242l-0.141-0.201l0.285,0.016
		c0.163,0.005,0.27-0.023,0.35-0.065c-0.013-0.087-0.08-0.133-0.235-0.193c-0.152-0.064-0.35-0.142-0.405-0.339l-0.053-0.174
		l0.219,0.02c0.188,0.014,0.354,0.123,0.517,0.229c0.041,0.029,0.092,0.061,0.141,0.09c0.033-0.046,0.083-0.085,0.133-0.113
		c0,0,0.022-0.018,0.042-0.03c-0.087-0.053-0.156-0.116-0.162-0.196V15.25c0-0.07,0.053-0.153,0.198-0.188l0.085-0.016v0.016
		l0.238,0.18c0.029,0.051,0.051,0.067,0.094,0.063c-0.004-0.162-0.086-0.251-0.191-0.359c0,0-0.071-0.09-0.131-0.161
		C127.871,14.794,127.411,14.896,127.259,15.09 M128.477,20.158c0.047-0.056,0.074-0.108,0.085-0.179
		c-0.044-0.011-0.09-0.03-0.128-0.052C128.443,19.994,128.463,20.099,128.477,20.158 M131.519,21.098
		c0.103,0.004,0.202,0,0.273-0.024c0.024-0.01,0.013-0.014,0.028-0.022c-0.063-0.026-0.112-0.059-0.165-0.096
		C131.618,21.01,131.569,21.056,131.519,21.098"/>
	<path fill="#FFFFFF" d="M112.863,13.214c-0.122,0.043-0.266,0.085-0.416-0.005c-0.049,0.068-0.081,0.168-0.104,0.286
		c-0.042,0.191-0.089,0.413-0.278,0.514l-0.143,0.081l-0.057-0.288l0.04-0.056l-0.344,0.382c-0.19,0.164-0.312,0.283-0.312,0.432
		c0,0.045,0.012,0.093,0.037,0.143c0,0-0.162,0.119-0.184,0.136c-0.006,0.113-0.014,0.262-0.125,0.342
		c-0.024,0.017-0.057,0.019-0.088,0.026c0.016,0.146,0.059,0.267,0.113,0.391c0,0,0.043,0.107,0.064,0.156
		c0.009-0.004,0.017-0.01,0.023-0.01c-0.002-0.016-0.067-0.218-0.067-0.218l0.155-0.033c0.135,0.005,0.223-0.022,0.291-0.066
		c-0.007-0.005-0.047-0.03-0.047-0.03c-0.069-0.036-0.195-0.102-0.195-0.275c0-0.052,0.014-0.116,0.041-0.194l0.03-0.082
		l0.087,0.002c0.277,0.005,0.47-0.081,0.632-0.278l0.056-0.069l0.115,0.05l0.219,0.087c0,0,0.058,0.023,0.106,0.042v-0.002
		c0-0.143,0.017-0.322,0.194-0.365l0.096-0.027l0.046,0.092c0.044,0.098,0.135,0.15,0.209,0.22c0.022-0.087,0.067-0.166,0.185-0.182
		l0.157-0.022c0,0-0.043,0.344-0.043,0.347c0-0.011,0.15-0.011,0.15-0.011l0.31,0.016l0.235,0.219l0.178,0.205l-0.067,0.122
		l-0.038,0.034l0.017,0.052c0.011,0.044,0.027,0.098,0.027,0.168c0,0.013-0.012,0.032-0.017,0.049c0.048,0,0.105-0.006,0.105-0.006
		l0.148,0.251c0,0,0.004,0.015,0.007,0.026c0.023-0.013,0.044-0.035,0.073-0.038c0.115-0.012,0.225,0.07,0.247,0.193l0.023,0.129
		l-0.127,0.021c-0.092,0.018-0.149,0.076-0.217,0.155l-0.336,0.331v-0.011c-0.03,0.126-0.057,0.215-0.068,0.262
		c0.025,0.25,0.111,0.431,0.257,0.539l-0.081,0.23l-0.326-0.077c-0.071-0.019-0.175-0.043-0.26-0.063
		c-0.009,0.066-0.04,0.122-0.07,0.165c0.004,0,0.025-0.009,0.025-0.009c0.122-0.049,0.264-0.109,0.393-0.049l0.378,0.448
		l-0.355-0.092c-0.147-0.023-0.188,0.003-0.201,0.016c-0.031,0.027-0.024,0.14-0.017,0.22c0.005,0.134,0.02,0.306-0.116,0.39
		l-0.186,0.118v-0.258c-0.072,0.007-0.137,0-0.189-0.026c-0.002,0.11-0.111,0.147-0.268,0.197c0,0-0.07,0.022-0.118,0.041
		c0.01,0.046,0.146,0.58,0.146,0.58l-0.235-0.109l-0.148-0.043c-0.037,0-0.067-0.013-0.103-0.023
		c0.026,0.029,0.057,0.058,0.084,0.082l0.421,0.432l-0.457-0.12l-0.112-0.028c0,0,0.002,0,0.002,0.003
		c0,0.014-0.019,0.084-0.019,0.084l-0.135,0.251l-0.435,0.037l0.105-0.146c0,0,0.018-0.042,0.034-0.085
		c-0.219,0.128-0.429,0.315-0.436,0.431c0,0.004-0.004,0.004-0.004,0.008c0,0.016,0.01,0.042,0.065,0.079l-0.065,0.238
		c-0.063-0.002-0.092,0.024-0.144,0.085l-0.2,0.129c0,0-0.051-0.026-0.086-0.047c-0.052,0.11-0.155,0.171-0.222,0.188
		c0,0-0.019,0.009-0.042,0.014c0.003,0.023,0.015,0.048,0.015,0.066c0,0.179-0.118,0.253-0.188,0.299
		c-0.047,0.031-0.068,0.045-0.068,0.082c0,0.024,0.006,0.051,0.02,0.092c0,0,0.032,0.106,0.063,0.207
		c0.006,0.002,0.019,0.021,0.019,0.021c-0.001,0.007-0.001,0.011-0.009,0.017c0.035,0.104,0.06,0.187,0.069,0.208
		c0.015,0.02,0.021,0.03,0.042,0.052c0.08,0.098,0.189,0.233,0.198,0.399c0.058-0.083,0.149-0.175,0.36-0.127l0.027,0.011
		l0.021,0.016c0.107,0.088,0.152,0.088,0.265,0l0.089-0.072l0.075,0.085c0.119,0.129,0.143,0.32,0.143,0.534v0.042
		c0.01-0.001,0.408-0.11,0.408-0.11l-0.011,0.098l0.114,0.336c0.039,0.154,0.076,0.305,0.16,0.369
		c0.013-0.004,0.014-0.019,0.031-0.019c0.25,0.073,0.471,0.194,0.627,0.382c0.016-0.003,0.022-0.017,0.033-0.022
		c0.081-0.008,0.17,0.039,0.195,0.175l0.016,0.092l-0.043,0.015c0,0-0.079,0.041-0.143,0.074c0.059,0.015,0.119,0.036,0.157,0.102
		l0.05,0.057c0.017-0.053,0.08-0.107,0.161-0.077c0.087,0.031,0.106,0.128,0.113,0.164l0.025,0.129c0,0-0.078,0.012-0.119,0.016
		v0.035l-0.02,0.219c0,0.003-0.007,0.008-0.011,0.012c0.057,0.028,0.112,0.071,0.162,0.117c0.057,0.055,0.133,0.131,0.183,0.129
		l0.403-0.313l-0.109,0.367c-0.006,0.028,0.03,0.107,0.059,0.154c0.043,0.091,0.101,0.199,0.055,0.318
		c-0.031,0.068-0.097,0.121-0.194,0.148l-0.177,0.052l0.026-0.215l0.012-0.129c-0.011-0.021-0.087-0.039-0.136-0.047
		c0,0-0.025-0.016-0.034-0.021c-0.01,0.093-0.028,0.187-0.052,0.254c0.019,0.003,0.033,0.006,0.056,0.023
		c0.037,0.026,0.049,0.061,0.049,0.097c0,0.049-0.025,0.108-0.053,0.16c-0.045,0.091-0.045,0.12-0.07,0.177
		c0.092-0.015,0.172-0.019,0.24,0.035c0.128,0.095,0.133,0.293,0.125,0.468l-0.011,0.173l-0.12-0.056c0,0-0.021-0.007-0.024-0.009
		c0.01,0.009,0.156,0.147,0.156,0.147l-0.183,0.069l-0.097,0.055v0.01c0,0.045-0.016,0.162-0.029,0.262
		c0.008,0.006,0.021,0.006,0.029,0.012c0.066,0.061,0.077,0.153,0.077,0.229v0.028c0,0,0,0.021,0.001,0.038
		c0.01-0.005,0.038-0.012,0.038-0.012s0.021-0.004,0.028-0.006c-0.002-0.003-0.003-0.007-0.003-0.021s0.003-0.034,0.003-0.034
		c0.014-0.076,0.038-0.242,0.198-0.27l0.108-0.017l0.03,0.108c0.018,0.063,0.021,0.117,0.021,0.169c0,0.174-0.087,0.258-0.152,0.321
		c-0.051,0.045-0.07,0.07-0.071,0.12c0.022,0.009,0.057,0.021,0.057,0.021c0.085,0.027,0.265,0.076,0.265,0.289
		c0,0.033-0.002,0.072-0.013,0.114l-0.043,0.168l-0.105-0.077l-0.227-0.148c-0.052-0.053-0.085-0.086-0.157-0.081
		c-0.05,0.379-0.102,0.779-0.102,1.228c0,0.107,0.004,0.217,0.01,0.329c0.045,0.043,0.698,0.719,0.698,0.719h-1.12
		c0,0.028-0.002,0.057-0.002,0.084c0,0.331,0.092,0.568,0.206,0.813l0.113,0.245l-0.255-0.07c-0.139-0.034-0.156-0.001-0.215,0.106
		c-0.055,0.107-0.154,0.272-0.414,0.236c-0.033,0.08-0.067,0.163-0.067,0.163s-0.049,0.006-0.087,0.013v0.234
		c0.133,0.032,0.247,0.108,0.301,0.264l0.013,0.033l-0.016,0.068l-0.034,0.208c0.004,0.021,0.007,0.044,0.007,0.07
		c0,0.067-0.021,0.145-0.128,0.207l-0.077,0.042l-0.064-0.061c-0.085-0.08-0.102-0.181-0.102-0.268c0-0.026,0.002-0.052,0.002-0.078
		c0-0.025,0.007-0.045,0.007-0.061c0-0.052-0.03-0.069-0.076-0.085c-0.043,0.08-0.155,0.288-0.155,0.288l-0.343,0.604
		c0,0-0.048-0.113-0.068-0.175c-0.041,0.114-0.101,0.261-0.244,0.233l-0.028-0.002l-0.029-0.02c-0.1-0.077-0.163-0.067-0.349-0.029
		c0,0-0.175,0.022-0.291,0.04c-0.003,0.11-0.011,0.313-0.208,0.34c-0.172,0-0.24-0.109-0.281-0.172
		c-0.019-0.029-0.027-0.029-0.039-0.041c-0.013,0.064-0.037,0.125-0.091,0.163c-0.106,0.075-0.227,0.022-0.343-0.023
		c-0.125-0.048-0.248-0.099-0.352-0.048c0.021,0.061,0.042,0.113,0.042,0.163c0,0.032-0.004,0.057-0.023,0.085
		c-0.032,0.053-0.103,0.054-0.163,0.064c-0.004,0.016-0.004,0.036-0.004,0.055c0,0.118,0.025,0.178,0.056,0.229l0.079,0.378h-0.098
		c-0.033,0.013-0.069,0.019-0.146-0.018c0.002,0.021,0.004,0.045,0.004,0.045s-0.002,0.07-0.004,0.13
		c0.023-0.007,0.377-0.102,0.377-0.102l0.007,0.042c0.159,0.13,0.278,0.13,0.454,0.129c0,0,0.202,0.025,0.363,0.043
		c-0.017-0.075-0.02-0.162-0.05-0.205l-0.266-0.334c0,0,0.422,0.144,0.435,0.146c0-0.018,0.002-0.032,0.002-0.032
		c0-0.01-0.002-0.017-0.002-0.027c0-0.08,0.011-0.169,0.078-0.235c0.031-0.03,0.091-0.06,0.178-0.047l0.096,0.015l0.009,0.104
		c0.002,0.04,0.004,0.08,0.004,0.118c0,0.438-0.186,0.69-0.354,0.917c0.081,0.063,0.147,0.173,0.147,0.375v0.006
		c0.064,0.015,0.128,0.032,0.128,0.032c0.117,0.041,0.222,0.069,0.371,0.057c0.01-0.081,0.039-0.219,0.202-0.224
		c0.231,0.058,0.279,0.002,0.367-0.099l0.309-0.35c0,0-0.012,0.151-0.019,0.258c0.046-0.141,0.181-0.214,0.303-0.278
		c0.145-0.075,0.228-0.133,0.253-0.239c-0.075-0.096-0.153-0.136-0.238-0.17c-0.128-0.042-0.275-0.095-0.359-0.355v-0.006
		c0-0.029-0.006-0.266-0.006-0.266s0.002-0.05,0.002-0.095c-0.065-0.004-0.146-0.014-0.194-0.091
		c-0.01-0.018-0.021-0.051-0.021-0.088c0-0.024,0.003-0.053,0.015-0.082c0.108-0.123,0.209-0.16,0.311-0.146
		c0.122,0.013,0.241,0.097,0.322,0.236l0.077,0.128l-0.146,0.061c0.007,0.012,0.015,0.026,0.015,0.026
		c0.033,0.055,0.066,0.142,0.083,0.23c0.009-0.013,0.018-0.008,0.029-0.04c0.033-0.086,0.08-0.217,0.231-0.246
		c0.247,0.007,0.309,0.186,0.346,0.292c0.01,0.021,0.015,0.027,0.019,0.043c0.024-0.086,0.053-0.147,0.127-0.225l0.068-0.072
		c0.156-0.173,0.213-0.421,0.252-0.663c-0.107-0.003-0.266-0.023-0.282-0.208c0.036-0.219,0.175-0.288,0.275-0.341l0.196-0.102
		l-0.021,0.227c-0.003,0.017-0.003,0.032-0.003,0.047c0,0.053,0.015,0.089,0.03,0.109c0.009,0.007,0.029,0.007,0.04,0.008
		c0-0.028-0.001-0.064-0.001-0.064c-0.006-0.053-0.01-0.104-0.01-0.159c0-0.099,0.02-0.196,0.093-0.258
		c0.039-0.032,0.089-0.046,0.145-0.047c-0.004-0.054-0.028-0.083-0.074-0.125c-0.064-0.063-0.155-0.148-0.155-0.322
		c0-0.021,0.002-0.052,0.007-0.079l0.022-0.15l0.137,0.049c0.116,0.035,0.123,0.023,0.168-0.056c0.046-0.071,0.119-0.19,0.294-0.189
		c0-0.028,0.011-0.046,0.02-0.07c-0.035,0.017-0.066,0.03-0.127,0.021l-0.084-0.016l-0.014-0.086
		c-0.043-0.261-0.009-0.453,0.108-0.574c0.097-0.097,0.236-0.135,0.425-0.123c-0.007-0.082-0.047-0.12-0.115-0.178
		c-0.089-0.069-0.213-0.173-0.213-0.386c0-0.021,0-0.044,0.003-0.066l0.027-0.251l0.133,0.143l0.186,0.181
		c0.028,0.053,0.046,0.064,0.092,0.054c0.001-0.007,0.007-0.022,0.007-0.029c0-0.03-0.018-0.042-0.062-0.065l-0.307-0.356h0.223
		c0.084-0.024,0.14-0.06,0.172-0.113c0.069-0.127,0.011-0.353-0.032-0.518l-0.067-0.266l0.188,0.034
		c0.057,0.012,0.063,0.004,0.103-0.062c0,0,0.029-0.03,0.057-0.063c-0.019-0.073-0.037-0.146-0.037-0.203
		c0-0.076,0.01-0.139,0.019-0.195c0.003-0.01,0.003-0.014,0.003-0.025c-0.075,0.083-0.164,0.155-0.264,0.159
		c-0.047,0-0.168-0.02-0.226-0.197l-0.04-0.13l0.164-0.036l0.111-0.031c0.043-0.044,0.057-0.151,0.063-0.271
		c-0.028,0.096-0.085,0.259-0.302,0.231l-0.114-0.013l0.008-0.125v-0.031c0-0.083-0.032-0.134-0.083-0.198
		c-0.057-0.083-0.128-0.184-0.128-0.355c0-0.017,0-0.038,0-0.06l0.015-0.115h0.109c0.02,0,0.025,0,0.06-0.057
		c0.041-0.06,0.111-0.158,0.257-0.166c0-0.047-0.03-0.357-0.03-0.357l0.133,0.043h0.183c-0.014-0.176-0.09-0.276-0.195-0.396
		l-0.218-0.3l0.002-0.049l-0.102-0.319c-0.04-0.106-0.075-0.191-0.075-0.263c0-0.047,0.014-0.086,0.058-0.117
		c0.021-0.021,0.048-0.026,0.076-0.028c-0.028-0.037-0.061-0.07-0.104-0.105l-0.174-0.197l0.006-0.029c0-0.021,0-0.043,0-0.066
		c0-0.132,0.052-0.218,0.096-0.311c-0.273-0.155-0.333-0.507-0.379-0.827c0,0-0.004-0.03-0.007-0.043
		c-0.046,0.003-0.086,0-0.132-0.031c-0.088-0.059-0.093-0.161-0.093-0.248c0-0.006,0-0.012,0.002-0.019
		c-0.015,0.006-0.021,0.018-0.032,0.018c-0.073,0.005-0.162-0.042-0.183-0.181c-0.081-0.495-0.305-0.725-0.718-0.752l-0.106-0.008
		l0.01-0.052l-0.015-0.248c0,0,0-0.012,0.003-0.017c-0.074,0.011-0.139,0.008-0.184-0.041c-0.033-0.029-0.045-0.068-0.045-0.112
		c0-0.036,0.008-0.071,0.017-0.103c-0.038,0-0.127-0.007-0.196-0.128c0-0.006-0.049-0.159-0.084-0.271
		c-0.133-0.016-0.35-0.067-0.443-0.281l-0.055-0.122l0.313-0.123c0.351-0.126,0.571-0.224,0.571-0.578
		c0-0.027-0.001-0.052-0.002-0.078l-0.014-0.162l0.151,0.024c0.086,0.014,0.108-0.009,0.168-0.075
		c0.061-0.071,0.156-0.171,0.347-0.157c0.016-0.069,0.035-0.145,0.035-0.145c0.019-0.164,0.051-0.342,0.188-0.449
		c-0.003-0.019-0.004-0.034-0.004-0.05c0-0.106,0.021-0.216,0.114-0.283c0,0,0.131-0.017,0.159-0.021
		c-0.011-0.08-0.045-0.164-0.078-0.221l-0.221-0.403l0.409,0.222c0.057,0.038,0.098,0.057,0.129,0.071
		c-0.001-0.007-0.001-0.018-0.001-0.026c0-0.079,0.063-0.128,0.116-0.167c-0.063-0.069-0.104-0.14-0.104-0.214
		c0-0.051,0.011-0.106,0.027-0.164c0,0,0.01-0.09,0.021-0.167c-0.081-0.015-0.193-0.047-0.193-0.206v-0.139
		c0,0,0.224,0.018,0.232,0.022c-0.02-0.006-0.055-0.179-0.055-0.179c-0.021-0.071-0.043-0.136-0.043-0.199
		c0-0.043,0.011-0.086,0.044-0.121c0.025-0.03,0.081-0.073,0.179-0.048l0.153,0.069c0.051,0.031,0.087,0.05,0.148,0.046
		c0.024-0.058,0.054-0.126,0.054-0.126c0.055-0.129,0.08-0.204,0.08-0.249c0-0.024-0.004-0.043-0.021-0.053l-0.082-0.071l0.04-0.129
		c0.045-0.076,0.143-0.093,0.234-0.085c0.026-0.17,0.075-0.471,0.075-0.471l-0.126-0.373l0.048-0.014
		c0.016-0.029,0.046-0.096,0.073-0.162c-0.023,0.005-0.037,0.027-0.062,0.03c-0.118,0.006-0.223-0.073-0.243-0.199l-0.017-0.092
		c0,0,0.107-0.047,0.122-0.056c0.036-0.071,0.093-0.147,0.183-0.192c-0.027-0.28-0.157-0.456-0.325-0.635l-0.176-0.188
		c0,0,0.074-0.02,0.14-0.036c-0.001-0.002-0.004,0-0.006-0.002c-0.057-0.03-0.073-0.098-0.076-0.168
		c-0.019,0.027-0.043,0.047-0.08,0.056c0.004,0.027,0.017,0.062,0.017,0.094c0,0.068-0.017,0.136-0.056,0.195
		c-0.063,0.091-0.169,0.143-0.324,0.158l-0.198,0.018l0.074-0.191c0.097-0.262,0.119-0.445,0.138-0.633
		c-0.034,0.025-0.071,0.038-0.093,0.042l-0.163,0.057c0,0,0.003-0.097,0.009-0.161c-0.036,0.002-0.073,0.008-0.073,0.008
		c-0.108,0.016-0.232,0.037-0.309-0.054c-0.023-0.026-0.048-0.07-0.048-0.134c0-0.023,0.003-0.05,0.013-0.078l0.021-0.072
		c0,0-0.064,0.035-0.182,0.034c0.016,0.072,0.047,0.147,0.122,0.25l0.249,0.479c0,0-0.069,0.003-0.128,0.004
		c0.019,0.021,0.037,0.044,0.037,0.044c0.056,0.055,0.162,0.159,0.162,0.28c0,0.052-0.021,0.109-0.071,0.169l-0.05,0.062
		l-0.078-0.023c-0.15-0.044-0.229-0.157-0.265-0.302c-0.021,0.004-0.046,0.009-0.046,0.009c-0.045,0.023-0.117,0.059-0.188,0.025
		c-0.075-0.033-0.098-0.116-0.104-0.141l-0.021-0.073l0.053-0.051c0.054-0.063,0.081-0.126,0.081-0.2
		c0-0.137-0.081-0.296-0.193-0.484c0,0-0.04-0.085-0.082-0.165C113.013,13.185,112.863,13.214,112.863,13.214 M114.393,13.325
		c0.027,0.024,0.04,0.067,0.065,0.104c0.009-0.082,0.014-0.119,0.021-0.192c-0.073-0.019-0.144-0.036-0.144-0.036
		s-0.02-0.004-0.029-0.007C114.315,13.233,114.335,13.268,114.393,13.325 M110.535,15.732c-0.003,0.041-0.013,0.127-0.013,0.127
		c0.002,0.023,0.002,0.046,0.002,0.074c0,0.095-0.014,0.202-0.087,0.302c0.004-0.003-0.248,0.107-0.248,0.107
		s-0.019,0.006-0.035,0.011c0.006,0.017,0.006,0.028,0.029,0.059l0.104,0.25l-0.091,0.042c-0.043,0.045-0.048,0.064-0.057,0.086
		c0.131,0.026,0.195,0.122,0.224,0.183l0.033,0.054c0,0,0.014,0,0.019-0.001c-0.013-0.081-0.022-0.169-0.022-0.169
		c-0.013-0.05-0.021-0.095-0.021-0.14c0-0.071,0.017-0.15,0.063-0.283l0.036-0.105l0.106,0.027c0.095,0.021,0.101,0.008,0.146-0.1
		c0.043-0.086,0.115-0.225,0.297-0.241l-0.004-0.001c-0.027-0.024-0.076-0.055-0.076-0.055l-0.229-0.151
		C110.657,15.749,110.62,15.719,110.535,15.732 M115.36,27.274c0,0.029,0.004,0.042,0.01,0.045c0,0,0.024,0.018,0.083,0.015
		c0.005-0.026,0.009-0.049,0.009-0.049c0,0.003-0.079-0.017-0.079-0.017s-0.019-0.011-0.021-0.014
		C115.36,27.26,115.36,27.266,115.36,27.274"/>
	<path fill="#FFFFFF" d="M92.536,12.874c-0.011,0.096-0.025,0.226-0.025,0.226c-0.047,0.148-0.09,0.288-0.09,0.402
		c0,0.081,0.022,0.143,0.074,0.184l-0.077,0.232c0,0-0.117-0.047-0.165-0.066c-0.003,0.14-0.055,0.247-0.094,0.311
		c0.017,0.013,0.044,0.025,0.044,0.025l0.026,0.168c0,0.006-0.132,0.164-0.132,0.164l-0.088,0.087
		c-0.047,0.116-0.077,0.277-0.077,0.42c0,0.075,0.026,0.126,0.046,0.186c0.059,0.008,0.128,0.048,0.149,0.167l0.021,0.12
		l-0.115,0.028c-0.23,0.054-0.324,0.27-0.324,0.751c0,0.063,0.001,0.125,0.004,0.193v0.062l-0.043,0.04
		c-0.174,0.157-0.222,0.352-0.222,0.57c0,0.115,0.014,0.244,0.025,0.375l0.041,0.616l-0.165-0.027l-0.055-0.008v0.006
		c0,0.026-0.019,0.151-0.019,0.151c0,0.12-0.006,0.259-0.105,0.343c0,0-0.037,0.006-0.065,0.013c0.016,0.069,0.028,0.14,0.028,0.14
		c0,0.175-0.138,0.251-0.198,0.29l-0.022,0.009h-0.065l-0.226,0.027l-0.08-0.07l-0.036-0.043c-0.146-0.04-0.213-0.004-0.298,0.038
		l-0.296,0.075l-0.317-0.123l-0.214-0.094c-0.012,0.021-0.196,0.108-0.196,0.108l-0.052,0.026l-0.013-0.052l-0.155-0.083
		c-0.688-0.095-1.524-0.169-1.716-0.112l-0.264,0.01l-0.084-0.006l-0.287-0.023c0.001-0.004-0.101,0.02-0.101,0.02
		c-0.279,0.074-0.768,0.021-0.88,0.004l-0.199-0.035c-0.035-0.007-0.057,0-0.057,0l-0.116,0.031
		c-0.141,0.041-0.482,0.072-0.618-0.069c-0.05-0.05-0.071-0.123-0.05-0.193c0,0.006,0.071-0.286,0.071-0.286
		c0.075-0.259,0.108-0.377-0.061-0.694l-0.141-0.26l0.351,0.097c-0.016-0.035,0.108-0.239,0.108-0.239s0.037,0.003,0.048,0.003
		l-0.001-0.013l-0.065-0.401c0,0.003,0.104-0.26,0.104-0.26c-0.058-0.029-0.108-0.083-0.108-0.158c0-0.015,0.004-0.033,0.006-0.045
		c0-0.003,0.126-0.153,0.126-0.153s0.083-0.081,0.089-0.087c-0.006-0.001-0.006-0.062-0.006-0.062l-0.003-0.105l0.098-0.234
		c0-0.011-0.053-0.21-0.053-0.21s-0.042-0.222-0.042-0.223c0,0.001,0.121-0.161,0.121-0.161c0.052-0.039,0.078-0.058,0.084-0.137
		l-0.027-0.049c-0.034-0.042-0.083-0.109-0.083-0.216c0-0.024,0.002-0.048,0.007-0.077l0.134-0.216
		c0.032-0.038,0.037-0.05,0.053-0.075c-0.111-0.002-0.271-0.025-0.291-0.207l-0.02-0.161l0.154,0.02
		c0.075,0.009,0.092,0.012,0.124-0.202c0,0,0.012-0.056,0.028-0.104c-0.104-0.026-0.186-0.066-0.25-0.11
		c-0.061-0.046-0.12-0.071-0.195-0.082c0,0.139-0.039,0.243-0.067,0.323c-0.023,0.059-0.037,0.09-0.037,0.122
		c0,0.029,0.016,0.053,0.051,0.086l-0.133,0.209c0,0-0.016-0.004-0.029-0.007c-0.001,0.019-0.001,0.037-0.001,0.037v0.029
		c0,0.079-0.006,0.171-0.075,0.23c-0.002,0.001-0.011,0.001-0.014,0.004c0.008,0.044,0.031,0.094,0.031,0.125
		c0,0.055-0.013,0.103-0.018,0.142c-0.006,0.032-0.01,0.051-0.01,0.078c0,0.039,0.013,0.077,0.055,0.141l0.08,0.111
		c0,0-0.146,0.075-0.166,0.085c-0.019,0.051-0.049,0.101-0.082,0.143c0.038,0.023,0.073,0.066,0.086,0.143l0.019,0.089
		c0,0-0.119,0.05-0.123,0.061c-0.039,0.067-0.092,0.139-0.176,0.185c0.011,0.049,0.043,0.108,0.043,0.154
		c0,0.128-0.047,0.238-0.083,0.332c-0.035,0.086-0.067,0.159-0.067,0.235c0,0.059,0.021,0.12,0.061,0.189l0.084,0.15l-0.196,0.046
		l-0.062,0.014c-0.065,0.06-0.07,0.265-0.076,0.43l-0.052,0.439c-0.004,0.002-0.147,0.217-0.176,0.259
		c0.043,0.043,0.083,0.102,0.083,0.194c0,0.023-0.006,0.047-0.009,0.075c-0.022,0.08-0.092,0.104-0.173,0.134
		c0,0-0.014,0.004-0.029,0.01c0.004,0.053,0.029,0.087,0.075,0.125l0.107,0.203L83.7,19.044l-0.084-0.085
		c-0.128-0.066-0.337-0.057-0.563-0.049c-0.235,0.011-0.505,0.019-0.769-0.049l-0.152-0.134c0,0-0.064-0.074-0.073-0.084
		c0,0.016-0.093,0.051-0.093,0.051l-0.176,0.063l-0.13-0.066c-0.034-0.029-0.06-0.04-0.082-0.046
		c-0.003,0.07-0.014,0.159-0.089,0.204l-0.184,0.119l-0.051-0.229v-0.17c-0.27,0.052-2.685,0.512-2.685,0.512l-0.713,0.123
		c0,0-0.014-0.041-0.021-0.078c-0.044,0.013-0.083,0.022-0.132-0.004c-0.048-0.026-0.079-0.073-0.093-0.144v-0.002
		c0-0.052,0.072-0.736,0.072-0.736c0.033-0.389,0.065-0.762,0.142-0.949c0.067-0.174,0.092-0.424,0.116-0.67l0.089-0.608
		c0.014-0.069,0.075-0.09,0.16-0.125l0.081-0.04c0.013-0.042,0.066-0.452,0.066-0.539v-0.005c-0.006-0.071-0.054-0.689-0.412-0.743
		c0.005,0,0.007,0.007,0.007,0.017c0,0.021-0.012,0.056-0.012,0.056c-0.019,0.06-0.069,0.152-0.162,0.204
		c0.004,0.038,0.015,0.082,0.015,0.119c0,0.275-0.106,0.488-0.198,0.672c-0.075,0.146-0.139,0.269-0.139,0.402
		c0,0.084,0.023,0.171,0.087,0.273l0.088,0.142l-0.157,0.048c-0.115,0.033-0.173,0.251-0.203,0.367l-0.029,0.095
		c-0.038,0.093-0.05,0.156-0.05,0.212c0,0.048,0.012,0.092,0.023,0.142l0.033,0.366l-0.057,0.373
		c-0.038,0.198-0.071,0.404-0.071,0.608c0,0.09,0.006,0.18,0.022,0.27l0.008,0.046l-0.023,0.04c-0.122,0.235-0.39,0.267-0.622,0.29
		l-0.357,0.081c0,0.006-0.032,0.083-0.032,0.083c-0.033,0.09-0.078,0.233-0.218,0.256l-0.164,0.027l0.03-0.252
		c-0.023-0.012-0.158,0.001-0.23,0.011c0,0-0.064-0.002-0.126-0.002c0.014,0.045,0.021,0.095,0.055,0.141
		c0,0,0.044,0.095,0.079,0.167c0.033,0.011,0.068,0.017,0.09,0.041c0.032-0.03,0.065-0.051,0.118-0.06l0.121-0.021l0.021,0.124
		c0.016,0.091,0.101,0.116,0.328,0.15c0,0,0.064,0.015,0.125,0.029c-0.011-0.028-0.031-0.063-0.031-0.101
		c0-0.022,0.003-0.046,0.018-0.066c0.031-0.082,0.107-0.104,0.133-0.112l0.08-0.024l0.085,0.112c0.038-0.048,0.105-0.091,0.185-0.06
		c0.083,0.034,0.108,0.135,0.121,0.171l0.004,0.028c0,0-0.259,1.351-0.296,1.521c0.079,0.017,0.184,0.051,0.19,0.199l0.005,0.153
		l-0.146-0.024c-0.049-0.008-0.073,0-0.076,0.002c-0.006,0.005-0.014,0.026-0.014,0.071c0,0.144,0.082,0.344,0.103,0.375
		l0.047,0.073l-0.027,0.031l-0.121,0.16c-0.047,0.04-0.077,0.063-0.082,0.14c0,0.023,0.011,0.077,0.011,0.077l0.013,0.042
		l0.028,0.079l-0.074,0.192c0.007-0.013,0.062,0.095,0.062,0.095l0.088,0.208l-0.07,0.056l-0.057,0.113
		c0,0.005-0.076,0.35-0.076,0.35l-0.031,0.105l-0.068,0.424l0.034,0.293c0,0,0.008,0.056,0.021,0.11
		c0.045,0.006,0.098,0.034,0.146,0.079c0.046-0.012,0.115-0.026,0.115-0.026c0.077-0.05,0.15-0.027,0.232,0.014
		c0.032-0.021,0.066-0.029,0.106-0.032v-0.021c0.019-0.045,0.066-0.083,0.121-0.109c0.006-0.062,0.016-0.135,0.016-0.135
		l0.083-0.355c0.152-0.417,0.166-1.109,0.166-1.843v-0.263l0.036-1.086l0.058-0.187l0.044-0.139l-0.024-0.051l-0.094-0.287
		l0.03-0.021l0.097-0.305l0.012-0.068c0.03-0.137,0.067-0.291,0.281-0.342l0.039-0.01l0.036,0.012
		c0.196,0.081,0.328,0.082,0.567,0.084c0,0,0.192,0.008,0.321,0.014c0.006-0.074,0.024-0.137,0.081-0.169
		c0.082-0.05,0.158-0.005,0.205,0.023l0.124,0.039l0.33-0.077c0,0-0.017,0.083-0.037,0.153c0.048-0.022,0.083-0.053,0.129-0.095
		c0.093-0.085,0.211-0.194,0.423-0.194c0.128,0.011,0.177,0.087,0.207,0.151c0.009-0.112,0.039-0.237,0.191-0.256l0.055-0.009
		l0.056,0.045c0,0,0.072,0.065,0.076,0.066c0-0.012,0.052-0.08,0.052-0.08c0.058-0.086,0.135-0.207,0.276-0.238l0.228-0.052
		l-0.08,0.185l-0.076,0.194c0.174,0.004,0.562,0.013,0.562,0.013c0.427-0.017,0.864-0.017,1.191,0.305
		c0.097,0.001,0.152-0.037,0.227-0.088l0.238-0.125l0.117,0.213l-0.003,0.001c0.106,0.027,0.207,0.069,0.244,0.201
		c0.008,0.026,0.013,0.053,0.013,0.077c0,0.113-0.082,0.19-0.12,0.224c-0.008,0-0.058,0.344-0.058,0.344l-0.049,0.395
		c0,0.005-0.115,0.158-0.115,0.158l-0.087,0.15c-0.003,0.001-0.003,0.199-0.003,0.199l0.003,0.275l-0.034,0.019
		c-0.194,0.205-0.224,0.467-0.224,0.772c0,0.062,0.003,0.126,0.003,0.189c0,0.07,0.001,0.137,0.001,0.204
		c0,0.198-0.009,0.401-0.062,0.605l-0.013,0.28l0.016,0.347c0,0.004-0.104,0.431-0.104,0.431s-0.039,0.148-0.066,0.277
		c0.16-0.014,0.256,0.142,0.294,0.207l0.027,0.046c0.08,0.006,0.123-0.041,0.127-0.046c0,0,0.134,0.106,0.169,0.136
		c0.14,0.002,0.259-0.012,0.339-0.058c-0.02-0.102-0.037-0.207-0.037-0.301c0-0.19,0.03-0.37,0.061-0.531
		c0.025-0.149,0.047-0.288,0.047-0.415c0-0.151-0.031-0.295-0.14-0.435l-0.169-0.228l0.293,0.025
		c-0.006-0.021-0.021-0.04-0.021-0.062c0-0.029,0.007-0.061,0.025-0.087c0.029-0.042,0.079-0.046,0.131-0.057
		c-0.014-0.048-0.025-0.092-0.025-0.128c0-0.065,0.027-0.113,0.099-0.182c0,0,0.024-0.023,0.05-0.048
		c-0.044-0.108-0.085-0.216-0.085-0.32c0-0.255,0.106-0.497,0.206-0.718c0.099-0.217,0.186-0.415,0.186-0.613
		c0-0.095-0.022-0.19-0.071-0.286l-0.097-0.189h0.276c-0.013-0.101-0.023-0.213-0.023-0.213l-0.079-0.35l0.075-0.069
		c0.365-0.2,0.479-0.204,0.792-0.14c0.035-0.144,0.16-0.206,0.233-0.225l0.148-0.06l0.086-0.008l0.152,0.114
		c0.128,0.1,0.146,0.108,0.224,0.023c0,0,0.187,0.067,0.202,0.072c0.006-0.004,0.03-0.021,0.03-0.021
		c0.086-0.04,0.14-0.068,0.163-0.12l0.233,0.066c0,0-0.003,0.064-0.003,0.087c0.012-0.021,0.079-0.047,0.079-0.047
		c0.095-0.041,0.214-0.09,0.302-0.007c0.03,0.031,0.035,0.068,0.039,0.11c0.267-0.073,0.523,0.003,0.735,0.092
		c0.101,0.04,0.187,0.058,0.274,0.076c0,0-0.007-0.004-0.007-0.009v-0.108l0.104-0.019c0.451-0.067,0.688,0.096,0.901,0.239
		c0,0,0.281,0.139,0.351,0.174c0.095-0.072,0.22-0.072,0.313-0.063c0,0,0.091-0.003,0.128-0.005
		c0.004-0.082,0.014-0.158,0.076-0.203c0.031-0.026,0.08-0.05,0.157-0.03l0.036,0.011l0.027,0.03
		c0.045,0.056,0.071,0.054,0.181,0.017c0.047-0.017,0.108-0.04,0.183-0.04c-0.007-0.021-0.017-0.033-0.017-0.053
		c0-0.022,0.005-0.046,0.013-0.066c0.032-0.082,0.109-0.104,0.136-0.112l0.059-0.02l0.049,0.037
		c0.118,0.088,0.152,0.193,0.152,0.295c0,0.103-0.031,0.198-0.057,0.277c0,0-0.026,0.106-0.037,0.147
		c0.041,0.037,0.099,0.106,0.099,0.222c0,0.012,0,0.023-0.004,0.036c0,0.001-0.162,0.619-0.162,0.619s-0.131,0.473-0.142,0.521
		c0.049,0.04,0.102,0.095,0.102,0.205c0,0.021-0.002,0.041-0.005,0.062c0,0.002-0.091,0.138-0.091,0.138l-0.014,0.048l0.033,0.081
		l0.072,0.251l-0.069,0.217l0.069,0.064l-0.003,0.143c-0.016,0.031-0.058,0.037-0.095,0.059c0.008,0.039,0.017,0.083,0.017,0.083
		l0.032,0.18c0,0.118-0.061,0.185-0.109,0.217c-0.032,0.018-0.326,0.002-0.326,0.002l-0.149-0.29c0,0-0.005-0.021-0.008-0.03
		c-0.013,0.174-0.03,0.369-0.03,0.369c-0.019,0.122-0.038,0.25-0.038,0.348c0,0.076,0.012,0.138,0.044,0.173
		c0.048,0.055,0.16,0.075,0.323,0.059l0.134-0.012v0.411c0.039-0.005,0.081-0.019,0.117-0.016c-0.024-0.037-0.051-0.071-0.051-0.108
		c0-0.022,0.001-0.042,0.001-0.056l0.008-0.065c0,0,0.079-0.033,0.103-0.043c0.041-0.095,0.08-0.191,0.191-0.218
		c0,0,0.068,0.013,0.13,0.024c0.012-0.061,0.036-0.124,0.064-0.171c-0.074-0.043-0.191-0.118-0.191-0.236
		c0-0.021,0.006-0.051,0.019-0.081l0.021-0.049l0.052-0.02c0.031-0.014,0.066,0.005,0.101,0.01c-0.018-0.068-0.05-0.123-0.15-0.234
		l-0.124-0.135l0.167-0.072c0.087-0.033,0.213-0.078,0.321-0.017c0.026,0.017,0.038,0.043,0.058,0.066
		c-0.014-0.039-0.04-0.071-0.04-0.122v-0.032l0.021-0.235l0.195,0.158c-0.001-0.05-0.002-0.103-0.002-0.103l-0.029-0.101
		l0.013-0.225l0.018-0.061l0.089-0.667c0.011-0.196,0.031-0.397,0.087-0.597c-0.079-0.02-0.18-0.055-0.18-0.204v-0.129l0.122,0.002
		c0.041,0,0.054,0,0.089-0.164c0.017-0.102,0.053-0.27,0.191-0.339c-0.009-0.106-0.022-0.207-0.064-0.257l-0.208-0.267l0.326,0.059
		c0.099,0.019,0.11-0.001,0.149-0.063c0.032-0.059,0.103-0.184,0.269-0.15c0,0,0.016,0.003,0.028,0.006
		c0.015-0.08,0.044-0.158,0.123-0.208c0.078-0.044,0.171-0.048,0.282-0.006l0.104,0.036l-0.035,0.176
		c0.02,0.027,0.174,0.039,0.266,0.003l0.056-0.058l0.171-0.188l0.034,0.024h0.354c0.213-0.008,0.422-0.003,0.59,0.057
		c0.022-0.079,0.061-0.159,0.188-0.166l0.066-0.003l0.04,0.058c0.02,0.029,0.022,0.036,0.125,0.008
		c0.091-0.024,0.223-0.026,0.362,0.029c0.071-0.068,0.176-0.096,0.277-0.095c-0.014-0.041-0.035-0.083-0.035-0.133
		c0-0.018,0.006-0.035,0.014-0.059c0.032-0.088,0.13-0.114,0.168-0.125l0.082-0.022c0,0,0.053,0.088,0.059,0.09
		c0-0.008,0.045-0.029,0.045-0.029c0.054-0.028,0.126-0.065,0.203-0.032c0.006,0.004,0.123,0.146,0.123,0.146l0.037,0.069
		c0.018-0.103,0.104-0.253,0.327-0.224c0.097,0.016,0.112,0.106,0.121,0.161l0.028,0.1c-0.002-0.035,0.054-0.064,0.054-0.064
		l0.771-0.25l-0.03,0.188v0.022c0,0.063,0.03,0.104,0.056,0.152c0.036-0.01,0.079-0.024,0.079-0.024l0.13-0.068l0.043,0.011
		l0.231-0.001l0.03,0.013l0.081,0.131l0.045,0.106c0,0,0.007-0.002,0.01-0.003c0.024-0.116,0.1-0.515,0.1-0.515
		c0.055-0.21,0.112-0.411,0.112-0.663c0-0.045-0.011-0.095-0.012-0.147c-0.404-0.173-1.085-0.173-1.699-0.164
		c0,0-0.876-0.021-0.964-0.021c-0.243,0.22-0.638,0.258-1.03,0.289c0,0-0.309,0.03-0.334,0.03c-0.312,0.235-0.663,0.284-1.031,0.324
		c-0.298,0.034-0.611,0.065-0.924,0.207l-0.119,0.053c0,0-0.017-0.056-0.033-0.105c-0.042,0.014-0.084,0.022-0.13-0.006
		c-0.048-0.022-0.079-0.073-0.095-0.143l-0.012-0.056l0.027-0.031l0.194-0.236c0.107-0.107,0.192-0.192,0.206-0.355
		c-0.004,0.018-0.117-0.197-0.117-0.197C92.087,17.741,92,17.6,92.037,17.468c0.016-0.045,0.048-0.102,0.13-0.138l0.097-0.041
		l0.098,0.163c0.005-0.022,0.055-0.146,0.055-0.242c0-0.02-0.002-0.035-0.008-0.051c0,0.002-0.047-0.044-0.047-0.044l-0.221-0.219
		l0.073-0.05c0.184-0.326,0.342-0.665,0.445-1.061c-0.041,0.016-0.087,0.036-0.147,0.011c-0.076-0.038-0.096-0.117-0.104-0.144
		l-0.018-0.073l0.053-0.052c0.103-0.102,0.162-0.232,0.148-0.317c-0.006-0.017-0.015-0.073-0.116-0.12l0.08-0.239
		c0.078,0.019,0.087,0.008,0.128-0.058c0.042-0.059,0.109-0.132,0.229-0.154c-0.02-0.104-0.044-0.208-0.044-0.311
		c0-0.236,0.038-0.478,0.075-0.724c0,0,0.053-0.479,0.072-0.656c-0.093-0.012-0.183-0.039-0.258-0.071
		C92.577,12.801,92.566,12.816,92.536,12.874 M85.967,19.954c0,0,0.045-0.035,0.091-0.063c-0.046-0.016-0.202-0.072-0.202-0.072
		L85.967,19.954L85.967,19.954z M91.381,23.484l0.025,0.092l0,0c0,0.008,0.061-0.064,0.061-0.064
		c-0.04-0.028-0.07-0.061-0.104-0.097C91.371,23.439,91.378,23.465,91.381,23.484"/>
	<path fill="#FFFFFF" d="M36.686,12.541l-0.36,0.25l-0.057-0.115c-0.055-0.088-0.297-0.067-0.499-0.052h-0.38
		c-0.125,0.187-0.274,0.167-0.403,0.136c0,0-0.1-0.008-0.195-0.017c0.01,0.012,0.251,0.234,0.251,0.234l-0.171,0.066
		c-0.385,0.217-0.634,0.024-0.856-0.143c0,0-0.015-0.014-0.024-0.021c-0.158,0.192-0.438,0.203-0.674,0.181l-0.265-0.003
		l-0.34,0.104l-0.396,0.112l-0.222-0.063l-0.194-0.047l-0.652,0.117c-0.6,0.111-0.603,0.111-0.649,0.091l-0.111-0.045
		c0,0,0.054-0.162,0.057-0.163c-0.006,0-0.037-0.002-0.037-0.002c-0.186-0.049-0.244-0.003-0.331,0.069
		c-0.083,0.07-0.185,0.157-0.372,0.147c-0.411,0.068-0.851,0.006-1.237-0.048l-0.532-0.057l-0.158,0.04l-0.32,0.081l-0.035-0.086
		l-0.053-0.047c-0.141-0.035-0.277,0.008-0.392,0.041c-0.111,0.033-0.216,0.067-0.31-0.001c-0.041-0.032-0.063-0.077-0.079-0.125
		c-0.381,0.072-0.729,0.031-1.123-0.033c-0.387-0.061-0.821-0.13-1.371-0.085l-0.154,0.011l0.024-0.16
		c0.004-0.033,0.001-0.056-0.003-0.064c-0.04-0.038-0.219-0.019-0.306-0.01l-0.213,0.006l-0.726-0.214
		c-0.203-0.014-0.4,0.038-0.532,0.075l-0.197,0.034c-0.062,0-0.107-0.052-0.129-0.082c-0.021-0.025-0.023-0.029-0.056-0.027
		c-0.548,0.057-0.712,0.208-0.854,0.387l-0.035,0.045L21,13.047l-0.297,0.01c0,0-0.042-0.004-0.086-0.006
		c0.006,0.014,0.023,0.017,0.029,0.027c0.017,0.038,0.027,0.076,0.027,0.117c0,0.035-0.008,0.076-0.026,0.109
		c-0.034,0.089-0.123,0.087-0.201,0.079c0.001,0.035,0.001,0.112,0.001,0.112c-0.08,0.334-0.353,0.737-0.499,0.955
		c0,0-0.008,0.014-0.018,0.023c0.01,0.063,0.016,0.131,0.016,0.189c0,0.197-0.033,0.355-0.066,0.512c0,0-0.057,0.37-0.058,0.375
		c0.065-0.057,0.14-0.119,0.14-0.119l-0.032,0.313c-0.002,0.015-0.004,0.028-0.004,0.04c0,0.069,0.04,0.09,0.224,0.125
		c0,0,0.041,0.006,0.068,0.012c0.083-0.036,0.229-0.098,0.229-0.098s0.103-0.039,0.166-0.064c-0.051-0.216-0.088-0.429-0.088-0.637
		c0-0.598,0.199-1.125,0.558-1.428c0.327-0.143,0.46-0.028,0.538,0.083c0.023-0.054,0.056-0.104,0.112-0.127
		c0.049-0.022,0.123-0.03,0.225,0.033c0.008,0.006,0.251,0.317,0.251,0.317l0.212,0.333l-0.212,0.015
		c-0.152,0.006-0.212,0.2-0.271,0.432l-0.034,0.129l-0.055,0.125c-0.04,0.083-0.062,0.13-0.044,0.243l0.026,0.171l-0.168-0.023
		c-0.061-0.01-0.067,0.001-0.108,0.065c0,0-0.033,0.035-0.065,0.071c-0.003,0.043-0.01,0.13-0.01,0.13
		c-0.01,0.256-0.043,0.585-0.325,0.669c0,0.007-0.002,0.012-0.002,0.018c0,0.038,0.027,0.081,0.064,0.146
		c0.035,0.051,0.072,0.118,0.072,0.188c0,0.022-0.003,0.044-0.01,0.068c-0.041,0.101-0.151,0.135-0.187,0.149
		c0,0-0.063,0.016-0.101,0.025c-0.062,0.283-0.09,0.556-0.099,0.838l-0.025,0.53c-0.026,0.153-0.119,0.223-0.205,0.269
		c0.003,0.033,0.007,0.067,0.007,0.099c0,0.336-0.103,0.621-0.2,0.894c-0.094,0.259-0.181,0.509-0.181,0.788
		c0,0.116,0.017,0.243,0.053,0.375l0.046,0.165l-0.169-0.004c-0.074-0.003-0.123,0.031-0.176,0.063v0.007l-0.085,0.303l-0.032,0.076
		c0,0.004-0.039,0.219-0.039,0.219l-0.072,0.335c-0.005,0.008-0.169,0.116-0.169,0.116s-0.021,0.006-0.036,0.015
		c-0.005,0.022-0.006,0.048-0.006,0.048l0.023,0.316l-0.022,0.24l-0.108-0.016h-0.151c0.019,0.063,0.038,0.132,0.038,0.132
		l-0.093,0.332c-0.049,0.108-0.099,0.208-0.099,0.359l0.012,0.164l-0.182,0.197l-0.147,0.145c0.032-0.017,0.12,0.154,0.12,0.154
		l0.04,0.079l-0.056-0.019l-0.066,0.078l-0.144,0.14c0,0.002-0.193,0.498-0.193,0.498c-0.006,0.114-0.101,0.169-0.167,0.205
		c0.01,0.023,0.031,0.041,0.031,0.067c0,0.034-0.015,0.146-0.189,0.157c-0.03,0.076-0.089,0.153-0.183,0.193
		c0.002,0.019,0.011,0.041,0.011,0.056c0,0.229-0.138,0.298-0.288,0.336l-0.094,0.029l-0.075,0.131l-0.127,0.189
		c-0.243,0.23-0.488,0.194-0.722,0.165l-0.371-0.027l-0.041-0.073c-0.075-0.188-0.22-0.277-0.39-0.379l-0.315-0.225
		c-0.067-0.055-0.048-0.158-0.036-0.226h0.001c0-0.004-0.188-0.119-0.188-0.119c0-0.004-0.078-0.265-0.078-0.265l-0.037-0.187
		c-0.002,0.004-0.054-0.063-0.054-0.063l-0.162-0.284l0.002-0.292l0.002-0.236l-0.071-0.095c-0.063-0.072-0.154-0.179-0.154-0.312
		c0-0.031,0.007-0.064,0.021-0.104c0,0-0.008-0.438-0.01-0.539c-0.068-0.055-0.181-0.134-0.181-0.134
		c-0.072-0.076-0.109-0.09-0.198-0.05c-0.012,0.119-0.018,0.238-0.018,0.351c0,0.334,0.029,0.633,0.063,0.947
		c0,0,0.047,0.914,0.055,1.089c0.072,0.012,0.211,0.042,0.214,0.206c-0.002,0.023-0.002,0.05-0.002,0.075
		c0,0.234,0.139,0.372,0.289,0.522c0.136,0.131,0.293,0.288,0.293,0.5c0,0-0.003,0.006-0.003,0.009
		c0.019-0.012,0.044-0.009,0.067-0.025l0.23-0.153l-0.045,0.279c-0.004,0.027-0.004,0.052-0.004,0.071
		c0,0.137,0.077,0.174,0.239,0.237c0.127,0.052,0.268,0.142,0.337,0.311c0.28,0.027,0.511,0.104,0.735,0.175
		c0,0,0.326,0.095,0.417,0.123c0.254-0.273,0.566-0.531,0.95-0.785v-0.463l0.145-0.027l0.138-0.039
		c0.05-0.038,0.123-0.075,0.222-0.081c0.008-0.106,0.047-0.179,0.083-0.233l0.054-0.194l0.035-0.075l0.183-0.124
		c0,0,0.104-0.086,0.162-0.135l-0.003-0.008c0-0.064,0.016-0.131,0.024-0.153c0.041-0.124,0.124-0.188,0.219-0.224
		c0.003-0.063,0.01-0.176,0.01-0.176c0-0.034-0.002-0.066-0.002-0.098c0-0.176,0.017-0.352,0.119-0.465
		c0.044-0.057,0.112-0.05,0.192-0.041c0.012-0.098,0.032-0.288,0.032-0.288l0.061-0.484l0.104-0.167l0.104-0.152
		c0.057-0.238,0.139-0.362,0.305-0.455c-0.005-0.035-0.007-0.07-0.007-0.097c0-0.173,0.032-0.311,0.069-0.444
		c0.03-0.12,0.058-0.239,0.058-0.386c0-0.053-0.002-0.111-0.015-0.176l-0.023-0.168l0.24,0.03l-0.004-0.001
		c0-0.021,0.017-0.104,0.017-0.104l0.116-0.286c0,0,0.045-0.012,0.087-0.021c0.017-0.11,0.051-0.308,0.051-0.308
		c0.026-0.117,0.054-0.223,0.054-0.361c0-0.055-0.004-0.114-0.015-0.178l-0.025-0.165l0.251,0.028
		c-0.011-0.002-0.02-0.153-0.02-0.153l0.014-0.323c0.033-0.08,0.114-0.095,0.176-0.104c0,0,0.018-0.004,0.031-0.006
		c-0.003-0.02-0.012-0.053-0.012-0.053v-0.696l0.036-0.033c0.167-0.184,0.189-0.382,0.217-0.588
		c0.028-0.208,0.078-0.435,0.263-0.641c-0.028-0.1-0.052-0.195-0.052-0.255c0-0.119,0.042-0.185,0.12-0.254l0.057-0.06
		c-0.003,0-0.011-0.14-0.011-0.14l0.004-0.278l0.102-0.156l0.102-0.155c0.063-0.25,0.143-0.375,0.323-0.473
		c0.006-0.007,0.006-0.018,0.006-0.029c0-0.041-0.021-0.085-0.054-0.137c-0.021-0.044-0.051-0.097-0.051-0.152
		c0-0.028,0.006-0.055,0.022-0.08c0.033-0.063,0.103-0.073,0.177-0.074c0.016-0.462,0.079-0.792,0.219-1.027l0.038-0.068
		l0.448,0.052c0.487,0.051,0.985,0.117,1.309,0.379c0.225-0.09,0.451-0.03,0.658,0.039l0.273,0.079l0.898,0.106
		c0.509,0.047,0.986,0.096,1.406,0.218l0.164,0.05l-0.078,0.108l-0.151,0.234c0,0-0.019,0.023-0.029,0.032
		c0.007,0,0.011,0.008,0.018,0.017c0.157,0.061,0.174,0.035,0.222-0.073c0.026-0.071,0.098-0.168,0.213-0.22
		c-0.009-0.028-0.015-0.059-0.015-0.059c-0.018-0.031-0.039-0.076-0.039-0.126c0-0.021,0.004-0.044,0.015-0.065
		c0.03-0.077,0.108-0.104,0.134-0.11l0.087-0.027l0.049,0.075c0.091,0.129,0.296,0.178,0.511,0.226l0.681,0.236l-0.161,0.127
		c-0.211,0.232-0.242,0.687-0.271,1.133c-0.017,0.3-0.036,0.612-0.117,0.863c-0.034,0.097-0.114,0.099-0.206,0.093
		c0.001,0.083,0.001,0.184,0.001,0.184c0.01,0.066,0.015,0.138,0.015,0.21c0,0.129-0.045,0.243-0.148,0.307
		c0.022,0.044,0.031,0.094,0.031,0.126l0.004,0.03l-0.013,0.031c-0.194,0.455-0.212,0.918-0.212,1.37V20
		c0,0.329-0.011,0.642-0.097,0.929l-0.139,0.228c-0.058,0.069-0.085,0.104-0.085,0.155c0,0.02,0.003,0.043,0.013,0.068l0.011,0.027
		c0,0-0.002,0.047-0.002,0.055c0,0.1,0.036,0.156,0.087,0.232l0.154,0.315l-0.062,0.041c-0.122,0.138-0.168,0.292-0.168,0.456
		c0,0.2,0.067,0.417,0.142,0.664c0.082,0.269,0.172,0.571,0.172,0.883v0.006c0.259-0.055,0.395,0.058,0.501,0.167
		c0.069,0.077,0.142,0.137,0.255,0.171c-0.03-0.031-0.058-0.066-0.058-0.119c0-0.014,0.005-0.033,0.012-0.056
		c0.035-0.088,0.133-0.11,0.167-0.124l0.104-0.026l0.052,0.131l0.063,0.001l0.095-0.075c0.068-0.071,0.171-0.172,0.373-0.153
		c0.019-0.052,0.024-0.123,0.069-0.144c0.032-0.02,0.088-0.008,0.143,0.008c0.005-0.007,0.08-0.239,0.08-0.239l0.18-0.129
		c0,0,0.063-0.05,0.119-0.1c-0.049-0.054-0.087-0.123-0.11-0.173l-0.079-0.179h0.456c-0.001-0.013-0.116-0.484-0.116-0.484
		l0.175,0.052c0.059,0.006,0.082-0.017,0.135-0.082l0.203-0.13c0,0,0.027,0.019,0.041,0.021c-0.014-0.093-0.024-0.184-0.072-0.252
		l-0.129-0.184l0.242-0.016c0-0.004-0.178-0.279-0.178-0.279l0.296,0.064c0.106,0.028,0.156,0.017,0.166,0.006
		c0.011-0.013,0.024-0.063-0.002-0.174l-0.08-0.374c0,0,0.298,0.264,0.307,0.269c0.03-0.064,0.093-0.112,0.188-0.14v-0.449
		c-0.103-0.061-0.222-0.089-0.382-0.07l-0.148,0.017l0.011-0.152c0.004-0.044-0.005-0.064-0.011-0.074
		c-0.004-0.001-0.034-0.02-0.118-0.012c-0.029,0.036-0.065,0.077-0.065,0.077c-0.296,0.345-0.572,0.668-0.712,1.131l-0.016,0.051
		l-0.094,0.036l-0.063,0.032c0,0-0.076,0.021-0.15,0.043c-0.023,0.181-0.104,0.307-0.174,0.402
		c-0.077,0.098-0.137,0.174-0.137,0.313c0,0.042,0.003,0.085,0.014,0.137l0.021,0.119l-0.112,0.03
		c-0.138,0.035-0.231,0.118-0.336,0.217l-0.396,0.3L29.486,23.3c-0.136-0.351-0.172-0.719-0.172-1.089
		c0-0.257,0.017-0.516,0.034-0.771l0.022-0.342l-0.045-0.228l-0.057-0.307l0.081-0.205c0.027-0.035,0.063-0.211,0.063-0.211
		s0.145-0.489,0.167-0.56c-0.012-0.089-0.019-0.177-0.019-0.253c0-0.307,0.078-0.529,0.141-0.721l0.086-0.317l-0.005-0.291
		l0.011-0.368c0.024-0.136,0.121-0.188,0.18-0.225c0.02-0.024,0.026-0.046,0.026-0.073c0-0.039-0.018-0.08-0.047-0.129l-0.097-0.347
		l0.074,0.063l0.179-0.038h0.008c0.02-0.13,0.062-0.49,0.062-0.49l0.029-0.268l0.028-0.149c0.044-0.228,0.078-0.394,0.078-0.627
		c0-0.05,0-0.101-0.004-0.161l-0.013-0.217l0.19,0.098c0.147,0.077,0.307,0,0.493-0.088l0.37-0.141l0.399,0.057
		c0,0,0.122,0.025,0.188,0.037c0.049-0.044,0.104-0.083,0.123-0.088c0.011-0.003,0.154-0.006,0.154-0.006h0.076
		c0.005,0,3.961-0.417,4.049-0.428c0.161-0.162,0.4-0.224,0.646-0.266c0.338-0.06,0.538-0.121,0.59-0.337
		c-0.124-0.116-0.202-0.265-0.202-0.472c0-0.068,0.008-0.144,0.02-0.223l0.019-0.101h0.293v-0.479
		c-0.019,0.002-0.052,0.008-0.052,0.008c-0.151,0.026-0.266,0.045-0.326-0.054c-0.023-0.027-0.03-0.06-0.03-0.096
		c0-0.03,0.031-0.076,0.042-0.108C37.035,12.273,36.869,12.396,36.686,12.541 M19.447,15.554c-0.051,0.029-0.047,0.107-0.038,0.149
		c0.038,0.041,0.182-0.001,0.264-0.046c-0.024-0.026-0.058-0.058-0.058-0.058C19.563,15.543,19.488,15.533,19.447,15.554
		 M28.582,18.003c0,0-0.055,0-0.111-0.001v0.208c0.006-0.015,0.044-0.024,0.044-0.024l0.111-0.023c0,0,0.018,0.039,0.031,0.073
		c0.023-0.044,0.054-0.08,0.084-0.112c0.005-0.03,0.02-0.13,0.02-0.133C28.761,18.003,28.582,18.003,28.582,18.003"/>
	<path fill="#FFFFFF" d="M36.081,16.969l-0.215,0.066l-0.327,0.014c-0.178-0.003-0.35,0.013-0.518,0.074
		c-0.023,0.346-0.206,0.552-0.511,0.62c-0.005,0.097-0.026,0.4-0.026,0.4c-0.016,0.335-0.034,0.547-0.174,0.928
		c0,0.024,0.038,0.255,0.038,0.255c0.013,0.074,0.03,0.15,0.03,0.225c0,0.13-0.052,0.261-0.238,0.37l-0.166,0.1
		c0,0-0.012-0.122-0.016-0.169c-0.042,0.04-0.097,0.063-0.159,0.079c0.007,0.063,0.021,0.128,0.021,0.181
		c0,0.257-0.072,0.459-0.141,0.643l-0.104,0.361l0.039,0.168l0.066,0.249c0,0.003-0.085,0.288-0.085,0.288
		c-0.035,0.065-0.052,0.105-0.052,0.133c0,0.019,0.005,0.035,0.017,0.055l-0.046-0.046c0.19,0.118,0.287,0.309,0.287,0.567
		c0,0.024-0.006,0.051-0.009,0.077c0.279,0.027,0.38-0.111,0.495-0.286l0.224,0.105l-0.12,0.306
		c-0.057,0.125-0.112,0.233-0.112,0.403c0,0.053,0.009,0.115,0.021,0.185c0.06,0.075,0.204,0.257,0.204,0.257
		s0.036,0.057,0.063,0.097c0.168,0.03,0.244-0.023,0.341-0.102l0.241-0.167l0.048,0.075l0.163,0.175
		c0.112,0.134,0.191,0.229,0.383,0.227c0.145,0.022,0.226-0.089,0.315-0.241l0.169-0.183c0.081-0.024,0.135,0.021,0.186,0.057
		l0.003-0.008c0.03-0.114,0.075-0.271,0.197-0.358c0.059-0.034,0.118-0.018,0.176,0c-0.031-0.043-0.033-0.087-0.033-0.107
		c0-0.09,0.063-0.175,0.154-0.205c0.021-0.004,0.044-0.007,0.07-0.004c0-0.049,0.003-0.108,0.003-0.108
		c0-0.037-0.003-0.077-0.003-0.113c0-0.263,0.017-0.515,0.172-0.664c0.063-0.06,0.148-0.073,0.236-0.087
		c-0.005-0.139-0.014-0.276-0.014-0.409c0-0.451,0.035-0.863,0.067-1.269c0.032-0.397,0.065-0.808,0.065-1.25
		c0-0.13-0.006-0.266-0.01-0.402l-0.006-0.138l0.131,0.004c0.07,0,0.118-0.033,0.167-0.058c-0.011-0.052-0.034-0.106-0.034-0.152
		c0-0.093,0.02-0.174,0.036-0.249l0.022-0.243c-0.002,0.003-0.096-0.099-0.096-0.099c-0.099-0.086-0.244-0.221-0.244-0.437
		c0-0.003,0-0.009,0-0.013c-0.127,0.003-0.307,0.004-0.307,0.004l-0.515-0.01l-0.253-0.141l-0.14-0.069L36.081,16.969
		 M35.166,20.652c0-0.272,0.124-0.55,0.24-0.817l0.122-0.284l0.1-0.406l0.271-0.986l0.143,0.165c0.165,0.16,0.247,0.416,0.247,0.779
		v0.059c0.01,0.032,0.026,0.062,0.026,0.089c0,0.033-0.007,0.062-0.019,0.086c-0.038,0.081-0.112,0.107-0.176,0.125
		c0.03,0.067,0.06,0.134,0.06,0.134l-0.034,0.272c-0.034,0.183-0.08,0.462-0.08,0.712c0,0.18,0.022,0.342,0.095,0.449l0.108,0.164
		l-0.188,0.032c-0.139,0.028-0.167,0.178-0.182,0.53c-0.009,0.318-0.027,0.762-0.464,0.765l-0.141,0.004l0.02-0.149
		c0.035-0.297-0.042-0.422-0.147-0.58c-0.131-0.208-0.285-0.448-0.164-1.042l0.034-0.173c0,0,0.13,0.085,0.136,0.086
		C35.172,20.668,35.166,20.658,35.166,20.652"/>
	<path fill="#FFFFFF" d="M56.797,16.955c-0.172,0.135-0.387,0.301-0.672,0.297c-0.05,0.068-0.08,0.175-0.106,0.289
		c-0.032,0.14-0.072,0.285-0.162,0.392c0.005,0,0.016-0.005,0.016-0.005v0.937h-0.544c-0.042,0.136-0.074,0.274-0.074,0.416
		c0,0.214,0.037,0.428,0.074,0.641c0.036,0.205,0.072,0.42,0.072,0.624c0,0.13-0.016,0.257-0.052,0.379l-0.019,0.054l-0.085,0.051
		l-0.011,0.007c0,0.043-0.114,0.271-0.114,0.271s-0.051,0.008-0.093,0.011c-0.129,0.829-0.179,1.685-0.179,2.554
		c0,1.2,0.093,2.423,0.179,3.623c0,0,0.007,0.11,0.013,0.142c0.114,0.107,0.171,0.293,0.194,0.471c0,0,0.002,0.011,0.002,0.014
		c0.02-0.029,0.2-0.295,0.2-0.295l0.021,0.377l0.061,1.496c0.028,0.437,0.061,0.88,0.061,1.362c0,0.165-0.009,0.333-0.015,0.514
		c0.087,0.059,0.282,0.056,0.466,0.05h0.121c0.006-0.162,0.012-0.321,0.012-0.476c0-0.551-0.032-1.069-0.064-1.573
		c-0.032-0.511-0.064-1.033-0.064-1.589c0-0.157,0.005-0.316,0.01-0.478c-0.184-0.137-0.218-0.407-0.218-0.679
		c0-0.048,0.001-0.219,0.001-0.262c0-0.182-0.008-0.353-0.073-0.442l-0.065-0.098l0.09-0.08c0.11-0.092,0.246-0.306,0.268-0.558
		c0.001-0.024,0.001-0.051,0.001-0.077c0-0.22-0.072-0.396-0.147-0.588l-0.056-0.135l-0.008-1.384l0.016-0.012l0.13-0.159
		l0.064-0.125c0.039-0.241,0.047-0.522,0.047-0.806c0-0.099-0.004-0.491-0.004-0.592c0-0.458,0.03-0.874,0.164-1.169h-0.004
		l0.008-0.281c0.004-0.283,0.028-0.638,0.3-0.759c-0.004-0.043-0.016-0.094-0.016-0.131c0-0.254,0.107-0.423,0.194-0.565
		c0.065-0.101,0.113-0.176,0.113-0.265c0-0.057-0.019-0.114-0.059-0.188l-0.069-0.137l0.165-0.054l0.292-0.104
		c0.138-0.067,0.296-0.141,0.532-0.124v-0.302l0.117-0.009c0.244-0.019,0.367,0.1,0.47,0.191c0.083,0.079,0.143,0.132,0.266,0.131
		l0.102-0.001l0.02,0.099c0.044,0.2,0.067,0.396,0.067,0.586c0,0.419-0.106,0.802-0.309,1.085c-0.217,0.302-0.556,0.473-0.963,0.516
		c-0.292,0.319-0.523,0.427-0.974,0.354c0.018,0.082,0.035,0.162,0.035,0.226c0,0.07-0.005,0.13-0.013,0.183
		c-0.008,0.045-0.011,0.086-0.011,0.122c0,0.066,0.016,0.133,0.068,0.228c0.016,0.012,0.031,0.018,0.156-0.024
		c0.103-0.033,0.242-0.073,0.423-0.048c0.128-0.18,0.336-0.342,0.553-0.39c0.131-0.032,0.242,0.007,0.354,0.048
		c0.049-0.157,0.121-0.292,0.198-0.416l0.313-0.518v0.367c0.013-0.032,0.032-0.067,0.032-0.067c0.03-0.046,0.094-0.056,0.152-0.068
		c0.021-0.226,0.106-0.384,0.196-0.514c0,0,0.073-0.12,0.097-0.162c-0.036-0.121-0.063-0.24-0.063-0.34
		c0-0.309,0.154-0.515,0.328-0.692c-0.037-0.069-0.056-0.148-0.056-0.225v-0.003c-0.074-0.021-0.147-0.05-0.164-0.135
		C59.1,17.953,59.1,17.939,59.1,17.927c0-0.021,0.01-0.045,0.023-0.073c-0.05-0.06-0.114-0.142-0.114-0.142
		c-0.126-0.113-0.274-0.245-0.274-0.523c0-0.02,0.006-0.042,0.006-0.06c-0.018-0.004-0.045-0.006-0.045-0.006
		c-0.526-0.062-0.941-0.114-1.459,0.016c-0.07,0.036-0.129,0.121-0.194,0.225l-0.515,0.526l0.038-0.337
		c0.005-0.342,0.224-0.484,0.396-0.596c0.063-0.042,0.106-0.091,0.158-0.14C57.045,16.788,56.962,16.821,56.797,16.955
		 M55.557,18.08c0,0.008,0.003,0.021,0.003,0.031c0.01-0.031,0.054-0.044,0.078-0.066c-0.005-0.074-0.014-0.228-0.014-0.248
		C55.583,17.877,55.557,17.973,55.557,18.08"/>
	<path fill="#FFFFFF" d="M40.773,16.875c0,0.012,0.001,0.023,0.001,0.032c0,0.344-0.228,0.463-0.388,0.545
		c-0.04,0.01-0.335-0.055-0.335-0.055l-0.047-0.017c-0.063,0.272-0.149,0.546-0.39,0.677c-0.021,0.402-0.089,0.683-0.229,0.864
		l-0.107,0.14c0,0-0.121-0.193-0.125-0.206c-0.038,0.269-0.06,0.561-0.06,0.872c0,0.149,0,0.302,0.005,0.451v0.761l-0.03,0.035
		c-0.135,0.149-0.207,0.327-0.251,0.523c0.063-0.046,0.131-0.086,0.131-0.086c0.185-0.02,0.354-0.026,0.418,0.102
		c0.012,0.021,0.017,0.045,0.02,0.07c0.043-0.014,0.107-0.014,0.137-0.041l0.258-0.228l-0.059,0.343
		c-0.001,0.026-0.004,0.044-0.004,0.06c0,0.081,0.05,0.104,0.223,0.144c0.13,0.025,0.285,0.082,0.363,0.233
		c0.047-0.003,0.093-0.017,0.135-0.017c0,0,0.249-0.02,0.268-0.021h-0.004c0-0.013,0.035-0.049,0.035-0.049l0.185-0.165h0.244
		c0,0,0.065,0.004,0.108,0.006c0.007-0.083,0.018-0.156,0.077-0.202c0.026-0.017,0.084-0.044,0.162-0.021
		c0.09-0.015,0.156,0.041,0.23,0.077c0.001-0.083,0.052-0.199,0.138-0.266c0.042-0.033,0.136-0.074,0.251-0.047
		c-0.006-0.034-0.021-0.071-0.021-0.106c0-0.15,0.057-0.289,0.242-0.399l0.124-0.072c0,0,0.028,0.067,0.043,0.111
		c0.051-0.083,0.111-0.169,0.215-0.163l0.112,0.009l0.003,0.113c0.036,0.817-0.118,1.371-0.282,1.954l-0.253,1.034l-0.052,0.034
		c-0.186,0.103-0.325,0.238-0.489,0.409l-0.038,0.039l-0.055-0.003c-0.158-0.005-0.269,0.022-0.332,0.08l-0.166,0.145l-0.035-0.221
		c-0.016-0.102-0.078-0.157-0.154-0.231c0,0-0.051-0.05-0.089-0.096c-0.269-0.01-0.456,0.038-0.585,0.118
		c0.023,0.058,0.033,0.125,0.033,0.19v0.022c0.119,0.05,0.205,0.136,0.25,0.206l0.054,0.073c0.106,0.007,0.167,0.063,0.187,0.166
		c-0.005-0.009-0.02-0.035-0.048-0.051c0.382,0.192,0.668,0.16,1.065,0.112l0.209-0.02l0.004-0.083l0.394-0.052
		c0.095-0.021,0.182-0.014,0.306,0.016c0.065-0.111,0.202-0.348,0.202-0.348c0.187-0.281,0.362-0.551,0.362-1.001
		c0-0.04-0.001-0.073-0.005-0.112v-0.048l0.051-0.061l0.185-0.24c0,0,0.041-0.069,0.071-0.116c-0.047-0.109-0.084-0.221-0.084-0.331
		c0-0.198,0.057-0.392,0.108-0.572l0.086-0.373l-0.053-0.226l-0.051-0.198c0,0.006,0.059-0.128,0.059-0.128
		c0.031-0.041,0.052-0.073,0.052-0.118c0-0.01,0-0.021-0.001-0.036c-0.028-0.045-0.063-0.099-0.102-0.208
		c-0.01-0.004-0.11-0.25-0.11-0.25l0.063-0.367l0.039-0.183l-0.046-0.254l-0.057-0.276c0,0.005,0.061-0.287,0.061-0.287l0.042-0.153
		L43.62,18.79l-0.074-0.291l0.073-0.125l0.027-0.068l-0.023-0.231c-0.015-0.084-0.03-0.173-0.03-0.27
		c0-0.025,0.016-0.059,0.02-0.087l-0.464,0.124l0.085-0.208c0.007-0.031,0.01-0.056,0.01-0.079c0-0.063-0.031-0.091-0.082-0.137
		c-0.071-0.062-0.173-0.149-0.173-0.33c0-0.033,0.015-0.071,0.021-0.108c-0.112-0.053-0.299-0.15-0.299-0.15
		c-0.232-0.143-0.431-0.265-0.802-0.224l-0.112,0.013l-0.045-0.236v-0.011C41.473,16.549,41.145,16.712,40.773,16.875
		 M41.067,18.926c-0.103-0.134-0.147-0.271-0.147-0.405c0-0.279,0.187-0.537,0.325-0.732l0.156-0.235l0.059-0.019
		c0.393-0.058,0.621,0.072,0.818,0.18l0.153,0.084v0.103l0.004,0.314l-0.004,0.438c0,0.002-0.168,0.205-0.168,0.205
		s-0.048,0.042-0.057,0.049c0.003,0,0.004,0.005,0.004,0.017c0,0.028-0.007,0.087-0.007,0.087l-0.112,0.321
		c0,0-0.092,0.021-0.181,0.04c-0.01,0.487-0.278,0.721-0.519,0.923c-0.201,0.172-0.376,0.32-0.418,0.611l-0.022,0.148l-0.14-0.047
		c-0.197-0.069-0.243-0.194-0.243-0.302c0-0.056,0.014-0.107,0.021-0.145l0.014-0.089l-0.139-0.094l0.099-0.126
		c0.31-0.271,0.414-0.777,0.506-1.327L41.067,18.926"/>
	<g>
		<g>
			<path fill="#D52332" d="M1.408,49.542H0.854v-1.44h0.498c0.697,0,1.027,0.244,1.027,0.72C2.379,49.253,2.1,49.542,1.408,49.542
				 M1.326,47.43H0.854v-0.963h2.054V45.79H0v4.429h1.426c1.183,0,1.837-0.503,1.837-1.383C3.263,47.894,2.584,47.43,1.326,47.43"/>
		</g>
	</g>
	<path fill="#D52332" d="M5.878,49.609c0.322-0.137,0.72-0.35,0.871-0.656c0.199-0.4,0.317-1.517,0.38-3.163h2.677v4.429H8.953
		v-3.797H7.852c-0.143,1.66-0.2,2.513-0.487,3.045c-0.235,0.439-0.67,0.695-1.125,0.89L5.878,49.609"/>
	<path fill="#D52332" d="M15.584,48.152l-0.536-1.817l-0.604,1.817H15.584L15.584,48.152z M14.531,45.79h1.103l1.525,4.429h-0.885
		l-0.486-1.437h-1.581l-0.539,1.437h-0.855L14.531,45.79"/>
	<polyline fill="#D52332" points="20.159,45.79 23.047,45.79 23.047,46.467 21.007,46.467 21.007,50.219 20.159,50.219 
		20.159,45.79 	"/>
	<path fill="#D52332" d="M29.674,48.001c0-0.915-0.462-1.598-1.427-1.598c-1.01,0-1.45,0.683-1.45,1.584
		c0,0.884,0.43,1.622,1.406,1.622C29.249,49.609,29.674,48.908,29.674,48.001 M25.938,47.994c0-1.466,0.92-2.272,2.366-2.272
		c1.531,0,2.233,0.932,2.233,2.287c0,1.434-0.846,2.284-2.354,2.284C26.711,50.293,25.938,49.392,25.938,47.994"/>
	<polyline fill="#D52332" points="34.665,46.473 33.238,46.473 33.238,45.79 36.945,45.79 36.945,46.473 35.519,46.473 
		35.519,50.22 34.665,50.22 34.665,46.473 	"/>
	<path fill="#D52332" d="M41.39,49.542c0.584,0,0.958-0.15,0.958-0.628c0-0.519-0.388-0.65-1.076-0.65h-0.506v1.278H41.39
		L41.39,49.542z M41.252,47.656c0.549,0,0.785-0.145,0.785-0.588c0-0.457-0.295-0.62-0.86-0.62h-0.411v1.208H41.252L41.252,47.656z
		 M39.912,45.79h1.414c1.047,0,1.557,0.413,1.557,1.171c0,0.519-0.361,0.766-0.506,0.857v0.012c0.195,0.071,0.823,0.326,0.823,1.062
		c0,0.781-0.454,1.327-1.687,1.327h-1.602V45.79"/>
	<path fill="#D52332" d="M49.9,48.001c0-0.915-0.463-1.598-1.427-1.598c-1.008,0-1.45,0.683-1.45,1.584
		c0,0.884,0.43,1.622,1.407,1.622C49.478,49.609,49.9,48.908,49.9,48.001 M46.165,47.994c0-1.466,0.922-2.272,2.365-2.272
		c1.531,0,2.235,0.932,2.235,2.287c0,1.434-0.847,2.284-2.354,2.284C46.938,50.293,46.165,49.392,46.165,47.994"/>
	<path fill="#D52332" d="M55.316,48.165h-0.468v-1.698h0.614c0.619,0,0.854,0.318,0.854,0.852
		C56.317,47.84,55.987,48.165,55.316,48.165 M55.604,45.79h-1.607v4.429h0.853v-1.383h0.43c1.271,0,1.916-0.704,1.916-1.544
		C57.194,46.335,56.549,45.79,55.604,45.79"/>
	<polyline fill="#D52332" points="60.247,45.79 61.092,45.79 61.092,48.42 61.074,49.04 61.474,48.396 63.21,45.79 64.058,45.79 
		64.058,50.219 63.21,50.219 63.21,47.587 63.229,46.966 62.879,47.525 61.092,50.219 60.247,50.219 60.247,45.79 	"/>
	<polyline fill="#D52332" points="68.451,46.473 67.026,46.473 67.026,45.79 70.731,45.79 70.731,46.473 69.306,46.473 
		69.306,50.22 68.451,50.22 68.451,46.473 	"/>
	<polyline fill="#D52332" points="73.7,45.79 76.426,45.79 76.426,46.467 74.546,46.467 74.546,47.675 76.291,47.675 76.291,48.313 
		74.546,48.313 74.546,49.542 76.57,49.542 76.57,50.219 73.7,50.219 73.7,45.79 	"/>
	<path fill="#D52332" d="M79.191,49.609c0.323-0.137,0.722-0.35,0.871-0.656c0.199-0.4,0.316-1.517,0.38-3.163h2.678v4.429h-0.854
		v-3.797h-1.101c-0.145,1.66-0.2,2.513-0.486,3.045c-0.237,0.439-0.673,0.695-1.127,0.89L79.191,49.609"/>
	<path fill="#D52332" d="M87.987,49.542h-0.523v-1.571h0.469c0.671,0,1.002,0.248,1.002,0.763
		C88.935,49.204,88.655,49.542,87.987,49.542 M87.908,47.3h-0.444v-1.51h-0.857v4.429h1.399c1.166,0,1.807-0.588,1.807-1.472
		C89.813,47.807,89.14,47.3,87.908,47.3"/>
	<polyline fill="#D52332" points="92.918,45.79 93.765,45.79 93.765,47.662 95.844,47.662 95.844,45.79 96.692,45.79 96.692,50.219 
		95.844,50.219 95.844,48.328 93.765,48.328 93.765,50.219 92.918,50.219 92.918,45.79 	"/>
	<path fill="#D52332" d="M101.559,49.542h-0.522v-1.571h0.467c0.675,0,1.003,0.274,1.003,0.788
		C102.506,49.229,102.227,49.542,101.559,49.542 M101.48,47.3h-0.444v-1.51h-0.858v4.429h1.401c1.164,0,1.804-0.569,1.804-1.455
		C103.383,47.83,102.711,47.3,101.48,47.3"/>
	<rect x="103.902" y="45.79" fill="#D52332" width="0.852" height="4.429"/>
	<path fill="#D52332" d="M108.895,44.862l0.402-0.425c0.28,0.294,0.586,0.401,0.872,0.401c0.296,0,0.605-0.107,0.88-0.401
		l0.411,0.425c-0.28,0.439-0.767,0.678-1.291,0.678C109.653,45.54,109.167,45.302,108.895,44.862 M108.246,45.79h0.848v2.63
		l-0.017,0.62l0.396-0.645l1.736-2.605h0.846v4.429h-0.846v-2.632l0.019-0.621l-0.348,0.56l-1.787,2.693h-0.848V45.79"/>
	<path fill="#D52332" d="M123.04,47.883c0-0.771-0.438-1.173-1.114-1.173v2.342C122.603,49.052,123.04,48.634,123.04,47.883
		 M121.084,46.71c-0.679,0-1.115,0.401-1.115,1.173c0,0.751,0.437,1.169,1.115,1.169V46.71L121.084,46.71z M121.084,49.686
		c-1.115,0-1.969-0.582-1.969-1.803c0-1.223,0.854-1.805,1.969-1.805v-0.476h0.842v0.476c1.114,0,1.966,0.582,1.966,1.805
		c0,1.221-0.852,1.803-1.966,1.803v0.533h-0.842V49.686"/>
	<path fill="#D52332" d="M130.59,48.001c0-0.915-0.459-1.598-1.424-1.598c-1.01,0-1.451,0.683-1.451,1.584
		c0,0.884,0.43,1.622,1.407,1.622C130.168,49.609,130.59,48.908,130.59,48.001 M126.855,47.994c0-1.466,0.921-2.272,2.365-2.272
		c1.532,0,2.236,0.932,2.236,2.287c0,1.434-0.848,2.284-2.355,2.284C127.629,50.293,126.855,49.392,126.855,47.994"/>
	<polyline fill="#D52332" points="134.687,45.79 135.534,45.79 135.534,47.662 137.612,47.662 137.612,45.79 138.46,45.79 
		138.46,50.219 137.612,50.219 137.612,48.328 135.534,48.328 135.534,50.219 134.687,50.219 134.687,45.79 	"/>
	<path fill="#D52332" d="M144.53,49.555v-3.133h-1.078c-0.099,1.148-0.205,1.806-0.291,2.175c-0.081,0.317-0.181,0.583-0.337,0.958
		H144.53L144.53,49.555z M141.479,49.549h0.412c0.198-0.351,0.373-0.733,0.474-1.065c0.155-0.539,0.267-1.436,0.341-2.693h2.679
		v3.759H146v1.627h-0.811v-0.957h-2.907v0.957h-0.804V49.549"/>
</g>
</svg>
