<?xml version="1.0" encoding="utf-8"?>
<!-- Generator: Adobe Illustrator 16.0.0, SVG Export Plug-In . SVG Version: 6.00 Build 0)  -->
<!DOCTYPE svg PUBLIC "-//W3C//DTD SVG 1.1//EN" "http://www.w3.org/Graphics/SVG/1.1/DTD/svg11.dtd">
<svg version="1.1" id="Слой_1" xmlns="http://www.w3.org/2000/svg" xmlns:xlink="http://www.w3.org/1999/xlink" x="0px" y="0px"
	 width="182px" height="50px" viewBox="0 0 182 50" enable-background="new 0 0 182 50" xml:space="preserve">
<path fill="#FFFFFF" d="M61.812,20.556c-0.044,0.106-0.095,0.225-0.095,0.225s-0.059,0.01-0.111,0.015v0.824l-0.142,0.012
	c-0.046,0-0.064,0.028-0.082,0.258c-0.01,0.167-0.023,0.357-0.16,0.467l-0.715,0.167l0.302-0.344
	c0.076-0.105,0.111-0.231,0.111-0.392c0-0.028-0.002-0.063-0.004-0.092c-0.058-0.041-0.099-0.114-0.117-0.229
	c-0.294-0.047-0.542-0.294-0.721-0.505c0,0-0.095-0.103-0.134-0.144l-0.003,0.006c-0.282,0.099-0.399,0.083-0.546-0.008v0.391
	c0.238,0.067,0.321,0.299,0.369,0.454l0.108,0.243l0.042,0.106l0.064,0.25c0.038,0.095,0.09,0.207,0.09,0.37
	c0,0.007-0.003,0.018-0.005,0.025c0.036,0.01,0.076,0.01,0.111,0.033c0.124,0.089,0.14,0.245,0.151,0.373l0.026,0.145l0.065,0.05
	l0.019,0.098l-0.009,0.321c-0.014,0.567-0.043,1.141-0.372,1.448c0.035,0.126,0.066,0.256,0.066,0.392
	c0,0.199-0.038,0.403-0.113,0.569c-0.097,0.24-0.255,0.402-0.452,0.479l-0.176,0.068c0,0-0.016-0.119-0.024-0.169
	c-0.01,0.009-0.03,0.021-0.03,0.021c-0.101,0.069-0.223,0.154-0.356,0.091c-0.125-0.067-0.141-0.227-0.144-0.281l-0.004-0.066
	l0.183-0.205c0.196-0.213,0.367-0.404,0.367-0.783c0-0.049-0.008-0.111-0.012-0.17c-0.504-0.201-0.826,0.129-1.15,0.488
	l-0.452,0.468l-0.088-0.203c-0.321-0.656-0.325-1.507-0.007-2.529l0.036-0.114l0.118,0.006c0.096,0.008,0.161-0.033,0.231-0.078
	v-0.822l0.115-0.032c0.088-0.02,0.124-0.106,0.185-0.291c0.062-0.197,0.167-0.472,0.489-0.504c0.009-0.142,0.024-0.323,0.024-0.323
	s-0.016-0.301-0.026-0.45c-0.375-0.02-0.645,0.049-0.776,0.218c-0.081,0.095-0.195,0.075-0.286,0.059
	c0-0.032-0.148,0.201-0.148,0.201L57.54,21.3l-0.279,0.29l-0.109,0.108c0.008-0.019,0.022,0.099,0.022,0.099l-0.006,0.27
	l-0.294,0.317c0.004-0.003-0.097,0.092-0.108,0.104c0.019,0.036,0.044,0.071,0.044,0.099v0.028
	c-0.011,0.117-0.107,0.181-0.198,0.248l-0.127,0.105l0.127,0.217L56.39,23.23c-0.152,0.016-0.244,0.047-0.302,0.081
	c0.07,0.069,0.126,0.149,0.163,0.223l0.135,0.262l-0.507-0.054c0.008,0,0.008,0.193,0.008,0.193l-0.018,0.392l-0.171,0.201
	c-0.058,0.04-0.079,0.055-0.079,0.15v0.082c0,0.518,0.076,0.604,0.079,0.606c0.045,0.019,0.278,0.151,0.278,0.151
	c0.01,0.01,0.033,0.334,0.033,0.334s-0.005,0.039-0.011,0.071c0.422,0.133,0.669,0.415,0.669,0.884v0.02
	c0.039,0.017,0.086,0.024,0.086,0.024c0.196,0.042,0.421,0.087,0.535,0.285l0.028,0.047l-0.007,0.056
	c-0.005,0.053-0.006,0.094-0.006,0.131c0,0.109,0.021,0.156,0.038,0.181c0,0,0.017,0.011,0.022,0.011
	c0.1-0.141,0.241-0.238,0.447-0.234l0.463,0.029c0.651,0.042,1.207,0.085,1.657-0.263l0.067-0.056l0.043,0.023
	c0,0,0.051,0.02,0.096,0.038c-0.003-0.013-0.018-0.024-0.018-0.038c0-0.029,0.007-0.059,0.021-0.09
	c0.062-0.115,0.198-0.114,0.333-0.094c-0.004-0.012-0.111-0.435-0.111-0.435l0.083-0.015c0.169-0.143,0.271-0.164,0.414-0.08
	c0,0,0.034,0.009,0.056,0.016v-0.041c0-0.178,0.019-0.405,0.242-0.461l0.242-0.056l-0.052,0.242
	c-0.008,0.029-0.012,0.049-0.012,0.068c0,0.039,0.029,0.053,0.151,0.082c0.13,0.033,0.345,0.088,0.384,0.332l0.005,0.029
	l-0.013,0.033c-0.005,0.029-0.011,0.053-0.011,0.07c0,0.033,0.022,0.047,0.069,0.086c0.057,0.033,0.119,0.107,0.165,0.207
	c0.173,0.066,0.257,0.062,0.405,0.031l0.542-0.086l0.009,0.2l0.006,0.082c0.031,0.043,0.175,0.052,0.277,0.058
	c0,0,0.122,0.033,0.241,0.068c0.108-0.284,0.313-0.34,0.489-0.38l0.168-0.06c0-0.115,0.048-0.246,0.133-0.311
	c0.001-0.003,0.257-0.034,0.257-0.034l0.065,0.005c0-0.003,0.125-0.096,0.125-0.096c0.06-0.082,0.145-0.148,0.275-0.17
	c-0.008-0.119-0.049-0.203-0.112-0.303c0,0-0.044-0.1-0.089-0.193c-0.585-0.02-1.182-0.035-1.328,0.311l-0.04,0.092H62.43
	l0.045-0.193c0.01-0.032,0.015-0.068,0.015-0.108c0-0.213-0.108-0.49-0.177-0.685l-0.098-0.409c0.025-0.111,0.13-0.135,0.208-0.146
	l0.106-0.032c-0.104-0.075-0.149-0.146-0.149-0.229c0-0.044,0.016-0.095,0.047-0.15c0,0,0.007-0.04,0.015-0.073
	c-0.065-0.022-0.134-0.054-0.181-0.12c-0.04-0.057-0.059-0.121-0.059-0.199c0-0.034,0.007-0.076,0.012-0.116v-0.006
	c0-0.161,0.127-0.247,0.202-0.3c0.052-0.035,0.074-0.048,0.074-0.085c0-0.015-0.005-0.036-0.015-0.066
	c-0.007-0.049-0.099-0.421-0.099-0.421c-0.058-0.163-0.108-0.308-0.108-0.431c0-0.054,0.007-0.102,0.03-0.148
	c0,0,0.058-0.048,0.105-0.087c-0.026-0.047-0.054-0.096-0.054-0.096s0.071,0.014,0.136,0.025C62.523,22.06,62.597,22,62.597,22
	s0,0.067-0.003,0.112c0.005,0,0.031,0.003,0.031,0.003h0.125c0.019-0.206,0.06-0.613,0.06-0.613
	c0.037-0.174,0.071-0.343,0.071-0.546c0-0.049-0.005-0.105-0.01-0.16c-0.102-0.021-0.288-0.062-0.288-0.062
	c-0.22-0.034-0.434-0.105-0.59-0.249C61.947,20.522,61.889,20.547,61.812,20.556"/>
<path fill="#FFFFFF" d="M78.208,20.285c-0.043,0.065-0.112,0.114-0.239,0.128c-0.018,0.053-0.037,0.103-0.037,0.103l-0.37,0.857
	l-0.093-0.009h-0.365c-0.009,0.214-0.089,0.359-0.161,0.47c0,0-0.032,0.06-0.06,0.114c0.033,0.026,0.071,0.048,0.071,0.048
	l0.498,0.418l-0.123,0.095c-0.168,0.207-0.171,0.494-0.177,0.801l-0.056,0.609l-0.142,0.278l-0.114,0.234
	c0,0.006-0.001,0.457-0.001,0.457l0.001,0.473c-0.436,0.857-0.53,2.032-0.612,3.165c0,0-0.022,0.235-0.028,0.351
	c0.13,0.078,0.233,0.187,0.307,0.323c0.152-0.005,0.27-0.034,0.341-0.101l0.286-0.252l-0.03,0.388
	c-0.008,0.062,0.002,0.088,0.008,0.093c0,0,0.04,0.034,0.198,0.006c0,0,0.004-0.043,0.08-0.061v-0.003l0.11-0.267l0.249-0.074
	c-0.054,0.005,0.073-0.092,0.073-0.092c0.082-0.084,0.2-0.203,0.428-0.195c0.04-0.137,0.136-0.213,0.205-0.25
	c0.05-0.025,0.072-0.035,0.072-0.07c0-0.025-0.012-0.057-0.028-0.113l-0.168-0.462c0,0,0.452,0.312,0.459,0.32
	c0-0.004-0.004-0.004-0.004-0.004c0-0.033,0.055-0.142,0.055-0.142c0.088-0.191,0.246-0.516,0.628-0.477
	c0.108-0.339,0.332-0.577,0.708-0.652c-0.047,0.021-0.025-0.115-0.025-0.115c0.014-0.14,0.038-0.397,0.3-0.418v-0.002
	c0-0.013,0.158-0.144,0.158-0.144c0.094-0.118,0.217-0.276,0.483-0.276v-0.641l0.174-0.005l0.151-0.005l0.038-0.133l0.037-0.174
	l0.407-0.442l0.146-0.135c-0.002,0.003,0.176-0.159,0.176-0.159c0.163-0.134,0.219-0.189,0.177-0.361l-0.123-0.499l0.385,0.352
	c0.043-0.091,0.133-0.278,0.133-0.278s0.11-0.012,0.2-0.024c0.005-0.011,0.026-0.13,0.026-0.13c0.01-0.139,0.036-0.396,0.295-0.42
	l0.195-0.018l-0.033,0.201c-0.199,1.241-0.387,2.595-0.387,4.119v0.074l-0.058,0.044c-0.178,0.151-0.21,0.517-0.238,0.87
	c0,0-0.058,0.363-0.08,0.53c0.113,0.069,0.333,0.069,0.541,0.063c0,0,0.06-0.002,0.114-0.002c-0.013-0.049-0.059-0.229-0.059-0.229
	l0.039-0.126c0.056-0.064,0.131-0.058,0.235-0.046c0.045-0.264,0.052-0.592,0.057-0.954l0.057-1.185l0.066-0.322
	c0.061-0.268,0.133-0.569,0.064-0.816l-0.03-0.133l0.115-0.056c0.129-0.057,0.129-0.118,0.072-0.311l-0.016-0.272
	c0.042-0.128,0.183-0.108,0.28-0.095h0.014c0.004-0.029,0.009-0.053,0.009-0.099c0-0.147-0.023-0.35-0.035-0.468l-0.019-0.368
	l0.129-0.742c0.075-0.384,0.152-0.751,0.152-1.138c0-0.08-0.006-0.164-0.012-0.245c-0.052-0.005-0.069,0.014-0.101,0.073
	l-0.394,0.367l-0.028-0.246c0,0-0.017-0.047-0.04-0.088c-0.01,0.009-0.024,0.014-0.024,0.014c-0.089,0.078-0.231,0.191-0.428,0.2
	c-0.028,0.343-0.224,0.553-0.351,0.661l-0.068,0.066c-0.21,0.247-0.318,0.419-0.354,0.72l-0.011,0.079l-0.089,0.05l-0.234,0.121
	c0,0-0.131,0.064-0.208,0.106c-0.073,0.276-0.323,0.943-0.629,0.974c-0.031,0.051-0.059,0.111-0.059,0.111
	c-0.109,0.08-0.134,0.164-0.169,0.273l-0.207,0.38c-0.082,0.082-0.188,0.059-0.269,0.046c-0.018,0.026-0.2,0.28-0.2,0.28
	s-0.073-0.005-0.131-0.011c-0.02,0.351-0.234,0.494-0.37,0.573l-0.077,0.053l-0.164,0.203c-0.106,0.157-0.25,0.346-0.467,0.369
	c-0.014,0.196-0.045,0.372-0.135,0.481l-0.048,0.055l-0.064,0.002c-0.179,0.006-0.319,0.14-0.453,0.266l-0.251,0.275
	c-0.171,0.225-0.538,0.383-0.538,0.383l-0.022,0.143c-0.014,0.122-0.031,0.281-0.155,0.365c-0.083,0.061-0.188,0.073-0.322,0.031
	l-0.121-0.033l0.105-1.354l0.041-0.754l0.097-0.031c0.124-0.043,0.171-0.19,0.231-0.428c0.059-0.202,0.146-0.41,0.316-0.542
	c-0.008-0.059-0.012-0.118-0.012-0.174c0-0.245,0.043-0.45,0.083-0.645c0.041-0.189,0.081-0.364,0.081-0.583
	c0-0.08-0.005-0.167-0.018-0.264l-0.025-0.162l0.164-0.014c0.029-0.004,0.043-0.024,0.067-0.198c0.022-0.141,0.046-0.312,0.178-0.41
	c0,0,0.067-0.013,0.131-0.025c0-0.361,0.075-0.65,0.15-0.927c0.065-0.276,0.136-0.536,0.136-0.87c0-0.079-0.007-0.173-0.016-0.266
	c-0.106-0.054-0.177-0.159-0.216-0.316c-0.179,0.008-0.288-0.051-0.37-0.104C78.355,20.297,78.302,20.269,78.208,20.285"/>
<path fill="#FFFFFF" d="M127.318,19.004c-0.075,0.095-0.162,0.203-0.305,0.188c-0.033,0-0.059-0.03-0.091-0.049
	c0.081,0.101,0.178,0.229,0.178,0.431v0.039l-0.011,0.156l-0.156-0.01c-0.117-0.01-0.148,0.028-0.213,0.251l-0.196,0.381
	l-0.25-0.156c0.034-0.136,0.017-0.2,0-0.211c-0.007-0.011-0.03-0.017-0.075-0.017c0,0.02,0.007,0.044,0.007,0.062
	c0,0.208-0.051,0.369-0.088,0.513c-0.042,0.135-0.077,0.258-0.077,0.413c0,0.058,0.005,0.116,0.013,0.183l0.011,0.057l-0.023,0.048
	c-0.068,0.122-0.212,0.141-0.325,0.155c0,0-0.073,0.013-0.092,0.016c0.022,0.011,0.029,0.118,0.029,0.118
	c0.008,0.055,0.015,0.115,0.015,0.175c0,0.098-0.018,0.19-0.097,0.258c-0.047,0.039-0.105,0.051-0.162,0.051v1.316l-0.159-0.005
	c-0.086-0.001-0.14,0.036-0.195,0.066c0.012,0.047,0.044,0.102,0.044,0.136c0,0.152-0.088,0.245-0.143,0.305l-0.047,0.053
	c0-0.004,0.075,0.117,0.075,0.117l0.14,0.238l-0.259,0.019c-0.164,0-0.372,0.231-0.431,0.411c0.08,0.009,0.164,0.062,0.19,0.204
	l0.012,0.063l-0.075,0.097l-0.114,0.191c-0.028,0.068-0.066,0.143-0.118,0.207c0.098,0.098,0.169,0.222,0.169,0.391l-0.005,0.109
	l-0.103,0.062c-0.163,0.103-0.25,0.182-0.348,0.33c0.038,0.05,0.065,0.113,0.065,0.178c0,0.009,0,0.018-0.003,0.029
	c-0.007,0.025-0.199,0.179-0.199,0.179s-0.049,0.021-0.083,0.036c-0.014,0.063-0.109,0.522-0.109,0.522s-0.079,0.343-0.117,0.511
	c0.076,0.049,0.149,0.096,0.149,0.096l0.106,0.08c0.361,0.097,0.396,0.275,0.401,0.437c0.004,0.072,0.004,0.091,0.052,0.132
	c0-0.006,0.162-0.015,0.162-0.015c0.135-0.022,0.308-0.047,0.408,0.084c0.033,0.046,0.042,0.097,0.044,0.154
	c0.091-0.015,0.169-0.046,0.248-0.097c0.119-0.082,0.258-0.175,0.493-0.172c0.055-0.25,0.157-0.496,0.416-0.619
	c-0.011-0.022-0.026-0.065-0.026-0.065s0.064,0.006,0.124,0.013c0.084-0.027,0.294-0.109,0.294-0.109s-0.034,0.074-0.063,0.134
	c0.18,0.018,0.244-0.07,0.337-0.222l0.251-0.299c0.005,0,0.302-0.152,0.302-0.152c0.091-0.036,0.139-0.08,0.198-0.125
	c-0.008-0.021-0.028-0.067-0.028-0.067l0.071-0.106c0.053-0.059,0.157-0.08,0.259-0.094c-0.014-0.05-0.038-0.109-0.038-0.154
	c0-0.078,0.022-0.144,0.079-0.19c0.049-0.047,0.113-0.047,0.175-0.039C128.01,26.415,128,26.384,128,26.384l0.238-0.205
	c0.082,0.103,0.089,0.097,0.215-0.009c0.064-0.051,0.203-0.137,0.357-0.105c0.066-0.185,0.151-0.345,0.242-0.496l0.224-0.362
	c0,0,0.026,0.034,0.04,0.061c0.05-0.145,0.118-0.304,0.286-0.375c0.065-0.024,0.138-0.021,0.217-0.011
	c0.069-0.419,0.417-0.811,0.739-0.892c0.009-0.004,0.014,0,0.021-0.004c0-0.017-0.015-0.02-0.015-0.042
	c0-0.026,0.003-0.058,0.008-0.091l0.018-0.132l0.086,0.006l0.399-0.003c0.052,0.005,0.132,0.015,0.193,0.015
	c-0.009-0.028-0.018-0.055-0.018-0.084c0-0.089,0.052-0.18,0.1-0.278c-0.088,0.01-0.169,0.015-0.242-0.026
	c-0.116-0.063-0.174-0.182-0.146-0.308c0.034-0.24,0.266-0.267,0.447-0.262c0.164-0.453,0.552-0.656,0.877-0.764
	c0.033-0.088,0.065-0.172,0.065-0.232c0-0.112-0.065-0.193-0.186-0.347l-0.124-0.153l0.24-0.105l0.069-0.037l0.569-0.156
	l-0.091,0.226l-0.052,0.37c-0.014,0.069-0.018,0.119-0.023,0.172c0.086-0.015,0.367-0.063,0.367-0.063l-0.035,0.161
	c0.008,0.042,0.01,0.08,0.01,0.117c0,0.235-0.093,0.396-0.154,0.511l-0.058,0.118c0.006-0.005,0.117,0.065,0.117,0.065l0.14,0.097
	l-0.114,0.175l-0.227,0.296c0,0-0.056,0.085-0.095,0.145c0.023,0.063,0.055,0.123,0.055,0.189c0,0.19-0.077,0.4-0.159,0.611
	c-0.088,0.239-0.177,0.485-0.177,0.731c0,0.054,0.002,0.097,0.009,0.147l0.021,0.097l-0.145,0.084l-0.127,0.09
	c0,0-0.063,0.047-0.125,0.089c0.012,0.049,0.161,0.653,0.161,0.653l-0.177-0.03c-0.101,0.013-0.123,0.015-0.112,0.251l-0.017,0.294
	l-0.14,0.228l-0.12,0.188c0,0.033-0.079,1.035-0.079,1.035s-0.036,0.68-0.045,0.843c0.065,0.05,0.12,0.128,0.129,0.276
	c0.021,0.002,0.115,0.022,0.115,0.022c0.135,0.013,0.38,0.039,0.4,0.3c0-0.007,0.023,0.146,0.023,0.146v0.574
	c0.035-0.016,0.085-0.016,0.103-0.041c0.066-0.076,0.099-0.198,0.099-0.363c0-0.049-0.003-0.1-0.005-0.151l-0.023-0.229l0.214,0.059
	c0.093,0.028,0.097,0.021,0.147-0.059c0.033-0.049,0.096-0.111,0.176-0.157c-0.01-0.099-0.017-0.198-0.017-0.294
	c0-0.503,0.099-0.977,0.188-1.406c0.075-0.371,0.149-0.732,0.149-1.066c0-0.147-0.011-0.295-0.049-0.43l-0.03-0.111l0.093-0.061
	c0.303-0.201,0.402-0.636,0.51-1.097c0.087-0.351,0.172-0.717,0.357-0.997c-0.089-0.143-0.155-0.305-0.155-0.428
	c0-0.016,0-0.027,0.002-0.041c-0.002,0.02,0.129-0.177,0.129-0.177l0.148-0.149v-0.005c0-0.037,0.062-0.41,0.062-0.41l0.063-0.364
	l0.037-0.107c0.237-0.645,0.396-1.08,0.217-1.66l-0.027-0.096l0.07-0.066c0.091-0.087,0.089-0.354,0.084-0.592l-0.005-0.229
	c-0.014,0.001-0.173-0.133-0.281-0.137c0.019,0.039,0.047,0.074,0.051,0.121v0.02c0,0.145-0.099,0.259-0.236,0.285l-0.12,0.022
	l-0.06-0.137l-0.049-0.117c-0.042-0.073-0.084-0.172-0.09-0.312c-0.323-0.001-0.595,0.113-0.648,0.219
	c-0.007,0.011-0.018,0.029,0.019,0.07l0.207,0.268l-0.333-0.01c-0.173-0.007-0.282,0.032-0.361,0.08v0.422l-0.122,0.027
	c-0.147,0.037-0.23,0.141-0.333,0.276c-0.102,0.133-0.246,0.27-0.457,0.338v0.56l-0.171,0.033c0,0-0.268,0.07-0.352,0.093v0.601
	c0,0-0.359-0.056-0.371-0.06c0.007,0.006,0.01,0.039,0.01,0.059v0.018l-0.052,0.281l-0.303,0.15l-0.07,0.018
	c0.008,0.038,0.016,0.079,0.016,0.121c0,0.048-0.012,0.098-0.054,0.141c-0.056,0.058-0.126,0.061-0.198,0.055
	c0.001,0.006,0,0.006,0.004,0.017c0.024,0.038,0.059,0.101,0.059,0.167c0,0.025-0.003,0.053-0.021,0.079
	c-0.041,0.103-0.151,0.121-0.188,0.131c-0.032,0.001-0.329-0.061-0.329-0.061s-0.04-0.017-0.055-0.02v0.002
	c0.007,0.012,0.031,0.018,0.033,0.023c0.012,0.026,0.015,0.053,0.015,0.075c0,0.085-0.054,0.157-0.104,0.223
	c-0.039,0.051-0.105,0.138-0.105,0.183V23.8l0.436,0.435l-0.463-0.07c-0.424-0.076-0.513,0.131-0.645,0.444
	c0,0-0.278,0.473-0.279,0.477c0.007,0.016,0.029,0.026,0.029,0.047c0,0.013,0,0.031-0.002,0.046
	c-0.027,0.117-0.137,0.16-0.186,0.177c-0.006,0.01-0.028,0.054-0.028,0.054s-0.002-0.031-0.005-0.037
	c-0.016,0.002-0.028,0.006-0.028,0.006l-0.044-0.015c-0.129-0.038-0.165-0.012-0.235,0.041c0,0-0.154,0.036-0.272,0.063
	c-0.244,0.367-0.546,0.772-0.915,1.075c-0.083,0.064-0.184,0.042-0.259,0.027v0.033c0,0.059-0.025,0.168-0.175,0.225
	c0,0-0.188,0.009-0.243,0.009c0.019,0.054,0.021,0.11,0.054,0.157l0.198,0.297l-0.345-0.051c-0.256-0.039-0.294,0.02-0.366,0.152
	l-0.162,0.213l-0.351,0.211l-0.605,0.369l0.057-0.336c0.036-0.187,0.004-0.27-0.048-0.387l-0.138-0.581l0.222,0.043
	c0,0,0.027,0.003,0.063,0.003c-0.01-0.025-0.023-0.05-0.023-0.05l-0.073-0.375v-0.009c0-0.053,0.066-0.088,0.181-0.139l0.13-0.063
	c0.063-0.07,0.077-0.212,0.077-0.366c0-0.075-0.004-0.152-0.005-0.228v-0.522l0.15,0.014h0.34c-0.006-0.057-0.026-0.114-0.026-0.167
	c0-0.311,0.139-0.548,0.277-0.782c0.152-0.255,0.306-0.512,0.306-0.894c0-0.04-0.004-0.082-0.004-0.124l-0.016-0.176l0.267,0.011
	c-0.006-0.015-0.007-0.039-0.007-0.062c0-0.09,0.022-0.235,0.022-0.235l0.152-0.177c0,0,0.101-0.09,0.106-0.098
	c-0.015-0.005-0.079-0.203-0.079-0.203l-0.164-0.287l0.25-0.014c0.058-0.005,0.078-0.029,0.13-0.168
	c0.044-0.12,0.142-0.295,0.355-0.343c-0.014-0.083-0.042-0.164-0.042-0.246c0-0.389,0.21-0.729,0.574-1.007
	c-0.021-0.075-0.05-0.153-0.05-0.227c0-0.125,0.02-0.242,0.041-0.354l0.024-0.397c-0.003,0.006-0.12-0.107-0.12-0.107
	c-0.097-0.076-0.188-0.163-0.213-0.29C127.439,18.876,127.382,18.925,127.318,19.004"/>
<path fill="#FFFFFF" d="M150.84,22.228c-0.139,0.046-0.315,0.095-0.547,0.085c0,0.036,0.024,0.05,0.097,0.078
	c0,0,0.576,0.503,0.588,0.513c-0.012-0.021,0.026-0.047,0.015-0.075c-0.098-0.086-0.246-0.101-0.246-0.203
	c0-0.045,0.015-0.096,0.048-0.147l0.058-0.105l0.141,0.011c0.061,0.004,0.096-0.002,0.103-0.011c0,0,0.026-0.02,0.026-0.095
	c0-0.017-0.006-0.034-0.006-0.051C151.046,22.186,150.992,22.183,150.84,22.228 M148.213,18.134l-0.022-0.013
	c-0.014,0.063-0.02,0.132-0.077,0.177c-0.037,0.026-0.069,0.021-0.103,0.035c0.008,0.004,0.01,0.01,0.01,0.01l0.009,0.041
	c0,0.018,0.004,0.028,0.004,0.042c0,0.098-0.047,0.167-0.127,0.206c-0.109,0.054-0.204,0.016-0.295-0.026
	c-0.011,0.015-0.2,0.317-0.2,0.317s-0.034,0.005-0.057,0.008c0,0.019-0.004,0.044-0.004,0.06c0,0.158,0.045,0.281,0.141,0.377
	l0.223,0.233l-0.401,0.023l-0.113,0.007c-0.054,0.032-0.069,0.159-0.081,0.256c-0.021,0.167-0.048,0.356-0.225,0.468
	c0,0-0.106,0.018-0.209,0.036c-0.009,0.045-0.021,0.096-0.021,0.134c0,0.158,0.075,0.253,0.158,0.365l0.337,0.684l-0.343-0.083
	c-0.19-0.021-0.333-0.008-0.391,0.047c-0.044,0.034-0.062,0.098-0.062,0.181c0,0.005,0.003,0.02,0.003,0.029
	c0.037-0.002,0.081-0.021,0.165-0.068c0.082-0.049,0.2-0.115,0.337-0.063c0.146,0.051,0.16,0.188,0.171,0.238l0.02,0.168
	l-0.208,0.008c-0.082,0.003-0.112,0.031-0.166,0.242c0,0-0.04,0.08-0.085,0.153c0.122,0.029,0.263,0.075,0.269,0.242l0.018,0.202
	l-0.183-0.04l-0.468-0.083c0,0-0.037-0.012-0.063-0.016v0.02c0,0.127,0.075,0.179,0.195,0.262l0.178,0.13l-0.003,0.066v0.96h-0.295
	c0.012,0.047,0.035,0.114,0.035,0.155c0,0.11-0.033,0.188-0.052,0.25c0.063,0.021,0.132,0.055,0.158,0.128l0.035,0.078l-0.086,0.126
	c-0.056,0.059-0.133,0.072-0.234,0.067L146.111,25l0.133,0.272l-0.084,0.048l-0.114,0.177c0,0.006-0.005,0.188-0.005,0.188
	c0,0.037,0.005,0.08,0.005,0.121c0,0.118-0.029,0.245-0.084,0.368c0.118,0.029,0.239,0.074,0.244,0.236
	c0.042,0.074,0.057,0.139,0.057,0.196c0,0.126-0.075,0.199-0.158,0.252c0.01,0.011,0.034,0,0.046,0.015
	c0.022,0.035,0.037,0.066,0.037,0.1c0,0.009-0.015,0.018-0.015,0.031c0.166,0.039,0.31,0.179,0.358,0.297l0.066,0.162l-0.204,0.041
	c-0.257,0.057-0.594,0.209-0.658,0.844c0.042,0.033,0.063,0.09,0.093,0.15c0.067-0.01,0.283-0.055,0.283-0.055l0.157,0.174
	c0,0,0.021,0.036,0.044,0.068c0.081,0.025,0.188,0.066,0.271,0.118c0.016-0.003,0.191-0.043,0.191-0.043l0.477-0.118l0.086,0.081
	l0.173,0.073c0,0,0.592,0.089,0.603,0.093c-0.019-0.089-0.052-0.173-0.12-0.254l-0.268-0.449l0.184-0.041
	c0.124-0.051,0.155-0.106,0.165-0.144c0.006-0.02,0.01-0.041,0.01-0.063c0-0.173-0.178-0.409-0.248-0.504l-0.122-0.158l0.389-0.129
	c-0.052-0.004-0.129-0.355-0.129-0.355l0.106-0.154c0,0,0.024-0.032,0.042-0.061c-0.098-0.115-0.148-0.26-0.148-0.281
	c-0.027-0.102-0.035-0.194-0.035-0.283c0-0.203,0.048-0.356,0.086-0.486c0.032-0.1,0.05-0.178,0.05-0.257s-0.018-0.154-0.083-0.251
	l-0.25-0.379l0.656,0.21c0.035,0.016,0.053,0.002,0.078-0.007L148.39,24.8c-0.105-0.044-0.31-0.118-0.31-0.338
	c0-0.064,0.024-0.148,0.068-0.241l0.04-0.086l0.566-0.066c0.157-0.028,0.308-0.024,0.471-0.004c-0.005-0.04-0.035-0.099-0.035-0.129
	c0-0.069,0.03-0.115,0.103-0.149c0.152-0.064,0.261,0.034,0.328,0.09c0,0,0.057,0.044,0.11,0.08c0.049-0.095,0.11-0.189,0.11-0.189
	c0.027-0.019,0.336-0.049,0.336-0.049c0.047,0.018,0.17-0.075,0.17-0.075c0.102-0.092,0.279-0.227,0.517-0.246
	c-0.017-0.043-0.037-0.109-0.037-0.109l0.245-0.197c0,0,0.022,0.012,0.027,0.015c-0.037-0.048-0.078-0.112-0.12-0.202l-0.512-0.075
	c-0.163-0.002-0.259,0.048-0.381,0.109l-0.296,0.153l-0.005-0.284v-0.061c-0.116,0.044-0.21,0.107-0.311,0.225
	c-0.123,0.138-0.31,0.267-0.578,0.334c0,0.011,0.005,0.016,0.005,0.022c0,0.074-0.035,0.147-0.099,0.206
	c-0.146,0.128-0.449,0.166-0.648,0.086c-0.122-0.052-0.189-0.144-0.189-0.248c0-0.019,0.003-0.042,0.008-0.062l0.034-0.126h0.258
	c-0.013-0.08-0.053-0.171-0.053-0.245c0-0.144,0.033-0.265,0.053-0.373l0.035-0.28l-0.026-0.122
	c-0.02-0.098-0.041-0.206-0.041-0.309c0-0.123,0.032-0.245,0.147-0.326c0.064-0.053,0.157-0.071,0.26-0.08
	c-0.016-0.121-0.101-0.194-0.206-0.267l-0.201-0.269l0.121-0.222c0.162-0.127,0.203-0.183,0.203-0.233
	c0-0.024-0.008-0.046-0.023-0.07l-0.068-0.411l0.12-0.157c0,0,0.013-0.026,0.024-0.047c-0.063-0.048-0.147-0.123-0.147-0.268
	c0-0.019,0-0.038,0.003-0.055l0.013-0.125h0.024c-0.021-0.061-0.037-0.149-0.037-0.149l0.145-0.169
	c0.001-0.006,0.007-0.016,0.007-0.022c0-0.054-0.045-0.118-0.045-0.118l-0.191-0.289l0.191-0.054
	c0.106-0.042,0.163-0.165,0.229-0.298c0,0,0.043-0.08,0.097-0.155c-0.067,0.041-0.143,0.079-0.24,0.046
	c-0.082-0.028-0.119-0.074-0.147-0.123C148.481,18.003,148.213,18.134,148.213,18.134"/>
<path fill="#FFFFFF" d="M152.932,17.744c-0.004,0.024-0.019,0.045-0.019,0.072c0,0.065,0.019,0.138,0.033,0.218l0.035,0.385
	l-0.16,0.513l-0.165,0.554v0.406c0.003,0.1,0.009,0.193,0.009,0.281c0,0.24-0.037,0.43-0.213,0.517
	c-0.018,0.01-0.054,0.014-0.082,0.019c0.014,0.016,0.009,0.025,0.033,0.038c0.103,0.057,0.264,0.15,0.264,0.356
	c0,0.044-0.005,0.089-0.017,0.138l-0.015,0.039l-0.198,0.182c-0.152,0.126-0.273,0.224-0.281,0.415l0.06,0.288
	c0.027,0.11,0.056,0.217,0.056,0.322c0,0.1-0.028,0.193-0.102,0.278c-0.066,0.075-0.21,0.097-0.337,0.128
	c0.021,0.175,0.072,0.659,0.072,0.659l0.103,0.736l-0.244,0.012c-0.093-0.012-0.106,0.002-0.171,0.084c0,0-0.045,0.042-0.096,0.079
	c0.043,0.113,0.075,0.23,0.075,0.393c0,0.212-0.024,0.458-0.047,0.737c-0.029,0.301-0.06,0.64-0.06,0.963
	c0,0.488,0.07,0.953,0.325,1.24l0.031,0.039v0.805l0.011-0.005c0.806-0.089,1.634-0.191,2.392-0.34
	c-0.036-0.434-0.143-0.838-0.257-1.227l-0.221-0.901l0.093-0.451c0,0,0.027-0.089,0.049-0.161c-0.045-0.019-0.094-0.041-0.094-0.041
	l-0.08-0.368c0,0,0.07,0.006,0.143,0.009c-0.028-0.043-0.056-0.073-0.094-0.15c-0.081-0.055-0.221-0.168-0.221-0.335
	c0-0.057,0.019-0.119,0.059-0.19c0.003-0.005,0.166-0.204,0.166-0.204c0.1-0.104,0.177-0.185,0.177-0.333
	c0-0.042-0.007-0.1-0.028-0.164l-0.082-0.292l0.515,0.163c0.017,0.009,0.026,0.005,0.045,0c-0.008-0.014-0.012-0.024-0.064-0.048
	l-0.241-0.211l-0.09-0.261l-0.283-0.321l0.204-0.155l-0.017,0.006l0.017-0.398l0.189-0.013h0.333
	c0.024-0.119,0.063-0.325,0.063-0.325l0.112-0.688c0,0,0.128,0.071,0.135,0.077c0.016-0.072,0.052-0.136,0.091-0.193
	c0.066-0.077,0.1-0.129,0.104-0.175c-0.118-0.014-0.372-0.046-0.372-0.273v-0.17c0,0,0.246,0.014,0.254,0.014
	c-0.038-0.068-0.096-0.172-0.096-0.172l-0.327-0.712c0,0,0.09,0.049,0.169,0.088l0.013-0.076l0.238-0.127
	c0.186-0.102,0.287-0.192,0.349-0.311c-0.172-0.005-0.406-0.039-0.429-0.256l-0.023-0.148c0,0,0.486-0.067,0.5-0.067
	c-0.028-0.005-0.062-0.176-0.062-0.176s-0.035-0.155-0.061-0.273c-0.218-0.027-0.326-0.142-0.386-0.248
	c-0.029,0.006-0.147,0.058-0.147,0.058c-0.127,0.039-0.361,0.026-0.492-0.105c-0.037-0.035-0.067-0.093-0.075-0.167
	c-0.03,0.014-0.073,0.014-0.106,0.032c-0.139,0.087-0.313,0.188-0.626,0.165l-0.192-0.015l0.014-0.153
	c0.004-0.052-0.005-0.081-0.014-0.088C153.066,17.761,153.033,17.744,152.932,17.744"/>
<path fill="#FFFFFF" d="M163.699,25.207c0.129,0.005,0.252-0.001,0.342-0.031c0.031-0.012,0.016-0.017,0.035-0.027
	c-0.077-0.032-0.139-0.073-0.206-0.119C163.823,25.096,163.762,25.155,163.699,25.207 M159.896,24.039
	c0.061-0.07,0.095-0.134,0.106-0.222c-0.053-0.013-0.112-0.038-0.16-0.065C159.855,23.835,159.881,23.966,159.896,24.039
	 M158.376,17.744c-0.05,0.057-0.074,0.137-0.074,0.225c0,0.106,0.038,0.227,0.114,0.365l0.099,0.178l-0.237,0.043
	c-0.15,0.023-0.196,0.123-0.196,0.333c0,0.068,0.004,0.148,0.011,0.244l0.009,0.354l-0.17,0.545
	c-0.07,0.183-0.144,0.382-0.144,0.511c0,0.061,0.014,0.106,0.056,0.128l0.299,0.148l-0.313,0.128
	c-0.104,0.042-0.193,0.112-0.193,0.286c0,0.105,0.033,0.251,0.12,0.454l0.058,0.121l-0.184,0.086l-0.193,0.091
	c-0.016,0.026-0.018,0.054-0.018,0.092c0,0.092,0.039,0.219,0.086,0.334l0.104,0.398l-0.102,0.377l-0.063,0.398l0.057,0.1
	l0.162,0.504l-0.211-0.022c-0.04,0.007-0.159,0.026-0.193,0.216c-0.006,0.035-0.006,0.072-0.006,0.108
	c0,0.263,0.155,0.541,0.253,0.587l0.383,0.166l-0.409,0.119c-0.348,0.103-0.459,0.239-0.459,0.451c0,0.134,0.041,0.293,0.101,0.494
	c0.063,0.216,0.138,0.449,0.138,0.685c0,0.123-0.067,0.25-0.11,0.375c0.229,0.041,0.473,0.105,0.604,0.315l0.087,0.144l-0.281,0.113
	c0.016,0.006,0.098,0.074,0.239,0.178l0.332,0.246l-0.324,0.076c-0.113,0.029-0.181,0.078-0.188,0.197
	c0.125,0.154,0.362,0.237,0.624,0.324c0.27,0.083,0.53,0.191,0.726,0.371c0.162-0.01,0.688-0.034,0.688-0.034
	c0.239,0.008,0.413-0.006,0.613-0.11v-0.013c0-0.063,0.031-0.149,0.18-0.217l0.113-0.058l0.17,0.133l0.002,0.006
	c0.007-0.068,0.025-0.15,0.119-0.206c0.044-0.025,0.128-0.056,0.248-0.028l0.082,0.018l0.037,0.063
	c0.056,0.085,0.067,0.106,0.364,0.006c0.116-0.04,0.253-0.069,0.395-0.087c-0.003-0.009-0.009-0.027-0.009-0.027
	c-0.031-0.057-0.058-0.111-0.058-0.172c0-0.039,0.012-0.076,0.043-0.115c0.027-0.03,0.102-0.056,0.191-0.071
	c-0.031-0.058-0.083-0.116-0.083-0.173c0-0.022,0.005-0.049,0.013-0.073c0.024-0.054,0.078-0.125,0.225-0.165
	c0.035-0.009,0.058-0.009,0.08-0.012c0-0.01-0.007-0.021-0.007-0.024c0-0.185,0.117-0.319,0.211-0.42l0.099-0.126l0.356,0.126
	c0.005-0.002,0.005-0.009,0.005-0.017c0-0.024-0.007-0.06-0.05-0.092l-0.13-0.035l0.147-0.099c0.006-0.021,0.008-0.047,0.008-0.073
	c0-0.115-0.075-0.228-0.155-0.336l-0.069-0.093l0.12-0.118l0.29-0.3c0,0,0.009-0.01,0.009-0.012
	c-0.164-0.056-0.304-0.146-0.371-0.313l-0.076-0.201l0.26-0.004c0.231-0.007,0.497-0.015,0.591-0.095c0,0,0-0.005,0.004-0.009
	c-0.253-0.013-0.488-0.042-0.644-0.176l-0.358-0.948c0,0,0.202,0.171,0.36,0.313c-0.04-0.062-0.235-0.36-0.235-0.36l0.454,0.203
	c0,0,0.076,0.029,0.147,0.055c0.059-0.173,0.185-0.29,0.293-0.359c0.063-0.036,0.061-0.066,0.084-0.096
	c-0.11-0.032-0.228-0.083-0.228-0.242l0.122-0.256l0.042-0.113c-0.002,0.008-0.187-0.074-0.187-0.074l-0.227-0.099
	c-0.09-0.047-0.095-0.11-0.1-0.166c-0.076,0.045-0.152,0.09-0.152,0.09l-0.456-0.112l0.131-0.076c0,0,0.042-0.085,0.078-0.162
	c-0.033,0.013-0.069,0.013-0.103,0.03h-0.001c-0.029,0.076-0.101,0.145-0.247,0.159l-0.029,0.004l-1.525-0.217l-0.755-0.062
	l-0.032-0.065l-0.095-0.17c-0.061-0.117-0.095-0.162-0.187-0.169c0.028,0.088,0.067,0.147,0.12,0.202
	c0.085,0.087,0.16,0.174,0.16,0.297c0,0.059-0.062,0.143-0.094,0.218c0.052,0,0.107,0.002,0.107,0.002l0.449,0.092
	c0.017,0.009,0.048,0.197,0.055,0.24c0.053,0,0.111,0.002,0.111,0.002c0.157-0.01,0.519-0.032,0.559,0.256
	c0,0,0.013,0.094,0.02,0.114c0.063,0.046,0.121,0.093,0.121,0.093c0.011,0.01,0.026,0.308,0.026,0.308s-0.013,0.104-0.013,0.11
	c0.008,0.002,0.064,0.035,0.064,0.035l0.266,0.234c0.002,0.005,0.152,0.594,0.152,0.594l0.019,0.105
	c0.075,0.35,0.102,0.6,0.102,0.783c0,0.335-0.092,0.422-0.166,0.449c0.004,0.026,0.029,0.057,0.029,0.078
	c0,0.17-0.081,0.301-0.141,0.406c-0.048,0.081-0.081,0.141-0.081,0.204c0,0.045,0.02,0.097,0.07,0.157l0.174,0.232l-0.329,0.012
	c-0.343,0.013-0.373,0.08-0.43,0.209c-0.069,0.152-0.17,0.38-0.706,0.457l-0.283,0.035l0.063-0.228
	c0.087-0.317-0.05-0.599-0.177-0.878l-0.156-0.389c0,0.002,0.101-0.299,0.101-0.299l0.063-0.127
	c-0.014-0.189-0.106-0.244-0.317-0.373l-0.282-0.188l0.128-0.273c0,0,0.11,0.028,0.191,0.052c-0.024-0.038-0.024-0.085-0.054-0.118
	c-0.069-0.078-0.12-0.177-0.148-0.285c-0.049,0.017-0.091,0.039-0.145,0.03c-0.184-0.02-0.28-0.152-0.346-0.256l-0.146-0.24
	l0.332,0.015c0.15,0.011,0.184-0.032,0.282-0.204c0,0,0.04-0.051,0.069-0.084c-0.107-0.016-0.22-0.024-0.33-0.012
	c-0.199,0.012-0.44,0.032-0.536-0.148l-0.087-0.147l0.382-0.125c0.229-0.071,0.442-0.137,0.539-0.271c0,0,0.175-0.255,0.229-0.336
	c-0.26-0.149-0.471-0.376-0.527-0.741c-0.012-0.07-0.014-0.141-0.014-0.217c0-0.416,0.184-0.825,0.592-0.918l0.165-0.038
	c0,0,0.022,0.07,0.049,0.125c0.019-0.175,0.041-0.352,0.041-0.527c0-0.422-0.094-0.812-0.288-1.155
	c-0.021,0.003-0.034,0.019-0.054,0.02c-0.19,0.01-0.345-0.087-0.381-0.247l-0.033-0.114l0.175-0.07l0.239-0.098
	c0.104-0.056,0.248-0.127,0.404-0.128c-0.021-0.028-0.022-0.06-0.062-0.095c0,0-0.085-0.103-0.149-0.187
	c-0.021,0.042-0.05,0.091-0.102,0.121l-0.076,0.042l-0.337-0.06c-0.265-0.043-0.56-0.086-0.702-0.299l-0.175-0.25l0.356,0.019
	c0.203,0.006,0.337-0.029,0.437-0.08c-0.016-0.11-0.1-0.166-0.293-0.241c-0.191-0.079-0.438-0.176-0.508-0.421l-0.065-0.216
	l0.273,0.024c0.234,0.017,0.442,0.152,0.646,0.285c0.051,0.035,0.114,0.075,0.176,0.112c0.041-0.057,0.104-0.106,0.166-0.142
	c0,0,0.026-0.021,0.053-0.037c-0.109-0.066-0.196-0.143-0.203-0.242v-0.011c0-0.087,0.066-0.191,0.248-0.234l0.106-0.019v0.019
	l0.298,0.225c0.036,0.062,0.063,0.082,0.117,0.077c-0.006-0.201-0.109-0.314-0.24-0.445c0,0-0.088-0.113-0.162-0.201
	C159.142,17.376,158.566,17.502,158.376,17.744"/>
<path fill="#FFFFFF" d="M143.505,32.879c0,0.037,0.005,0.054,0.014,0.057c0,0,0.028,0.021,0.102,0.018
	c0.007-0.031,0.014-0.06,0.014-0.06c-0.001,0.004-0.101-0.022-0.101-0.022s-0.023-0.01-0.026-0.015
	C143.505,32.861,143.505,32.869,143.505,32.879 M137.475,18.54c-0.004,0.051-0.017,0.159-0.017,0.159
	c0.003,0.029,0.003,0.057,0.003,0.091c0,0.119-0.016,0.25-0.107,0.376c0.004-0.004-0.311,0.133-0.311,0.133
	s-0.022,0.007-0.044,0.013c0.009,0.021,0.009,0.034,0.036,0.073l0.13,0.312l-0.113,0.052c-0.053,0.054-0.06,0.079-0.069,0.107
	c0.162,0.033,0.242,0.15,0.278,0.227l0.041,0.066c0,0,0.018,0,0.022-0.002c-0.015-0.098-0.026-0.208-0.026-0.208
	c-0.017-0.063-0.027-0.118-0.027-0.174c0-0.088,0.021-0.187,0.08-0.351l0.043-0.13l0.134,0.032c0.117,0.026,0.126,0.01,0.182-0.124
	c0.053-0.106,0.144-0.279,0.371-0.299l-0.004-0.001c-0.035-0.03-0.096-0.069-0.096-0.069l-0.285-0.188
	C137.627,18.562,137.581,18.525,137.475,18.54 M142.296,15.55c0.033,0.032,0.051,0.085,0.081,0.131
	c0.012-0.103,0.017-0.149,0.026-0.24c-0.091-0.022-0.181-0.045-0.181-0.045s-0.023-0.004-0.036-0.007
	C142.199,15.436,142.223,15.479,142.296,15.55 M140.384,15.413c-0.153,0.054-0.331,0.106-0.52-0.006
	c-0.062,0.084-0.101,0.209-0.131,0.354c-0.054,0.239-0.111,0.513-0.348,0.64l-0.178,0.099l-0.072-0.358l0.052-0.069l-0.43,0.474
	c-0.237,0.205-0.39,0.353-0.39,0.536c0,0.057,0.016,0.115,0.046,0.179c0,0-0.201,0.147-0.229,0.167
	c-0.007,0.142-0.017,0.327-0.157,0.425c-0.029,0.021-0.068,0.024-0.109,0.033c0.021,0.181,0.074,0.331,0.144,0.486
	c0,0,0.054,0.132,0.079,0.194c0.013-0.005,0.021-0.012,0.03-0.013c-0.003-0.019-0.085-0.271-0.085-0.271l0.194-0.039
	c0.167,0.006,0.278-0.029,0.364-0.084c-0.009-0.005-0.061-0.037-0.061-0.037c-0.086-0.044-0.242-0.126-0.242-0.341
	c0-0.065,0.017-0.144,0.051-0.241l0.038-0.101l0.107,0.003c0.348,0.006,0.589-0.1,0.79-0.346l0.071-0.086l0.144,0.063l0.272,0.108
	c0,0,0.071,0.031,0.132,0.053v-0.003c0-0.176,0.022-0.399,0.244-0.454l0.119-0.032l0.057,0.114c0.057,0.121,0.169,0.187,0.263,0.275
	c0.027-0.11,0.084-0.208,0.23-0.227l0.196-0.028c0,0-0.053,0.427-0.053,0.431c0-0.013,0.187-0.013,0.187-0.013l0.387,0.018
	l0.295,0.273l0.222,0.256l-0.084,0.15l-0.046,0.043l0.02,0.065c0.013,0.053,0.035,0.123,0.035,0.208
	c0,0.017-0.017,0.039-0.022,0.062c0.061,0,0.131-0.008,0.131-0.008l0.188,0.313c0,0,0.005,0.017,0.008,0.032
	c0.029-0.017,0.055-0.043,0.09-0.047c0.146-0.014,0.283,0.086,0.311,0.24l0.031,0.16l-0.159,0.027
	c-0.115,0.022-0.188,0.095-0.272,0.194l-0.421,0.409v-0.012c-0.038,0.156-0.069,0.268-0.084,0.324
	c0.032,0.311,0.138,0.536,0.32,0.67l-0.103,0.287l-0.405-0.095c-0.089-0.025-0.22-0.054-0.326-0.079
	c-0.011,0.081-0.048,0.151-0.086,0.204c0.004,0,0.029-0.009,0.029-0.009c0.153-0.062,0.33-0.136,0.492-0.062l0.474,0.556
	l-0.446-0.115c-0.184-0.028-0.235,0.004-0.25,0.02c-0.041,0.033-0.031,0.174-0.022,0.273c0.006,0.168,0.025,0.381-0.145,0.484
	l-0.232,0.148v-0.321c-0.089,0.009-0.17,0-0.236-0.033c-0.002,0.137-0.14,0.183-0.334,0.245c0,0-0.089,0.029-0.147,0.051
	c0.012,0.058,0.183,0.719,0.183,0.719l-0.295-0.133l-0.185-0.054c-0.047,0-0.085-0.017-0.128-0.029
	c0.033,0.035,0.07,0.073,0.104,0.1l0.527,0.537l-0.571-0.149l-0.141-0.035c0,0,0.001,0,0.001,0.003c0,0.018-0.023,0.104-0.023,0.104
	l-0.167,0.315l-0.545,0.044l0.133-0.181c0,0,0.021-0.052,0.043-0.105c-0.273,0.158-0.534,0.391-0.546,0.535
	c0,0.004-0.004,0.005-0.004,0.01c0,0.019,0.013,0.051,0.082,0.097l-0.082,0.297c-0.079-0.004-0.113,0.03-0.18,0.105l-0.25,0.16
	c0,0-0.063-0.032-0.106-0.059c-0.065,0.137-0.194,0.213-0.277,0.234c0,0-0.024,0.012-0.051,0.018
	c0.004,0.027,0.018,0.06,0.018,0.082c0,0.222-0.149,0.314-0.237,0.371c-0.059,0.039-0.085,0.056-0.085,0.101
	c0,0.03,0.007,0.063,0.024,0.114c0,0,0.04,0.133,0.079,0.257c0.008,0.003,0.023,0.025,0.023,0.025
	c-0.002,0.009-0.002,0.014-0.011,0.021c0.044,0.129,0.075,0.233,0.086,0.26c0.019,0.022,0.026,0.037,0.052,0.063
	c0.102,0.123,0.238,0.29,0.249,0.495c0.072-0.102,0.187-0.217,0.451-0.158l0.033,0.016l0.027,0.019
	c0.133,0.108,0.189,0.108,0.329-0.001l0.11-0.088l0.095,0.104c0.148,0.16,0.179,0.399,0.179,0.663v0.053
	c0.013-0.002,0.51-0.136,0.51-0.136l-0.013,0.122l0.143,0.417c0.049,0.192,0.095,0.378,0.2,0.458
	c0.016-0.006,0.018-0.023,0.04-0.023c0.311,0.09,0.586,0.24,0.783,0.475c0.019-0.005,0.026-0.021,0.041-0.028
	c0.1-0.009,0.213,0.05,0.244,0.216l0.021,0.115l-0.056,0.02c0,0-0.098,0.05-0.178,0.091c0.073,0.019,0.148,0.043,0.197,0.128
	l0.062,0.068c0.021-0.064,0.1-0.131,0.202-0.094c0.107,0.038,0.133,0.16,0.141,0.204l0.032,0.159c0,0-0.099,0.016-0.149,0.021v0.043
	l-0.023,0.272c0,0.002-0.01,0.009-0.014,0.015c0.071,0.035,0.139,0.088,0.201,0.144c0.071,0.069,0.167,0.165,0.228,0.162l0.507-0.39
	l-0.138,0.455c-0.008,0.036,0.038,0.133,0.073,0.191c0.053,0.113,0.126,0.248,0.068,0.396c-0.039,0.084-0.12,0.15-0.244,0.185
	l-0.221,0.063l0.032-0.266l0.016-0.161c-0.015-0.026-0.108-0.049-0.169-0.058c0,0-0.031-0.02-0.043-0.026
	c-0.013,0.116-0.035,0.231-0.064,0.316c0.023,0.003,0.042,0.008,0.069,0.028c0.047,0.033,0.063,0.075,0.063,0.121
	c0,0.061-0.033,0.133-0.067,0.198c-0.057,0.113-0.057,0.149-0.089,0.22c0.114-0.02,0.217-0.023,0.301,0.043
	c0.161,0.118,0.167,0.364,0.156,0.58l-0.013,0.217l-0.15-0.069c0,0-0.024-0.009-0.03-0.011c0.012,0.011,0.194,0.182,0.194,0.182
	l-0.229,0.086l-0.12,0.068v0.013c0,0.056-0.019,0.201-0.037,0.325c0.011,0.007,0.028,0.008,0.037,0.014
	c0.083,0.076,0.096,0.189,0.096,0.286v0.036c0,0,0,0.023,0.001,0.047c0.015-0.005,0.05-0.014,0.05-0.014s0.025-0.006,0.034-0.01
	c-0.004-0.002-0.005-0.008-0.005-0.023c0-0.02,0.005-0.044,0.005-0.044c0.018-0.095,0.049-0.3,0.247-0.333l0.137-0.022l0.038,0.136
	c0.021,0.078,0.026,0.146,0.026,0.209c0,0.217-0.11,0.32-0.191,0.399c-0.063,0.056-0.089,0.087-0.09,0.147
	c0.029,0.012,0.07,0.027,0.07,0.027c0.108,0.034,0.331,0.096,0.331,0.36c0,0.041-0.002,0.089-0.016,0.142l-0.054,0.209l-0.131-0.097
	L142.123,34c-0.064-0.065-0.106-0.105-0.195-0.1c-0.064,0.469-0.128,0.967-0.128,1.525c0,0.132,0.005,0.27,0.013,0.408
	c0.056,0.055,0.872,0.894,0.872,0.894h-1.4c0,0.034-0.003,0.07-0.003,0.103c0,0.412,0.115,0.707,0.26,1.01l0.141,0.307l-0.319-0.089
	c-0.173-0.043-0.194-0.002-0.268,0.132c-0.068,0.135-0.193,0.34-0.519,0.293c-0.041,0.098-0.084,0.203-0.084,0.203
	s-0.061,0.008-0.108,0.018v0.289c0.168,0.041,0.309,0.135,0.378,0.328l0.015,0.043l-0.02,0.084l-0.043,0.258
	c0.006,0.025,0.01,0.056,0.01,0.088c0,0.082-0.027,0.179-0.162,0.257l-0.096,0.052l-0.08-0.076
	c-0.106-0.099-0.126-0.224-0.126-0.332c0-0.031,0.002-0.064,0.002-0.097c0-0.03,0.007-0.056,0.007-0.075
	c0-0.064-0.038-0.087-0.095-0.105c-0.054,0.1-0.194,0.359-0.194,0.359l-0.428,0.75c0,0-0.06-0.141-0.086-0.219
	c-0.051,0.145-0.123,0.325-0.306,0.293l-0.033-0.004l-0.036-0.025c-0.126-0.096-0.205-0.082-0.438-0.037
	c0,0-0.219,0.029-0.363,0.053c-0.004,0.136-0.015,0.389-0.26,0.421c-0.215,0-0.299-0.136-0.351-0.214
	c-0.024-0.036-0.036-0.036-0.05-0.049c-0.016,0.078-0.048,0.153-0.114,0.203c-0.132,0.09-0.283,0.025-0.43-0.033
	c-0.154-0.059-0.308-0.121-0.437-0.059c0.026,0.075,0.053,0.141,0.053,0.204c0,0.038-0.007,0.069-0.03,0.106
	c-0.04,0.063-0.129,0.065-0.204,0.078c-0.004,0.019-0.007,0.045-0.007,0.067c0,0.147,0.033,0.222,0.07,0.286l0.101,0.468h-0.122
	c-0.042,0.019-0.088,0.024-0.183-0.021c0.003,0.023,0.006,0.057,0.006,0.057s-0.003,0.088-0.006,0.161
	c0.03-0.009,0.472-0.126,0.472-0.126l0.008,0.053c0.201,0.161,0.349,0.161,0.567,0.159c0,0,0.253,0.032,0.454,0.054
	c-0.02-0.093-0.023-0.201-0.062-0.257l-0.332-0.413c0,0,0.526,0.178,0.544,0.18c0-0.02,0.002-0.039,0.002-0.039
	c0-0.012-0.002-0.02-0.002-0.032c0-0.099,0.012-0.212,0.098-0.293c0.039-0.037,0.113-0.074,0.221-0.058l0.119,0.019l0.012,0.128
	c0.003,0.05,0.005,0.102,0.005,0.148c0,0.545-0.232,0.855-0.442,1.139c0.103,0.078,0.186,0.214,0.186,0.467v0.006
	c0.08,0.02,0.16,0.041,0.16,0.041c0.146,0.049,0.276,0.084,0.463,0.07c0.013-0.102,0.049-0.271,0.253-0.278
	c0.291,0.071,0.35,0.003,0.46-0.124l0.384-0.434c0,0-0.014,0.189-0.023,0.32c0.059-0.174,0.227-0.266,0.38-0.346
	c0.18-0.094,0.283-0.166,0.316-0.296c-0.095-0.121-0.191-0.17-0.3-0.212c-0.158-0.053-0.344-0.117-0.447-0.441v-0.008
	c0-0.035-0.008-0.328-0.008-0.328s0.002-0.063,0.002-0.119c-0.082-0.006-0.182-0.019-0.242-0.113
	c-0.013-0.022-0.026-0.063-0.026-0.109c0-0.027,0.004-0.066,0.018-0.102c0.136-0.153,0.261-0.198,0.389-0.182
	c0.154,0.018,0.303,0.122,0.403,0.293l0.097,0.16l-0.184,0.076c0.009,0.016,0.018,0.032,0.018,0.032
	c0.041,0.069,0.082,0.176,0.105,0.288c0.01-0.019,0.021-0.012,0.036-0.051c0.041-0.108,0.101-0.27,0.29-0.308
	c0.308,0.009,0.385,0.231,0.431,0.364c0.013,0.025,0.019,0.033,0.024,0.052c0.029-0.106,0.065-0.183,0.157-0.278l0.087-0.09
	c0.194-0.214,0.266-0.521,0.314-0.824c-0.134-0.004-0.334-0.029-0.354-0.256c0.045-0.273,0.22-0.359,0.345-0.426l0.246-0.126
	l-0.028,0.281c-0.003,0.022-0.003,0.043-0.003,0.06c0,0.065,0.017,0.11,0.038,0.135c0.01,0.01,0.036,0.01,0.051,0.012
	c0-0.036-0.003-0.081-0.003-0.081c-0.006-0.065-0.012-0.132-0.012-0.198c0-0.123,0.022-0.244,0.114-0.318
	c0.051-0.041,0.112-0.058,0.183-0.061c-0.006-0.064-0.035-0.102-0.093-0.154c-0.08-0.078-0.194-0.185-0.194-0.4
	c0-0.026,0.002-0.065,0.008-0.1l0.028-0.187l0.171,0.062c0.145,0.043,0.155,0.028,0.209-0.07c0.058-0.088,0.15-0.237,0.369-0.236
	c0-0.034,0.012-0.055,0.023-0.084c-0.043,0.02-0.083,0.038-0.157,0.027l-0.106-0.021l-0.017-0.107
	c-0.055-0.322-0.011-0.562,0.136-0.713c0.121-0.121,0.296-0.168,0.53-0.152c-0.009-0.104-0.06-0.148-0.144-0.221
	c-0.11-0.086-0.266-0.215-0.266-0.48c0-0.025,0-0.055,0.004-0.08l0.034-0.313l0.164,0.176l0.231,0.224
	c0.036,0.067,0.059,0.081,0.115,0.069c0.003-0.01,0.011-0.029,0.011-0.037c0-0.038-0.022-0.053-0.078-0.081l-0.383-0.443h0.277
	c0.105-0.03,0.176-0.073,0.215-0.141c0.087-0.158,0.013-0.438-0.039-0.644l-0.085-0.33l0.233,0.043
	c0.072,0.014,0.08,0.004,0.13-0.078c0,0,0.037-0.036,0.07-0.076c-0.023-0.092-0.048-0.184-0.048-0.254
	c0-0.094,0.015-0.172,0.024-0.242c0.004-0.012,0.004-0.018,0.005-0.032c-0.094,0.104-0.206,0.194-0.33,0.197
	c-0.06,0-0.211-0.022-0.282-0.244l-0.051-0.162l0.206-0.045l0.138-0.037c0.056-0.056,0.072-0.188,0.079-0.337
	c-0.035,0.118-0.104,0.32-0.376,0.287l-0.145-0.018l0.012-0.153v-0.039c0-0.104-0.042-0.165-0.104-0.247
	c-0.07-0.102-0.159-0.229-0.159-0.441c0-0.021,0-0.047,0.001-0.072l0.018-0.146h0.136c0.024,0,0.032,0,0.076-0.069
	c0.049-0.074,0.138-0.195,0.32-0.207c0-0.059-0.038-0.444-0.038-0.444l0.165,0.055h0.228c-0.017-0.219-0.112-0.345-0.243-0.493
	l-0.272-0.373l0.003-0.06l-0.126-0.397c-0.051-0.132-0.094-0.238-0.094-0.324c0-0.061,0.016-0.108,0.071-0.146
	c0.026-0.027,0.06-0.033,0.096-0.036c-0.036-0.045-0.076-0.087-0.129-0.131l-0.22-0.244l0.01-0.036
	c-0.001-0.027-0.001-0.055-0.001-0.084c0-0.162,0.064-0.27,0.119-0.385c-0.342-0.193-0.416-0.629-0.474-1.027
	c0,0-0.005-0.037-0.008-0.054c-0.058,0.005-0.108,0-0.165-0.039c-0.11-0.073-0.116-0.2-0.116-0.308c0-0.008,0-0.016,0.001-0.023
	c-0.016,0.006-0.024,0.022-0.04,0.022c-0.089,0.007-0.201-0.054-0.228-0.226c-0.103-0.613-0.381-0.901-0.897-0.933l-0.132-0.01
	l0.011-0.064l-0.018-0.309c0,0,0-0.015,0.004-0.019c-0.092,0.01-0.175,0.01-0.229-0.053c-0.041-0.037-0.056-0.086-0.056-0.139
	c0-0.044,0.009-0.088,0.021-0.127c-0.048,0-0.159-0.01-0.244-0.16c0-0.008-0.062-0.198-0.106-0.336
	c-0.166-0.02-0.437-0.083-0.553-0.348l-0.068-0.152l0.389-0.153c0.438-0.156,0.716-0.279,0.716-0.717
	c0-0.033-0.003-0.066-0.005-0.098l-0.016-0.2l0.188,0.031c0.108,0.016,0.138-0.012,0.21-0.093c0.076-0.089,0.197-0.213,0.433-0.196
	c0.021-0.085,0.044-0.18,0.044-0.18c0.024-0.204,0.064-0.425,0.237-0.558c-0.004-0.024-0.006-0.043-0.006-0.062
	c0-0.131,0.028-0.269,0.144-0.352c0,0,0.162-0.021,0.198-0.026c-0.014-0.098-0.057-0.204-0.097-0.273l-0.276-0.501l0.511,0.275
	c0.071,0.048,0.123,0.071,0.161,0.088c-0.001-0.008-0.001-0.021-0.001-0.031c0-0.098,0.079-0.16,0.145-0.208
	c-0.079-0.085-0.129-0.175-0.129-0.266c0-0.064,0.012-0.133,0.033-0.204c0,0,0.013-0.112,0.026-0.207
	c-0.103-0.019-0.241-0.059-0.241-0.256v-0.171c0,0,0.279,0.021,0.289,0.026c-0.023-0.007-0.066-0.222-0.066-0.222
	c-0.029-0.089-0.056-0.17-0.056-0.249c0-0.053,0.015-0.107,0.057-0.149c0.029-0.036,0.101-0.09,0.222-0.06l0.192,0.085
	c0.063,0.04,0.109,0.063,0.186,0.058c0.031-0.072,0.067-0.157,0.067-0.157c0.067-0.161,0.1-0.253,0.1-0.309
	c0-0.029-0.006-0.053-0.027-0.066l-0.102-0.089l0.05-0.16c0.058-0.094,0.179-0.115,0.294-0.107c0.031-0.211,0.094-0.584,0.094-0.584
	l-0.158-0.463l0.061-0.017c0.02-0.036,0.058-0.118,0.09-0.202c-0.027,0.007-0.046,0.034-0.076,0.04
	c-0.146,0.006-0.277-0.092-0.304-0.248l-0.021-0.115c0,0,0.134-0.058,0.15-0.069c0.046-0.089,0.118-0.184,0.229-0.24
	c-0.034-0.348-0.196-0.566-0.406-0.789l-0.219-0.233c0,0,0.091-0.024,0.175-0.044c-0.002-0.002-0.007,0-0.009-0.002
	c-0.071-0.038-0.09-0.122-0.095-0.209c-0.023,0.032-0.054,0.059-0.1,0.068c0.006,0.035,0.021,0.078,0.021,0.118
	c0,0.085-0.021,0.17-0.069,0.243c-0.078,0.113-0.211,0.177-0.405,0.197l-0.247,0.022l0.093-0.238
	c0.12-0.324,0.148-0.552,0.171-0.784c-0.043,0.03-0.088,0.046-0.115,0.053l-0.204,0.07c0,0,0.005-0.121,0.011-0.201
	c-0.044,0.003-0.092,0.011-0.092,0.011c-0.136,0.019-0.291,0.045-0.386-0.068c-0.028-0.033-0.06-0.086-0.06-0.166
	c0-0.029,0.002-0.064,0.016-0.098l0.026-0.088c0,0-0.081,0.043-0.225,0.042c0.018,0.089,0.058,0.183,0.151,0.31l0.312,0.596
	c0,0-0.088,0.004-0.161,0.005c0.023,0.026,0.047,0.054,0.047,0.054c0.07,0.07,0.201,0.198,0.201,0.349
	c0,0.065-0.023,0.135-0.087,0.209l-0.063,0.077l-0.099-0.029c-0.187-0.055-0.286-0.195-0.331-0.376
	c-0.026,0.007-0.058,0.013-0.058,0.013c-0.056,0.029-0.145,0.073-0.235,0.031c-0.093-0.042-0.122-0.144-0.13-0.176l-0.025-0.089
	l0.065-0.064c0.068-0.078,0.103-0.158,0.103-0.249c0-0.17-0.103-0.367-0.241-0.602c0,0-0.052-0.107-0.104-0.206
	C140.571,15.375,140.384,15.413,140.384,15.413"/>
<path fill="#FFFFFF" d="M113.537,28.17l0.03,0.115v0.002c0,0.008,0.075-0.082,0.075-0.082c-0.049-0.035-0.088-0.074-0.128-0.119
	C113.523,28.115,113.532,28.146,113.537,28.17 M106.771,23.785c0,0,0.056-0.043,0.111-0.078c-0.056-0.019-0.253-0.089-0.253-0.089
	L106.771,23.785z M114.979,14.991c-0.011,0.119-0.03,0.28-0.03,0.28c-0.06,0.184-0.112,0.357-0.112,0.5
	c0,0.099,0.028,0.177,0.094,0.228l-0.098,0.288c0,0-0.146-0.059-0.205-0.083c-0.005,0.174-0.07,0.306-0.117,0.386
	c0.021,0.017,0.053,0.033,0.053,0.033l0.033,0.208c0,0.007-0.163,0.204-0.163,0.204l-0.11,0.109
	c-0.06,0.143-0.096,0.343-0.096,0.522c0,0.093,0.032,0.156,0.057,0.231c0.074,0.01,0.159,0.059,0.187,0.207l0.027,0.149
	l-0.146,0.034c-0.287,0.068-0.404,0.336-0.404,0.934c0,0.078,0.001,0.157,0.006,0.24v0.076l-0.054,0.051
	c-0.22,0.196-0.278,0.437-0.278,0.709c0,0.142,0.017,0.301,0.033,0.464l0.05,0.765l-0.205-0.033l-0.069-0.009v0.006
	c0,0.033-0.022,0.189-0.022,0.189c0,0.15-0.008,0.322-0.132,0.425c0,0-0.047,0.008-0.081,0.016c0.019,0.087,0.034,0.174,0.034,0.174
	c0,0.218-0.173,0.313-0.248,0.36l-0.028,0.011h-0.081l-0.283,0.035l-0.1-0.087l-0.045-0.054c-0.184-0.049-0.265-0.005-0.373,0.048
	l-0.369,0.093l-0.397-0.153l-0.267-0.116c-0.013,0.025-0.243,0.133-0.243,0.133l-0.067,0.034l-0.016-0.064l-0.194-0.103
	c-0.858-0.118-1.904-0.211-2.144-0.14l-0.329,0.013l-0.104-0.008l-0.358-0.028c0.001-0.006-0.128,0.023-0.128,0.023
	c-0.347,0.093-0.958,0.027-1.098,0.005l-0.249-0.044c-0.045-0.008-0.071,0-0.071,0l-0.146,0.039c-0.177,0.05-0.604,0.09-0.773-0.084
	c-0.062-0.064-0.087-0.153-0.062-0.241c0,0.007,0.09-0.355,0.09-0.355c0.094-0.323,0.136-0.469-0.076-0.864l-0.175-0.322l0.438,0.12
	c-0.02-0.042,0.135-0.296,0.135-0.296s0.046,0.003,0.061,0.003v-0.016l-0.084-0.497c0,0.003,0.131-0.324,0.131-0.324
	c-0.071-0.035-0.137-0.104-0.137-0.197c0-0.018,0.006-0.04,0.01-0.056c0-0.003,0.157-0.19,0.157-0.19s0.103-0.101,0.11-0.109
	c-0.008-0.001-0.008-0.077-0.008-0.077l-0.003-0.131l0.122-0.289c0-0.016-0.065-0.262-0.065-0.262s-0.054-0.275-0.054-0.277
	c0,0.002,0.151-0.199,0.151-0.199c0.064-0.05,0.099-0.073,0.104-0.171l-0.033-0.06c-0.042-0.053-0.104-0.136-0.104-0.27
	c0-0.03,0.002-0.059,0.009-0.095l0.168-0.268c0.039-0.047,0.046-0.063,0.065-0.094c-0.141-0.002-0.341-0.03-0.364-0.256
	l-0.024-0.201l0.192,0.025c0.094,0.011,0.115,0.015,0.156-0.251c0,0,0.014-0.07,0.034-0.13c-0.13-0.033-0.231-0.082-0.313-0.137
	c-0.076-0.056-0.15-0.089-0.243-0.1c0,0.171-0.049,0.3-0.085,0.401c-0.029,0.073-0.045,0.112-0.045,0.151
	c0,0.037,0.018,0.066,0.061,0.107l-0.164,0.261c0,0-0.021-0.005-0.036-0.009c-0.002,0.023-0.002,0.045-0.002,0.045v0.037
	c0,0.098-0.009,0.212-0.095,0.285c-0.002,0.001-0.014,0.001-0.016,0.005c0.009,0.055,0.039,0.118,0.039,0.157
	c0,0.067-0.016,0.127-0.022,0.175c-0.008,0.039-0.013,0.064-0.013,0.096c0,0.048,0.017,0.095,0.069,0.174l0.099,0.139
	c0,0-0.183,0.091-0.207,0.106c-0.022,0.063-0.061,0.125-0.103,0.177c0.048,0.029,0.091,0.081,0.107,0.177l0.022,0.111
	c0,0-0.147,0.063-0.154,0.075c-0.047,0.086-0.115,0.174-0.218,0.23c0.014,0.06,0.054,0.134,0.054,0.192
	c0,0.159-0.059,0.296-0.104,0.413c-0.043,0.106-0.083,0.197-0.083,0.291c0,0.073,0.024,0.15,0.075,0.235l0.104,0.188l-0.245,0.057
	l-0.078,0.017c-0.081,0.075-0.086,0.33-0.093,0.534l-0.066,0.545c-0.004,0.002-0.184,0.27-0.219,0.324
	c0.054,0.053,0.104,0.125,0.104,0.24c0,0.029-0.007,0.059-0.013,0.093c-0.026,0.098-0.113,0.129-0.216,0.166
	c0,0-0.016,0.006-0.036,0.014c0.006,0.065,0.036,0.107,0.095,0.154l0.134,0.252l-0.219,0.421l-0.105-0.106
	c-0.16-0.083-0.421-0.071-0.702-0.062c-0.296,0.013-0.632,0.024-0.962-0.061l-0.19-0.167c0,0-0.08-0.091-0.091-0.105
	c0,0.019-0.115,0.062-0.115,0.062l-0.223,0.079l-0.16-0.081c-0.044-0.037-0.073-0.05-0.103-0.058
	c-0.004,0.087-0.019,0.198-0.111,0.254l-0.229,0.148l-0.064-0.284v-0.212c-0.335,0.065-3.354,0.637-3.354,0.637l-0.892,0.152
	c0,0-0.018-0.05-0.028-0.098c-0.053,0.017-0.103,0.029-0.162-0.003c-0.06-0.032-0.1-0.091-0.116-0.178v-0.003
	c0-0.065,0.09-0.914,0.09-0.914c0.042-0.484,0.081-0.946,0.177-1.179c0.084-0.216,0.115-0.527,0.145-0.832l0.111-0.757
	c0.018-0.086,0.096-0.112,0.2-0.155l0.103-0.047c0.015-0.053,0.082-0.564,0.082-0.671v-0.007c-0.008-0.087-0.067-0.855-0.516-0.923
	c0.008,0,0.01,0.01,0.01,0.023c0,0.027-0.015,0.069-0.015,0.069c-0.024,0.074-0.087,0.188-0.204,0.253
	c0.004,0.047,0.018,0.102,0.018,0.148c0,0.341-0.133,0.607-0.247,0.834c-0.093,0.182-0.173,0.336-0.173,0.501
	c0,0.104,0.031,0.212,0.109,0.338l0.11,0.176l-0.198,0.06c-0.143,0.04-0.216,0.312-0.254,0.455L95.84,20.06
	c-0.046,0.116-0.061,0.194-0.061,0.264c0,0.059,0.015,0.115,0.029,0.177l0.043,0.454l-0.072,0.463
	c-0.049,0.246-0.09,0.502-0.09,0.756c0,0.113,0.009,0.224,0.028,0.336l0.011,0.057l-0.028,0.05
	c-0.153,0.292-0.488,0.331-0.779,0.361l-0.446,0.1c0,0.007-0.041,0.103-0.041,0.103c-0.039,0.112-0.097,0.289-0.271,0.319
	l-0.205,0.035l0.038-0.314c-0.029-0.015-0.198,0.001-0.288,0.013c0,0-0.081-0.003-0.157-0.003c0.015,0.056,0.026,0.117,0.066,0.175
	c0,0,0.057,0.117,0.099,0.208c0.043,0.013,0.087,0.02,0.114,0.05c0.039-0.037,0.08-0.065,0.147-0.074l0.15-0.028l0.027,0.153
	c0.019,0.114,0.125,0.145,0.41,0.186c0,0,0.082,0.02,0.156,0.039c-0.014-0.037-0.039-0.08-0.039-0.126
	c0-0.029,0.004-0.057,0.023-0.082c0.038-0.101,0.133-0.13,0.164-0.139l0.102-0.031l0.105,0.139c0.048-0.06,0.131-0.113,0.23-0.074
	c0.104,0.042,0.135,0.166,0.15,0.212l0.007,0.034c0,0-0.323,1.678-0.371,1.891c0.099,0.02,0.229,0.064,0.237,0.246l0.007,0.189
	l-0.183-0.029c-0.062-0.008-0.092,0-0.096,0.004c-0.007,0.006-0.019,0.031-0.019,0.088c0,0.178,0.104,0.427,0.129,0.464l0.06,0.09
	l-0.035,0.04l-0.15,0.199c-0.061,0.049-0.098,0.078-0.104,0.173c0,0.03,0.015,0.097,0.015,0.097l0.017,0.053l0.034,0.097
	l-0.092,0.237c0.008-0.017,0.077,0.119,0.077,0.119l0.107,0.258l-0.086,0.07l-0.072,0.141c0,0.006-0.094,0.433-0.094,0.433
	l-0.041,0.132l-0.084,0.528l0.043,0.364c0,0,0.012,0.068,0.025,0.136c0.057,0.007,0.123,0.041,0.184,0.097
	c0.057-0.014,0.141-0.031,0.141-0.031c0.099-0.063,0.191-0.035,0.293,0.017c0.041-0.026,0.082-0.037,0.132-0.041v-0.024
	c0.024-0.057,0.084-0.104,0.151-0.138c0.009-0.077,0.02-0.165,0.02-0.165l0.105-0.443c0.19-0.517,0.205-1.377,0.205-2.289v-0.328
	l0.047-1.349l0.072-0.232l0.055-0.173l-0.031-0.063l-0.117-0.356l0.039-0.025l0.119-0.38l0.016-0.085
	c0.038-0.17,0.082-0.363,0.35-0.424l0.05-0.014l0.046,0.016c0.246,0.099,0.411,0.101,0.709,0.105c0,0,0.24,0.01,0.401,0.017
	c0.009-0.091,0.031-0.169,0.102-0.21c0.102-0.063,0.197-0.007,0.257,0.03l0.155,0.046l0.412-0.094c0,0-0.022,0.104-0.047,0.191
	c0.06-0.029,0.104-0.067,0.161-0.119c0.115-0.107,0.264-0.242,0.528-0.242c0.159,0.014,0.22,0.108,0.258,0.188
	c0.013-0.139,0.05-0.294,0.239-0.319l0.07-0.01l0.068,0.055c0,0,0.091,0.08,0.096,0.082c0-0.014,0.064-0.099,0.064-0.099
	c0.072-0.107,0.167-0.256,0.345-0.294l0.284-0.065l-0.1,0.229l-0.095,0.242c0.217,0.005,0.703,0.016,0.703,0.016
	c0.532-0.021,1.077-0.021,1.486,0.378c0.122,0.002,0.191-0.045,0.284-0.11l0.298-0.155l0.146,0.265l-0.004,0.002
	c0.134,0.033,0.26,0.084,0.305,0.249c0.011,0.033,0.016,0.066,0.016,0.095c0,0.141-0.102,0.236-0.149,0.278
	c-0.009,0-0.07,0.428-0.07,0.428l-0.063,0.49c0,0.007-0.144,0.197-0.144,0.197l-0.108,0.186c-0.004,0.001-0.004,0.248-0.004,0.248
	l0.004,0.342l-0.043,0.022c-0.243,0.256-0.28,0.582-0.28,0.959c0,0.078,0.004,0.156,0.004,0.235c0,0.086,0.002,0.171,0.002,0.255
	c0,0.244-0.012,0.498-0.078,0.752l-0.015,0.346l0.02,0.432c0,0.005-0.131,0.536-0.131,0.536s-0.049,0.185-0.082,0.343
	c0.199-0.016,0.318,0.176,0.367,0.258l0.034,0.057c0.099,0.006,0.153-0.051,0.157-0.057c0,0,0.17,0.131,0.213,0.168
	c0.173,0.002,0.322-0.014,0.424-0.072c-0.025-0.125-0.049-0.254-0.049-0.373c0-0.236,0.037-0.459,0.075-0.659
	c0.032-0.187,0.06-0.357,0.06-0.515c0-0.188-0.039-0.367-0.174-0.541l-0.212-0.283l0.365,0.031
	c-0.007-0.025-0.025-0.049-0.025-0.076c0-0.035,0.008-0.075,0.032-0.109c0.035-0.053,0.099-0.057,0.161-0.07
	c-0.017-0.06-0.029-0.115-0.029-0.16c0-0.08,0.032-0.139,0.123-0.225c0,0,0.03-0.029,0.062-0.059
	c-0.054-0.135-0.105-0.27-0.105-0.398c0-0.316,0.132-0.618,0.257-0.893c0.125-0.27,0.231-0.514,0.231-0.761
	c0-0.118-0.026-0.236-0.089-0.355l-0.121-0.234h0.346c-0.015-0.126-0.028-0.264-0.028-0.264l-0.1-0.435l0.095-0.085
	c0.456-0.249,0.599-0.254,0.987-0.175c0.048-0.178,0.202-0.255,0.292-0.279l0.187-0.074l0.109-0.009l0.189,0.141
	c0.159,0.123,0.181,0.134,0.279,0.029c0,0,0.231,0.083,0.253,0.089c0.008-0.004,0.038-0.025,0.038-0.025
	c0.106-0.05,0.174-0.085,0.203-0.149l0.291,0.081c0,0-0.003,0.08-0.003,0.109c0.016-0.027,0.099-0.059,0.099-0.059
	c0.118-0.05,0.266-0.11,0.377-0.008c0.039,0.038,0.044,0.084,0.049,0.136c0.335-0.089,0.655,0.004,0.919,0.114
	c0.126,0.051,0.233,0.072,0.343,0.096c0,0-0.008-0.006-0.008-0.012v-0.135l0.131-0.022c0.563-0.084,0.86,0.119,1.126,0.296
	c0,0,0.353,0.172,0.438,0.216c0.119-0.088,0.275-0.088,0.392-0.078c0,0,0.114-0.004,0.159-0.006
	c0.007-0.101,0.018-0.196,0.095-0.253c0.04-0.032,0.101-0.062,0.197-0.038l0.046,0.015l0.034,0.037
	c0.056,0.069,0.088,0.068,0.225,0.021c0.061-0.021,0.138-0.05,0.229-0.05c-0.007-0.025-0.021-0.041-0.021-0.066
	c0-0.029,0.006-0.057,0.017-0.082c0.039-0.101,0.137-0.13,0.17-0.139l0.073-0.024l0.062,0.046c0.146,0.109,0.19,0.24,0.19,0.365
	c0,0.13-0.04,0.247-0.072,0.344c0,0-0.034,0.133-0.046,0.184c0.05,0.046,0.123,0.131,0.123,0.276c0,0.015,0,0.029-0.003,0.044
	c0,0.002-0.205,0.771-0.205,0.771s-0.162,0.586-0.177,0.646c0.06,0.051,0.128,0.121,0.128,0.254c0,0.027-0.003,0.051-0.007,0.078
	c0,0.002-0.113,0.172-0.113,0.172l-0.018,0.06l0.041,0.101l0.091,0.312l-0.086,0.271l0.086,0.079l-0.004,0.177
	c-0.021,0.039-0.072,0.045-0.118,0.072c0.01,0.049,0.021,0.104,0.021,0.104l0.038,0.224c0,0.147-0.074,0.229-0.136,0.271
	c-0.039,0.021-0.407,0.002-0.407,0.002l-0.187-0.36c0,0-0.006-0.024-0.01-0.037c-0.016,0.215-0.038,0.458-0.038,0.458
	c-0.023,0.15-0.048,0.311-0.048,0.432c0,0.094,0.016,0.172,0.056,0.217c0.059,0.066,0.198,0.092,0.403,0.072l0.168-0.015v0.509
	c0.048-0.006,0.101-0.021,0.146-0.018c-0.031-0.047-0.065-0.088-0.065-0.135c0-0.027,0.003-0.053,0.003-0.069l0.01-0.08
	c0,0,0.1-0.043,0.128-0.054c0.052-0.119,0.1-0.237,0.239-0.271c0,0,0.084,0.016,0.161,0.03c0.017-0.076,0.046-0.154,0.082-0.214
	c-0.093-0.053-0.239-0.146-0.239-0.29c0-0.027,0.007-0.065,0.022-0.101l0.026-0.063l0.064-0.024c0.04-0.017,0.082,0.007,0.126,0.013
	c-0.021-0.084-0.063-0.152-0.188-0.291l-0.153-0.168l0.208-0.088c0.107-0.041,0.266-0.098,0.401-0.021
	c0.031,0.021,0.048,0.055,0.07,0.082c-0.017-0.047-0.049-0.087-0.049-0.15V27.74l0.026-0.291l0.244,0.196
	c-0.001-0.063-0.003-0.127-0.003-0.127l-0.036-0.126l0.015-0.279l0.023-0.076l0.109-0.828c0.015-0.243,0.04-0.494,0.109-0.741
	c-0.1-0.024-0.225-0.069-0.225-0.253v-0.161l0.152,0.002c0.051,0,0.067,0,0.111-0.203c0.02-0.126,0.065-0.336,0.239-0.42
	c-0.012-0.133-0.029-0.259-0.08-0.32l-0.261-0.332l0.407,0.074c0.124,0.022,0.138-0.002,0.188-0.08
	c0.04-0.073,0.129-0.228,0.335-0.185c0,0,0.019,0.003,0.037,0.006c0.017-0.099,0.053-0.197,0.152-0.259
	c0.098-0.054,0.215-0.059,0.354-0.008l0.129,0.045l-0.045,0.219c0.024,0.034,0.219,0.048,0.333,0.003l0.069-0.073l0.213-0.233
	l0.045,0.03h0.442c0.266-0.01,0.526-0.002,0.737,0.071c0.028-0.098,0.074-0.197,0.232-0.206l0.084-0.004l0.05,0.072
	c0.025,0.037,0.028,0.046,0.157,0.01c0.111-0.029,0.278-0.032,0.45,0.037c0.091-0.086,0.223-0.121,0.349-0.119
	c-0.018-0.05-0.044-0.102-0.044-0.164c0-0.022,0.008-0.044,0.018-0.074c0.041-0.11,0.161-0.142,0.21-0.154l0.101-0.029
	c0,0,0.067,0.109,0.075,0.112c0-0.009,0.057-0.035,0.057-0.035c0.065-0.036,0.156-0.083,0.252-0.041
	c0.009,0.005,0.153,0.182,0.153,0.182l0.048,0.084c0.021-0.125,0.13-0.314,0.409-0.278c0.12,0.021,0.141,0.132,0.152,0.199
	l0.035,0.127c-0.005-0.046,0.064-0.08,0.064-0.08l0.964-0.312l-0.037,0.234v0.028c0,0.079,0.037,0.129,0.068,0.189
	c0.045-0.012,0.1-0.03,0.1-0.03l0.164-0.085l0.051,0.014l0.292-0.001l0.038,0.015l0.101,0.163l0.056,0.132
	c0,0,0.008-0.003,0.012-0.004c0.03-0.144,0.126-0.64,0.126-0.64c0.066-0.261,0.138-0.509,0.138-0.824
	c0-0.055-0.011-0.118-0.014-0.182c-0.506-0.215-1.355-0.215-2.122-0.204c0,0-1.098-0.026-1.205-0.026
	c-0.305,0.273-0.798,0.322-1.287,0.359c0,0-0.388,0.038-0.417,0.038c-0.391,0.292-0.83,0.353-1.291,0.402
	c-0.372,0.043-0.763,0.08-1.154,0.256l-0.149,0.067c0,0-0.02-0.069-0.041-0.131c-0.052,0.017-0.104,0.028-0.162-0.007
	c-0.06-0.029-0.1-0.09-0.117-0.177l-0.016-0.069l0.033-0.038l0.243-0.294c0.133-0.133,0.242-0.239,0.258-0.442
	c-0.004,0.023-0.146-0.243-0.146-0.243c-0.12-0.181-0.23-0.357-0.182-0.521c0.019-0.056,0.06-0.128,0.16-0.172l0.121-0.051
	l0.123,0.203c0.005-0.029,0.067-0.182,0.067-0.301c0-0.024-0.003-0.044-0.009-0.062c0,0.001-0.059-0.055-0.059-0.055l-0.276-0.272
	l0.091-0.064c0.229-0.404,0.429-0.825,0.558-1.317c-0.051,0.02-0.109,0.045-0.184,0.013c-0.095-0.046-0.121-0.145-0.13-0.178
	l-0.022-0.092l0.066-0.063c0.129-0.127,0.203-0.288,0.186-0.394c-0.009-0.02-0.018-0.09-0.146-0.15l0.101-0.295
	c0.097,0.022,0.107,0.009,0.159-0.073c0.052-0.072,0.137-0.162,0.286-0.191c-0.026-0.128-0.056-0.258-0.056-0.386
	c0-0.293,0.048-0.594,0.095-0.9c0,0,0.064-0.595,0.089-0.815c-0.116-0.015-0.227-0.047-0.321-0.088
	C115.032,14.898,115.017,14.917,114.979,14.991"/>
<path fill="#FFFFFF" d="M35.05,21.362c0,0-0.068,0-0.138-0.001v0.062v0.196c0.006-0.018,0.055-0.03,0.055-0.03l0.139-0.029
	c0,0,0.022,0.048,0.038,0.09c0.03-0.055,0.067-0.099,0.107-0.139c0.005-0.038,0.023-0.163,0.023-0.167
	C35.274,21.362,35.05,21.362,35.05,21.362 M23.634,18.319c-0.063,0.037-0.058,0.134-0.047,0.185
	c0.047,0.052,0.228-0.002,0.329-0.057c-0.03-0.033-0.073-0.071-0.073-0.071C23.78,18.307,23.686,18.293,23.634,18.319
	 M45.178,14.577l-0.45,0.312l-0.071-0.144c-0.068-0.109-0.371-0.083-0.623-0.064h-0.476c-0.155,0.231-0.343,0.208-0.503,0.168
	c0,0-0.125-0.01-0.244-0.021c0.012,0.015,0.313,0.291,0.313,0.291l-0.214,0.082c-0.48,0.27-0.792,0.031-1.07-0.178
	c0,0-0.018-0.017-0.03-0.026c-0.199,0.239-0.549,0.25-0.842,0.225l-0.331-0.004l-0.424,0.129l-0.497,0.139l-0.277-0.077
	l-0.242-0.059l-0.816,0.145c-0.748,0.137-0.753,0.136-0.811,0.114l-0.14-0.058c0,0,0.068-0.2,0.071-0.201
	c-0.006,0-0.046-0.003-0.046-0.003c-0.232-0.062-0.305-0.003-0.414,0.087c-0.104,0.086-0.23,0.194-0.464,0.183
	c-0.515,0.084-1.064,0.007-1.547-0.06l-0.666-0.071l-0.196,0.05l-0.402,0.101l-0.043-0.108l-0.066-0.058
	c-0.176-0.043-0.347,0.009-0.49,0.051c-0.139,0.04-0.269,0.082-0.386-0.002c-0.052-0.04-0.08-0.094-0.1-0.156
	c-0.476,0.089-0.911,0.038-1.403-0.041c-0.482-0.076-1.026-0.161-1.714-0.104l-0.192,0.014l0.03-0.2
	c0.005-0.042,0.001-0.07-0.004-0.08c-0.05-0.047-0.273-0.024-0.382-0.014l-0.266,0.009l-0.906-0.266
	c-0.254-0.018-0.501,0.048-0.665,0.093l-0.248,0.042c-0.076,0-0.133-0.065-0.16-0.102c-0.027-0.031-0.03-0.035-0.07-0.033
	c-0.685,0.07-0.889,0.257-1.067,0.481l-0.045,0.056l-0.015-0.013l-0.37,0.013c0,0-0.053-0.005-0.107-0.008
	c0.007,0.017,0.028,0.022,0.036,0.034c0.021,0.047,0.034,0.095,0.034,0.146c0,0.044-0.009,0.094-0.033,0.135
	c-0.043,0.112-0.154,0.109-0.252,0.098c0.001,0.041,0.001,0.139,0.001,0.139c-0.1,0.415-0.44,0.915-0.623,1.186
	c0,0-0.009,0.017-0.021,0.029c0.012,0.079,0.019,0.163,0.019,0.235c0,0.245-0.041,0.443-0.084,0.636c0,0-0.069,0.459-0.071,0.465
	c0.082-0.069,0.175-0.147,0.175-0.147l-0.041,0.388c-0.003,0.018-0.006,0.035-0.006,0.049c0,0.085,0.051,0.112,0.281,0.156
	c0,0,0.051,0.007,0.085,0.015c0.105-0.045,0.286-0.122,0.286-0.122s0.128-0.049,0.208-0.08c-0.063-0.267-0.108-0.533-0.108-0.791
	c0-0.742,0.247-1.397,0.696-1.773c0.408-0.177,0.574-0.036,0.672,0.102c0.029-0.067,0.07-0.129,0.14-0.158
	c0.062-0.028,0.153-0.037,0.281,0.041c0.009,0.007,0.314,0.394,0.314,0.394l0.264,0.414l-0.264,0.017
	c-0.191,0.009-0.265,0.25-0.339,0.537l-0.044,0.161l-0.068,0.155c-0.05,0.101-0.077,0.16-0.055,0.301l0.033,0.213l-0.209-0.029
	c-0.076-0.012-0.085,0.001-0.135,0.08c0,0-0.043,0.045-0.084,0.089c-0.002,0.053-0.011,0.161-0.011,0.161
	c-0.012,0.319-0.054,0.728-0.405,0.831c0,0.01-0.005,0.015-0.005,0.022c0,0.047,0.035,0.1,0.081,0.182
	c0.045,0.063,0.091,0.146,0.091,0.235c0,0.028-0.004,0.055-0.012,0.083c-0.052,0.127-0.189,0.168-0.233,0.186
	c0,0-0.08,0.019-0.126,0.032c-0.076,0.352-0.113,0.691-0.123,1.041l-0.031,0.658c-0.035,0.19-0.15,0.276-0.257,0.335
	c0.004,0.039,0.008,0.082,0.008,0.122c0,0.418-0.129,0.77-0.25,1.112c-0.117,0.321-0.225,0.631-0.225,0.979
	c0,0.143,0.02,0.3,0.066,0.465l0.057,0.205l-0.212-0.004c-0.092-0.005-0.152,0.039-0.219,0.077v0.008l-0.107,0.376l-0.041,0.096
	c0,0.004-0.047,0.271-0.047,0.271l-0.091,0.417c-0.006,0.009-0.212,0.142-0.212,0.142s-0.025,0.009-0.044,0.019
	c-0.007,0.027-0.008,0.06-0.008,0.06l0.03,0.396l-0.029,0.297l-0.135-0.02h-0.188c0.022,0.078,0.047,0.164,0.047,0.164l-0.116,0.413
	c-0.062,0.134-0.123,0.257-0.123,0.444l0.013,0.205l-0.226,0.244l-0.184,0.18c0.04-0.021,0.149,0.191,0.149,0.191l0.051,0.1
	l-0.069-0.024l-0.084,0.097l-0.179,0.176l-0.242,0.617c-0.007,0.142-0.126,0.211-0.209,0.254c0.012,0.029,0.04,0.053,0.04,0.084
	c0,0.041-0.019,0.181-0.237,0.194c-0.038,0.095-0.111,0.19-0.228,0.24c0.002,0.024,0.013,0.05,0.013,0.071
	c0,0.283-0.171,0.369-0.36,0.416l-0.117,0.037l-0.095,0.162l-0.158,0.234c-0.303,0.288-0.609,0.243-0.902,0.206l-0.464-0.035
	l-0.051-0.09c-0.094-0.233-0.275-0.345-0.487-0.47l-0.394-0.28c-0.085-0.069-0.059-0.196-0.046-0.28h0.002
	c0-0.007-0.235-0.147-0.235-0.147c0-0.007-0.097-0.331-0.097-0.331l-0.046-0.23c-0.002,0.004-0.067-0.078-0.067-0.078l-0.203-0.354
	l0.003-0.363l0.001-0.292l-0.088-0.118c-0.08-0.09-0.193-0.223-0.193-0.387c0-0.039,0.008-0.08,0.026-0.13
	c0,0-0.01-0.543-0.013-0.668c-0.086-0.069-0.226-0.168-0.226-0.168c-0.09-0.095-0.137-0.111-0.248-0.062
	c-0.015,0.148-0.021,0.295-0.021,0.437c0,0.415,0.037,0.786,0.077,1.176c0,0,0.059,1.134,0.069,1.354
	c0.09,0.014,0.263,0.052,0.268,0.256c-0.002,0.027-0.003,0.06-0.003,0.091c0,0.293,0.174,0.463,0.361,0.651
	c0.17,0.162,0.366,0.355,0.366,0.619c0,0-0.003,0.008-0.003,0.013c0.023-0.015,0.054-0.013,0.085-0.031l0.287-0.192l-0.056,0.35
	c-0.005,0.033-0.005,0.063-0.005,0.087c0,0.169,0.097,0.215,0.298,0.295c0.159,0.063,0.335,0.176,0.422,0.386
	c0.351,0.035,0.639,0.126,0.919,0.217c0,0,0.407,0.117,0.521,0.152c0.318-0.338,0.708-0.661,1.188-0.975v-0.574l0.18-0.035
	l0.172-0.047c0.064-0.049,0.155-0.094,0.278-0.102c0.009-0.133,0.058-0.223,0.103-0.291l0.068-0.239l0.043-0.093l0.228-0.154
	c0,0,0.131-0.108,0.203-0.167l-0.003-0.011c0-0.08,0.019-0.164,0.03-0.189c0.052-0.154,0.155-0.236,0.275-0.279
	c0.002-0.076,0.011-0.218,0.011-0.218c0-0.043-0.003-0.084-0.003-0.123c0-0.218,0.02-0.437,0.149-0.579
	c0.056-0.07,0.141-0.061,0.24-0.048c0.015-0.123,0.04-0.358,0.04-0.358l0.077-0.602l0.13-0.206l0.129-0.188
	c0.071-0.297,0.174-0.449,0.381-0.565c-0.006-0.044-0.008-0.086-0.008-0.121c0-0.215,0.041-0.387,0.086-0.553
	c0.038-0.147,0.073-0.295,0.073-0.478c0-0.067-0.002-0.139-0.018-0.219l-0.031-0.209l0.301,0.037l-0.005-0.002
	c0-0.026,0.021-0.129,0.021-0.129l0.145-0.355c0,0,0.056-0.014,0.109-0.027c0.02-0.135,0.064-0.381,0.064-0.381
	c0.033-0.144,0.067-0.277,0.067-0.449c0-0.068-0.004-0.141-0.019-0.22l-0.032-0.205l0.315,0.033c-0.014-0.003-0.025-0.19-0.025-0.19
	l0.016-0.402c0.043-0.099,0.143-0.117,0.221-0.128c0,0,0.021-0.006,0.039-0.009c-0.003-0.023-0.015-0.065-0.015-0.065v-0.864
	l0.045-0.041c0.209-0.228,0.238-0.475,0.27-0.731c0.036-0.26,0.099-0.54,0.33-0.797c-0.036-0.124-0.066-0.241-0.066-0.317
	c0-0.148,0.054-0.23,0.15-0.316l0.071-0.074c-0.004,0-0.013-0.174-0.013-0.174l0.005-0.345l0.128-0.194l0.126-0.193
	c0.08-0.309,0.178-0.466,0.404-0.587c0.008-0.009,0.008-0.022,0.008-0.037c0-0.049-0.027-0.106-0.067-0.17
	c-0.027-0.054-0.064-0.12-0.064-0.189c0-0.035,0.006-0.068,0.028-0.099c0.041-0.077,0.128-0.089,0.22-0.092
	c0.019-0.573,0.099-0.984,0.273-1.275l0.049-0.085l0.56,0.065c0.609,0.064,1.23,0.145,1.635,0.471
	c0.281-0.112,0.564-0.037,0.823,0.047l0.341,0.099l1.123,0.131c0.636,0.058,1.233,0.119,1.759,0.271l0.203,0.062l-0.097,0.134
	l-0.19,0.291c0,0-0.022,0.029-0.035,0.039c0.008,0,0.013,0.01,0.022,0.021c0.197,0.076,0.217,0.044,0.277-0.091
	c0.033-0.088,0.121-0.208,0.265-0.273c-0.011-0.036-0.018-0.073-0.018-0.073c-0.021-0.038-0.049-0.094-0.049-0.156
	c0-0.027,0.005-0.055,0.018-0.08c0.038-0.097,0.137-0.13,0.168-0.139l0.109-0.032l0.06,0.092c0.114,0.161,0.371,0.221,0.639,0.282
	l0.851,0.291l-0.202,0.158c-0.264,0.287-0.302,0.853-0.337,1.408c-0.021,0.371-0.047,0.76-0.147,1.073
	c-0.043,0.12-0.144,0.122-0.259,0.116c0.002,0.1,0.002,0.228,0.002,0.228c0.012,0.082,0.019,0.171,0.019,0.259
	c0,0.162-0.056,0.302-0.186,0.381c0.028,0.057,0.039,0.118,0.04,0.157l0.004,0.039l-0.016,0.038
	c-0.243,0.565-0.265,1.141-0.265,1.702v0.338c0,0.408-0.013,0.797-0.121,1.153l-0.173,0.284c-0.072,0.085-0.106,0.129-0.106,0.192
	c0,0.025,0.004,0.055,0.015,0.085l0.014,0.033c0,0-0.003,0.06-0.003,0.069c0,0.122,0.046,0.194,0.109,0.288l0.194,0.392
	l-0.077,0.051c-0.153,0.171-0.21,0.363-0.21,0.566c0,0.246,0.084,0.517,0.177,0.824c0.102,0.333,0.214,0.709,0.214,1.098v0.006
	c0.324-0.067,0.494,0.072,0.626,0.209c0.086,0.095,0.178,0.17,0.32,0.212c-0.039-0.039-0.073-0.083-0.073-0.147
	c0-0.018,0.006-0.043,0.014-0.07c0.045-0.108,0.166-0.137,0.209-0.152l0.13-0.032l0.064,0.162l0.08,0.002l0.118-0.094
	c0.085-0.089,0.214-0.214,0.466-0.19c0.024-0.064,0.031-0.152,0.088-0.178c0.04-0.025,0.109-0.01,0.178,0.009
	c0.005-0.008,0.099-0.296,0.099-0.296l0.225-0.16c0,0,0.078-0.062,0.149-0.123c-0.061-0.068-0.109-0.154-0.138-0.217l-0.099-0.22
	h0.57c-0.002-0.017-0.145-0.603-0.145-0.603l0.219,0.065c0.073,0.007,0.101-0.022,0.168-0.103l0.254-0.162
	c0,0,0.034,0.021,0.051,0.025c-0.017-0.115-0.031-0.227-0.091-0.314l-0.16-0.228l0.302-0.019c0-0.004-0.222-0.346-0.222-0.346
	l0.37,0.08c0.133,0.035,0.195,0.019,0.208,0.006c0.013-0.015,0.029-0.078-0.004-0.216l-0.099-0.464c0,0,0.372,0.33,0.382,0.336
	c0.04-0.081,0.117-0.141,0.235-0.175v-0.558c-0.128-0.075-0.277-0.111-0.477-0.087l-0.185,0.022l0.013-0.19
	c0.004-0.055-0.007-0.08-0.014-0.091c-0.004-0.002-0.042-0.026-0.147-0.017c-0.036,0.047-0.082,0.098-0.082,0.098
	c-0.37,0.429-0.715,0.83-0.889,1.406l-0.02,0.062l-0.118,0.045l-0.08,0.041c0,0-0.094,0.025-0.187,0.053
	c-0.029,0.224-0.13,0.381-0.217,0.499c-0.097,0.122-0.171,0.217-0.171,0.389c0,0.05,0.004,0.106,0.017,0.17l0.026,0.146
	l-0.141,0.036c-0.172,0.043-0.288,0.147-0.419,0.27l-0.494,0.374l-0.048-0.206c-0.171-0.436-0.215-0.895-0.215-1.354
	c0-0.318,0.021-0.639,0.043-0.957l0.029-0.426l-0.057-0.282l-0.072-0.381l0.101-0.256c0.035-0.042,0.08-0.261,0.08-0.261
	s0.182-0.608,0.209-0.697c-0.014-0.111-0.023-0.218-0.023-0.313c0-0.382,0.097-0.659,0.175-0.896l0.109-0.396l-0.007-0.36
	l0.013-0.457c0.031-0.169,0.152-0.234,0.225-0.279c0.024-0.029,0.034-0.058,0.034-0.09c0-0.048-0.023-0.099-0.06-0.161l-0.121-0.43
	l0.093,0.078l0.224-0.046h0.009c0.025-0.163,0.078-0.609,0.078-0.609l0.036-0.333l0.035-0.187c0.056-0.282,0.098-0.489,0.098-0.778
	c0-0.062,0-0.126-0.005-0.199l-0.016-0.27l0.239,0.122c0.184,0.095,0.382,0,0.615-0.11l0.463-0.174l0.5,0.069
	c0,0,0.152,0.032,0.235,0.048c0.061-0.056,0.129-0.104,0.154-0.11c0.014-0.004,0.192-0.008,0.192-0.008l0.096,0.001
	c0.006,0,4.95-0.519,5.06-0.533c0.202-0.203,0.501-0.279,0.807-0.331c0.423-0.075,0.674-0.15,0.738-0.419
	c-0.154-0.144-0.252-0.327-0.252-0.585c0-0.085,0.008-0.178,0.024-0.277l0.023-0.127h0.366v-0.595
	c-0.024,0.003-0.064,0.01-0.064,0.01c-0.19,0.033-0.332,0.057-0.409-0.067c-0.028-0.034-0.037-0.076-0.037-0.12
	c0-0.037,0.039-0.093,0.054-0.133C45.615,14.244,45.408,14.396,45.178,14.577"/>
<path fill="#FFFFFF" d="M43.28,24.653c0-0.338,0.155-0.683,0.3-1.016l0.151-0.352l0.126-0.504l0.338-1.226l0.178,0.205
	c0.206,0.199,0.309,0.517,0.309,0.969v0.072c0.011,0.039,0.032,0.078,0.032,0.111c0,0.04-0.008,0.076-0.023,0.108
	c-0.047,0.099-0.14,0.133-0.219,0.153c0.038,0.084,0.074,0.169,0.074,0.169l-0.043,0.338c-0.042,0.226-0.099,0.575-0.099,0.885
	c0,0.222,0.028,0.425,0.118,0.557l0.135,0.205l-0.236,0.039c-0.173,0.034-0.208,0.222-0.226,0.659
	c-0.011,0.395-0.035,0.945-0.58,0.951l-0.176,0.004l0.024-0.186c0.044-0.369-0.053-0.523-0.183-0.72
	c-0.165-0.259-0.357-0.557-0.206-1.295l0.042-0.215c0,0,0.163,0.104,0.17,0.106C43.287,24.671,43.28,24.66,43.28,24.653
	 M44.423,20.077l-0.269,0.082l-0.409,0.017c-0.222-0.004-0.437,0.015-0.647,0.091c-0.028,0.43-0.257,0.686-0.637,0.771
	c-0.007,0.12-0.034,0.496-0.034,0.496c-0.021,0.415-0.043,0.68-0.216,1.154c0,0.029,0.046,0.317,0.046,0.317
	c0.016,0.092,0.038,0.187,0.038,0.28c0,0.16-0.064,0.325-0.297,0.46l-0.208,0.123c0,0-0.014-0.152-0.019-0.21
	c-0.053,0.05-0.122,0.078-0.2,0.098c0.01,0.077,0.027,0.159,0.027,0.224c0,0.32-0.091,0.572-0.176,0.799l-0.129,0.448l0.047,0.208
	l0.084,0.309c0,0.005-0.106,0.359-0.106,0.359c-0.044,0.08-0.065,0.129-0.065,0.166c0,0.021,0.007,0.041,0.021,0.067l-0.057-0.058
	c0.237,0.146,0.359,0.384,0.359,0.705c0,0.029-0.007,0.063-0.011,0.097c0.348,0.033,0.475-0.14,0.619-0.356l0.279,0.131l-0.15,0.379
	c-0.071,0.156-0.14,0.289-0.14,0.5c0,0.067,0.011,0.144,0.026,0.229c0.074,0.095,0.255,0.321,0.255,0.321s0.046,0.07,0.08,0.121
	c0.21,0.037,0.304-0.03,0.425-0.127l0.302-0.209l0.061,0.094l0.202,0.217c0.141,0.166,0.24,0.285,0.479,0.282
	c0.181,0.028,0.282-0.11,0.394-0.299l0.212-0.226c0.101-0.031,0.168,0.025,0.232,0.07l0.002-0.011
	c0.039-0.142,0.095-0.337,0.248-0.445c0.073-0.043,0.147-0.022,0.22,0c-0.039-0.055-0.043-0.108-0.043-0.133
	c0-0.114,0.08-0.218,0.193-0.254c0.026-0.005,0.055-0.009,0.088-0.005c0-0.062,0.004-0.135,0.004-0.135
	c0-0.045-0.004-0.095-0.004-0.142c0-0.326,0.022-0.638,0.215-0.823c0.078-0.074,0.186-0.091,0.296-0.109
	c-0.007-0.172-0.017-0.342-0.017-0.506c0-0.561,0.044-1.074,0.084-1.577c0.039-0.493,0.081-1.004,0.081-1.553
	c0-0.163-0.007-0.33-0.012-0.499l-0.007-0.172l0.163,0.004c0.088,0,0.149-0.04,0.21-0.071c-0.015-0.065-0.043-0.133-0.043-0.19
	c0-0.116,0.024-0.216,0.045-0.309l0.028-0.301c-0.003,0.003-0.12-0.123-0.12-0.123c-0.122-0.107-0.306-0.274-0.306-0.543
	c0-0.004,0.001-0.011,0.001-0.016c-0.159,0.003-0.384,0.005-0.384,0.005l-0.643-0.013l-0.315-0.176l-0.176-0.084L44.423,20.077"/>
<path fill="#FFFFFF" d="M68.763,21.456c0,0.011,0.004,0.027,0.004,0.041c0.012-0.039,0.067-0.056,0.098-0.083
	c-0.007-0.091-0.018-0.282-0.018-0.308C68.796,21.207,68.763,21.325,68.763,21.456 M70.314,20.06
	c-0.216,0.167-0.485,0.374-0.84,0.369c-0.063,0.085-0.101,0.217-0.134,0.358c-0.039,0.175-0.09,0.354-0.202,0.488
	c0.006,0,0.019-0.006,0.019-0.006v1.164h-0.679c-0.053,0.168-0.093,0.341-0.093,0.515c0,0.266,0.047,0.533,0.093,0.798
	c0.044,0.254,0.091,0.521,0.091,0.774c0,0.162-0.021,0.321-0.066,0.472l-0.023,0.067l-0.106,0.064l-0.013,0.007
	c0,0.055-0.144,0.338-0.144,0.338s-0.062,0.009-0.116,0.013c-0.16,1.03-0.222,2.093-0.222,3.173c0,1.49,0.116,3.012,0.222,4.5
	c0,0,0.01,0.138,0.016,0.175c0.144,0.137,0.214,0.366,0.244,0.587c0,0,0.002,0.013,0.002,0.016c0.024-0.035,0.25-0.365,0.25-0.365
	l0.025,0.468l0.077,1.858c0.035,0.543,0.075,1.094,0.075,1.692c0,0.205-0.011,0.414-0.018,0.638
	c0.109,0.073,0.352,0.071,0.582,0.063h0.152c0.007-0.203,0.014-0.399,0.014-0.591c0-0.687-0.04-1.33-0.081-1.955
	c-0.04-0.633-0.08-1.283-0.08-1.973c0-0.197,0.006-0.395,0.013-0.595c-0.23-0.17-0.273-0.505-0.273-0.842
	c0-0.06,0.001-0.272,0.001-0.326c0-0.228-0.01-0.438-0.091-0.55l-0.083-0.121l0.113-0.1c0.138-0.115,0.307-0.381,0.334-0.692
	c0.002-0.03,0.002-0.063,0.002-0.095c0-0.274-0.09-0.492-0.185-0.73l-0.069-0.168l-0.01-1.72l0.019-0.017l0.162-0.197l0.081-0.154
	c0.049-0.299,0.059-0.648,0.059-1.001c0-0.123-0.004-0.609-0.004-0.735c0-0.57,0.037-1.085,0.204-1.452h-0.004l0.009-0.35
	c0.005-0.352,0.035-0.793,0.375-0.944c-0.005-0.053-0.019-0.116-0.019-0.161c0-0.317,0.133-0.527,0.243-0.702
	c0.081-0.127,0.14-0.219,0.14-0.33c0-0.07-0.022-0.142-0.073-0.234l-0.086-0.17l0.205-0.067l0.366-0.13
	c0.173-0.082,0.369-0.174,0.665-0.154v-0.374l0.147-0.011c0.305-0.023,0.459,0.124,0.587,0.238c0.104,0.098,0.178,0.164,0.332,0.163
	l0.127-0.002l0.024,0.124c0.055,0.247,0.084,0.491,0.084,0.728c0,0.521-0.133,0.996-0.385,1.347
	c-0.272,0.377-0.695,0.589-1.205,0.641c-0.364,0.398-0.653,0.531-1.216,0.44c0.023,0.102,0.045,0.202,0.045,0.282
	c0,0.086-0.007,0.16-0.018,0.226c-0.009,0.057-0.013,0.107-0.013,0.152c0,0.082,0.02,0.166,0.086,0.283
	c0.02,0.014,0.04,0.022,0.195-0.029c0.129-0.041,0.304-0.091,0.529-0.06c0.16-0.223,0.42-0.424,0.691-0.484
	c0.163-0.04,0.303,0.008,0.442,0.06c0.06-0.197,0.151-0.363,0.248-0.517l0.39-0.643v0.457c0.017-0.041,0.04-0.085,0.04-0.085
	c0.038-0.057,0.117-0.07,0.191-0.084c0.026-0.281,0.133-0.478,0.245-0.639c0,0,0.092-0.149,0.121-0.201
	c-0.045-0.15-0.079-0.298-0.079-0.422c0-0.385,0.193-0.639,0.41-0.861c-0.047-0.085-0.07-0.184-0.07-0.278v-0.005
	c-0.093-0.026-0.185-0.063-0.205-0.167c-0.005-0.011-0.005-0.027-0.005-0.043c0-0.025,0.012-0.056,0.03-0.09
	c-0.063-0.074-0.144-0.176-0.144-0.176c-0.156-0.14-0.343-0.304-0.343-0.651c0-0.024,0.009-0.051,0.009-0.074
	c-0.023-0.004-0.057-0.008-0.057-0.008c-0.658-0.077-1.178-0.141-1.823,0.021c-0.088,0.043-0.162,0.149-0.244,0.278l-0.644,0.653
	l0.049-0.418c0.007-0.425,0.279-0.601,0.494-0.74c0.079-0.053,0.133-0.114,0.199-0.174C70.623,19.853,70.52,19.895,70.314,20.06"/>
<path fill="#FFFFFF" d="M50.655,22.508c-0.129-0.166-0.185-0.337-0.185-0.502c0-0.347,0.234-0.669,0.407-0.91l0.194-0.292
	l0.074-0.022c0.491-0.073,0.777,0.088,1.022,0.223l0.193,0.104v0.127l0.004,0.391l-0.004,0.545c0,0.003-0.21,0.254-0.21,0.254
	s-0.06,0.053-0.071,0.061c0.004,0,0.005,0.007,0.005,0.021c0,0.035-0.009,0.108-0.009,0.108l-0.14,0.4c0,0-0.115,0.025-0.225,0.048
	c-0.013,0.607-0.349,0.897-0.649,1.147c-0.252,0.215-0.47,0.399-0.522,0.76l-0.028,0.184l-0.175-0.058
	c-0.247-0.086-0.304-0.241-0.304-0.375c0-0.069,0.018-0.133,0.027-0.179l0.017-0.112l-0.173-0.116l0.123-0.158
	c0.387-0.336,0.517-0.965,0.632-1.647L50.655,22.508z M50.287,19.96c0,0.015,0.002,0.031,0.002,0.041
	c0,0.428-0.285,0.575-0.485,0.677c-0.05,0.013-0.419-0.069-0.419-0.069l-0.058-0.019c-0.078,0.337-0.188,0.678-0.488,0.841
	c-0.025,0.498-0.111,0.848-0.286,1.074l-0.133,0.172c0,0-0.152-0.24-0.158-0.255c-0.048,0.334-0.075,0.697-0.075,1.083
	c0,0.186,0.001,0.375,0.007,0.56v0.946l-0.039,0.043c-0.168,0.187-0.257,0.407-0.312,0.65c0.079-0.056,0.163-0.106,0.163-0.106
	c0.23-0.025,0.442-0.033,0.523,0.126c0.014,0.027,0.021,0.055,0.024,0.087c0.054-0.017,0.135-0.017,0.171-0.051l0.321-0.283
	l-0.072,0.426c-0.002,0.032-0.005,0.056-0.005,0.076c0,0.099,0.062,0.128,0.278,0.179c0.163,0.03,0.357,0.102,0.454,0.288
	c0.058-0.003,0.116-0.021,0.169-0.021c0,0,0.311-0.023,0.335-0.027h-0.005c0-0.014,0.043-0.059,0.043-0.059l0.231-0.207h0.305
	c0,0,0.082,0.006,0.135,0.008c0.009-0.103,0.022-0.194,0.097-0.25c0.033-0.022,0.105-0.056,0.202-0.026
	c0.113-0.018,0.196,0.049,0.289,0.095c0.001-0.104,0.064-0.248,0.172-0.332c0.052-0.041,0.169-0.09,0.314-0.058
	c-0.008-0.042-0.027-0.089-0.027-0.133c0-0.187,0.071-0.357,0.302-0.496l0.155-0.088c0,0,0.036,0.083,0.054,0.139
	c0.063-0.103,0.139-0.21,0.269-0.203l0.139,0.011l0.005,0.14c0.044,1.016-0.148,1.703-0.353,2.428l-0.316,1.284l-0.065,0.042
	c-0.233,0.128-0.407,0.297-0.612,0.509l-0.048,0.047l-0.067-0.004c-0.198-0.006-0.337,0.028-0.416,0.099L50.8,29.524l-0.044-0.275
	c-0.019-0.126-0.098-0.196-0.193-0.286c0,0-0.064-0.063-0.11-0.121c-0.336-0.011-0.571,0.047-0.733,0.148
	c0.03,0.07,0.043,0.154,0.043,0.234v0.029c0.149,0.062,0.256,0.166,0.312,0.256l0.067,0.09c0.133,0.009,0.209,0.078,0.233,0.205
	c-0.006-0.01-0.024-0.043-0.059-0.063c0.477,0.239,0.834,0.199,1.33,0.139l0.262-0.024l0.005-0.101l0.492-0.067
	c0.119-0.025,0.227-0.017,0.383,0.021c0.08-0.139,0.252-0.433,0.252-0.433c0.232-0.35,0.453-0.684,0.453-1.244
	c0-0.048-0.002-0.09-0.007-0.139v-0.06l0.064-0.075l0.23-0.3c0,0,0.051-0.084,0.089-0.143c-0.058-0.136-0.105-0.274-0.105-0.411
	c0-0.246,0.071-0.486,0.136-0.711l0.108-0.463l-0.066-0.281l-0.064-0.247c0,0.009,0.073-0.158,0.073-0.158
	c0.039-0.051,0.065-0.089,0.065-0.147c0-0.011,0-0.024-0.001-0.043c-0.036-0.056-0.078-0.123-0.128-0.259
	c-0.012-0.005-0.138-0.31-0.138-0.31l0.079-0.455l0.05-0.226l-0.058-0.317l-0.071-0.344c0,0.007,0.077-0.355,0.077-0.355l0.052-0.19
	l-0.033-0.061l-0.093-0.362l0.092-0.154l0.034-0.086l-0.029-0.288c-0.019-0.103-0.038-0.214-0.038-0.333
	c0-0.033,0.019-0.073,0.024-0.109l-0.58,0.154l0.107-0.259c0.008-0.04,0.012-0.069,0.012-0.098c0-0.079-0.039-0.113-0.103-0.171
	c-0.088-0.077-0.215-0.185-0.215-0.41c0-0.039,0.019-0.088,0.025-0.134c-0.14-0.065-0.374-0.186-0.374-0.186
	c-0.29-0.177-0.538-0.329-1.001-0.279l-0.141,0.016l-0.057-0.294v-0.012C51.161,19.556,50.75,19.759,50.287,19.96"/>
</svg>
